<?xml version="1.0" encoding="utf-8"?>
<!-- Generator: Adobe Illustrator 23.1.0, SVG Export Plug-In . SVG Version: 6.00 Build 0)  -->
<svg version="1.1" id="Layer_1" xmlns="http://www.w3.org/2000/svg" xmlns:xlink="http://www.w3.org/1999/xlink" x="0px" y="0px"
	 viewBox="0 0 1000 1000" style="enable-background:new 0 0 1000 1000;" xml:space="preserve">
<style type="text/css">
	.st0{display:none;}
	.st1{display:inline;}
	.st2{fill:#FFFFFF;}
	.st3{fill:#E5E5E5;}
	.st4{fill:#FFFFFF;stroke:#000000;stroke-linecap:round;stroke-linejoin:round;stroke-miterlimit:10;}
	.st5{fill:none;stroke:#000000;stroke-linecap:round;stroke-linejoin:round;stroke-miterlimit:10;}
	.st6{fill:none;stroke:#000000;stroke-width:1;stroke-linecap:round;stroke-linejoin:round;stroke-miterlimit:9.9998;}
	.st7{fill:none;stroke:#000000;stroke-width:1;stroke-linecap:round;stroke-linejoin:round;stroke-miterlimit:10.0004;}
	.st8{fill:none;}
	.st9{fill:none;stroke:#000000;stroke-miterlimit:10;}
	.st10{display:inline;fill:none;}
	.st11{fill:#FFFFFF;stroke:#000000;stroke-miterlimit:10;}
	.st12{display:inline;fill:none;stroke:#000000;stroke-linecap:round;stroke-linejoin:round;stroke-miterlimit:10;}
	.st13{display:inline;fill:#FFFFFF;}
	.st14{fill:none;stroke:#000000;stroke-width:1;stroke-miterlimit:9.9998;}
	.st15{fill:#FFFFFF;stroke:#000000;stroke-width:1;stroke-linecap:round;stroke-linejoin:round;stroke-miterlimit:10.0002;}
	.st16{display:inline;fill:none;stroke:#000000;stroke-miterlimit:10;}
</style>
<g class="st0">
	<g class="st1">
		<g>
			<path class="st2" d="M515.3,485.7l17.1,75.5c1.1,4.7-4.7,12.4-13.6,14.4c-8.8,2-17.4-2.5-18.4-7.2l-17.1-75.5
				c-0.6-2.8,1.1-5.5,3.9-6.2l22-5C512,481.2,514.7,482.9,515.3,485.7z"/>
			<path class="st2" d="M516.8,482.9l-36,8.1c-1.8,0.4-3.7-0.7-4.1-2.6l0,0c-0.4-1.8,0.7-3.7,2.6-4.1l36-8.1
				c1.8-0.4,3.7,0.7,4.1,2.6l0,0C519.8,480.7,518.6,482.5,516.8,482.9z"/>
			
				<rect x="477.4" y="348.8" transform="matrix(0.9754 -0.2204 0.2204 0.9754 -79.6851 116.5902)" class="st2" width="10.5" height="133.2"/>
			<polygon class="st2" points="469.6,350.1 462.8,328.1 466.2,327.3 473,349.3 			"/>
			<polygon class="st2" points="462.8,351.6 459.5,328.8 466.2,327.3 469.6,350.1 			"/>
		</g>
		<polygon class="st3" points="521.2,511.7 506.5,511.7 500.8,486.9 514.4,483.7 515.3,485.7 		"/>
		<polygon class="st3" points="466.2,327.3 469.6,350.1 499.2,479.9 502.4,479.2 473,349.3 		"/>
		<path class="st4" d="M516.8,482.9l-36,8.1c-1.8,0.4-3.7-0.7-4.1-2.6l0,0c-0.4-1.8,0.7-3.7,2.6-4.1l36-8.1c1.8-0.4,3.7,0.7,4.1,2.6
			l0,0C519.8,480.7,518.6,482.5,516.8,482.9z"/>
		<polygon class="st3" points="500.8,486.9 499.2,479.9 515.3,476.3 517.8,476.7 519.4,478.9 518.8,481.7 516.3,483.1 		"/>
		<path class="st5" d="M514.8,483.4l17.6,77.8c1.1,4.7-4.7,12.4-13.6,14.4c-8.8,2-17.4-2.5-18.4-7.2l-17.6-77.8"/>
		<path class="st5" d="M516.8,482.9l-36,8.1c-1.8,0.4-3.7-0.7-4.1-2.6l0,0c-0.4-1.8,0.7-3.7,2.6-4.1l36-8.1c1.8-0.4,3.7,0.7,4.1,2.6
			l0,0C519.8,480.7,518.6,482.5,516.8,482.9z"/>
		
			<rect x="477.4" y="348.8" transform="matrix(0.9754 -0.2204 0.2204 0.9754 -79.6851 116.5902)" class="st6" width="10.5" height="133.2"/>
		<polygon class="st5" points="469.6,350.1 462.8,328.1 466.2,327.3 473,349.3 		"/>
		<polygon class="st4" points="462.8,351.6 459.5,328.8 466.2,327.3 469.6,350.1 		"/>
	</g>
	<g class="st1">
		<g>
			<path class="st2" d="M475.5,528.8l-19.8,74.8c-1.2,4.7-9.9,8.8-18.7,6.5c-8.8-2.3-14.3-10.2-13-14.9l19.8-74.8
				c0.7-2.8,3.5-4.4,6.3-3.7l21.8,5.8C474.6,523.2,476.2,526,475.5,528.8z"/>
			<path class="st2" d="M478.1,527l-35.7-9.4c-1.8-0.5-2.9-2.4-2.4-4.2l0,0c0.5-1.8,2.4-2.9,4.2-2.4l35.7,9.4
				c1.8,0.5,2.9,2.4,2.4,4.2l0,0C481.8,526.4,479.9,527.5,478.1,527z"/>
			
				<rect x="412.5" y="446" transform="matrix(0.256 -0.9667 0.9667 0.256 -79.7633 798.9464)" class="st2" width="133.2" height="10.5"/>
			<polygon class="st2" points="497.7,387.4 501.9,364.7 505.3,365.6 501.1,388.3 			"/>
			<polygon class="st2" points="491,385.6 498.6,363.9 505.3,365.6 497.7,387.4 			"/>
		</g>
		<polygon class="st3" points="505.1,366.7 501.1,388.3 477.9,476 475.4,471.6 497.7,387.4 		"/>
		<g>
			<path class="st5" d="M475.5,528.8l-19.8,74.8c-1.2,4.7-9.9,8.8-18.7,6.5c-8.8-2.3-14.3-10.2-13-14.9l19.8-74.8
				c0.7-2.8,3.5-4.4,6.3-3.7l21.8,5.8C474.6,523.2,476.2,526,475.5,528.8z"/>
			<path class="st5" d="M478.1,527l-35.7-9.4c-1.8-0.5-2.9-2.4-2.4-4.2l0,0c0.5-1.8,2.4-2.9,4.2-2.4l35.7,9.4
				c1.8,0.5,2.9,2.4,2.4,4.2l0,0C481.8,526.4,479.9,527.5,478.1,527z"/>
			
				<rect x="412.5" y="446" transform="matrix(0.256 -0.9667 0.9667 0.256 -79.7633 798.9464)" class="st7" width="133.2" height="10.5"/>
			<polygon class="st5" points="497.7,387.4 501.9,364.7 505.3,365.6 501.1,388.3 			"/>
			<polygon class="st4" points="491,385.6 498.6,363.9 505.3,365.6 497.7,387.4 			"/>
		</g>
	</g>
	<g class="st1">
		<g>
			<polygon class="st2" points="344.4,511.7 452.7,511.7 420.5,438.7 312.2,438.7 			"/>
			<polygon class="st2" points="348.2,511.7 452.7,511.7 420.5,438.7 316.1,438.7 			"/>
			<line class="st8" x1="342" y1="506.2" x2="345.8" y2="506.2"/>
			<line class="st8" x1="326.6" y1="471.3" x2="330.4" y2="471.3"/>
			<line class="st8" x1="317.4" y1="450.3" x2="321.2" y2="450.3"/>
		</g>
		<g>
			<polygon class="st2" points="364.4,511.7 472.6,511.7 440.5,438.7 332.2,438.7 			"/>
			<polygon class="st3" points="368.2,511.7 428.3,511.7 398,438.7 336,438.7 			"/>
			<line class="st8" x1="362" y1="506.2" x2="365.8" y2="506.2"/>
			<line class="st8" x1="346.6" y1="471.3" x2="350.4" y2="471.3"/>
			<line class="st8" x1="337.3" y1="450.3" x2="341.2" y2="450.3"/>
		</g>
		<line class="st8" x1="321.2" y1="450.3" x2="326.3" y2="450.3"/>
		<g>
			<polygon class="st9" points="344.4,511.7 452.7,511.7 420.5,438.7 312.2,438.7 			"/>
			<polygon class="st9" points="348.2,511.7 452.7,511.7 420.5,438.7 316.1,438.7 			"/>
			<line class="st9" x1="342" y1="506.2" x2="345.8" y2="506.2"/>
			<line class="st9" x1="326.6" y1="471.3" x2="330.4" y2="471.3"/>
			<line class="st9" x1="317.4" y1="450.3" x2="321.2" y2="450.3"/>
		</g>
		<line class="st5" x1="321.2" y1="450.3" x2="326.3" y2="450.3"/>
	</g>
	<g class="st1">
		<path class="st2" d="M540.6,442.4l-6.5-2.1c-2.8-0.9-4.4-3.9-3.4-6.8l7.6-23.2l6.5,2.1l-7.6,23.2
			C536.2,438.4,537.7,441.4,540.6,442.4z"/>
		<path class="st3" d="M569.2,442c-3.2,9.9-12.5,16-22.4,15.7L524.9,525c8.2,5.5,12.1,16,8.9,25.9c-2.8,8.7-10.3,14.5-18.8,15.5
			l-6.5-2.1c2.9-0.4,5.6-1.3,8.1-2.6c2.4-1.3,4.6-3.1,6.4-5.2c1.9-2.2,3.3-4.8,4.3-7.7c2.4-7.3,0.9-14.9-3.4-20.6
			c-1.5-2-3.4-3.8-5.5-5.3l21.9-67.3c2.6,0.1,5.1-0.3,7.5-1c6.8-2.1,12.5-7.4,14.9-14.7c0.9-2.7,1.2-5.4,1.1-8.1
			c-0.1-3-0.9-6-2.2-8.7c-1.2-2.6-2.9-4.9-5-6.9l6.5,2.1C569.4,424.3,572,433.4,569.2,442z"/>
		<path class="st2" d="M510.8,533.8c-2.8-0.9-5.8,0.6-6.8,3.4l-7.6,23.2l-6.5-2.1l7.6-23.2c0.9-2.8,3.9-4.4,6.8-3.4L510.8,533.8z"/>
		<path class="st2" d="M540.3,455.6l-21.9,67.3c-0.8-0.6-1.7-1.1-2.6-1.5l0,0c-0.9-0.4-1.7-0.8-2.7-1.1c-0.2-0.1-0.3-0.1-0.5-0.2
			c-2.1-0.7-4.2-1-6.3-1.1l21.9-67.3c1.7,1.2,3.7,2.1,5.7,2.8c0.2,0.1,0.3,0.1,0.5,0.2c0.9,0.3,1.9,0.5,2.8,0.7
			C538.3,455.5,539.3,455.6,540.3,455.6z"/>
		<path class="st2" d="M562.7,439.9c-2.4,7.3-8.1,12.5-14.9,14.7c-2.4,0.8-5,1.1-7.5,1c-1,0-2-0.1-3-0.3c-0.9-0.2-1.9-0.4-2.8-0.7
			c-0.2-0.1-0.3-0.1-0.5-0.2c-2.1-0.7-4-1.6-5.7-2.8c-8.2-5.5-12.1-16-8.8-25.9c2.8-8.6,10.3-14.5,18.8-15.5l-7.6,23.2
			c-0.9,2.8,0.6,5.8,3.4,6.8l8.3,2.7c2.8,0.9,5.8-0.6,6.8-3.4l7.6-23.2c2.1,2,3.8,4.3,5,6.9c1.3,2.7,2,5.6,2.1,8.6l0,0
			C563.9,434.5,563.5,437.2,562.7,439.9z"/>
		<path class="st2" d="M527.2,548.8c-0.9,2.9-2.4,5.5-4.3,7.7c-1.8,2.1-4,3.9-6.4,5.2c-2.5,1.4-5.2,2.3-8.1,2.6l7.6-23.2
			c0.9-2.8-0.6-5.8-3.4-6.8l-8.3-2.7c-2.8-0.9-5.8,0.6-6.8,3.4l-7.6,23.2c-6.2-5.9-8.8-15-6-23.6c3.2-9.9,12.5-16,22.4-15.7
			c2.1,0.1,4.2,0.4,6.3,1.1c0.2,0.1,0.3,0.1,0.5,0.2c0.9,0.3,1.8,0.7,2.7,1.1l0,0c0.9,0.4,1.7,0.9,2.6,1.5c2.1,1.5,4,3.2,5.5,5.3
			C528.1,533.9,529.6,541.5,527.2,548.8z"/>
	</g>
	<g class="st1">
		<path class="st2" d="M597.1,417.4l-6.5-2.1c-2.8-0.9-4.4-3.9-3.4-6.8l7.6-23.2l6.5,2.1l-7.6,23.2
			C592.8,413.5,594.3,416.5,597.1,417.4z"/>
		<path class="st3" d="M590.3,526c-2.8,8.6-10.3,14.5-18.8,15.5l-6.5-2.1c2.8-0.4,5.6-1.3,8.1-2.6c2.4-1.3,4.6-3.1,6.4-5.2
			c1.9-2.2,3.3-4.8,4.3-7.7c2.4-7.3,0.9-14.9-3.4-20.6c-1.5-2-3.3-3.8-5.5-5.3l21.9-67.3c2.6,0.1,5.1-0.3,7.5-1
			c6.8-2.1,12.5-7.4,14.9-14.7c0.9-2.7,1.2-5.4,1.1-8.1l0,0c-0.1-3-0.9-6-2.1-8.6c-1.2-2.6-2.9-4.9-5-6.9l6.5,2.1
			c6.2,5.9,8.8,15,6,23.6c-3.2,9.9-12.5,16-22.4,15.7l-21.9,67.3C589.6,505.7,593.5,516.1,590.3,526z"/>
		<path class="st2" d="M567.3,508.9c-2.8-0.9-5.8,0.6-6.8,3.4l-7.6,23.2l-6.5-2.1l7.6-23.2c0.9-2.8,3.9-4.4,6.8-3.4L567.3,508.9z"/>
		<path class="st2" d="M596.9,430.7l-22,67.3c-0.8-0.6-1.7-1.1-2.6-1.5l0,0c-0.9-0.4-1.7-0.8-2.7-1.1c-0.2-0.1-0.3-0.1-0.5-0.2
			c-2.1-0.7-4.2-1-6.3-1.1l21.9-67.3c1.7,1.2,3.7,2.1,5.7,2.8c0.2,0.1,0.3,0.1,0.5,0.2c0.9,0.3,1.9,0.5,2.8,0.7
			C594.9,430.6,595.9,430.7,596.9,430.7z"/>
		<path class="st2" d="M619.2,415c-2.4,7.3-8.1,12.5-14.9,14.7c-2.4,0.8-5,1.1-7.5,1c-1,0-2-0.1-3-0.3c-0.9-0.2-1.9-0.4-2.8-0.7
			c-0.2-0.1-0.3-0.1-0.5-0.2c-2.1-0.7-4-1.6-5.7-2.8c-8.2-5.5-12.1-16-8.8-25.9c2.8-8.6,10.3-14.5,18.8-15.5l-7.6,23.2
			c-0.9,2.8,0.6,5.8,3.4,6.8l8.3,2.7c2.8,0.9,5.8-0.6,6.8-3.4l7.6-23.2c2.1,2,3.8,4.3,5,6.9c1.3,2.7,2,5.6,2.1,8.6l0,0
			C620.5,409.6,620.1,412.3,619.2,415z"/>
		<path class="st2" d="M583.8,523.9c-0.9,2.9-2.4,5.5-4.3,7.7c-1.8,2.1-4,3.9-6.4,5.2c-2.5,1.4-5.2,2.3-8.1,2.6l7.6-23.2
			c0.9-2.8-0.6-5.8-3.4-6.8l-8.3-2.7c-2.8-0.9-5.8,0.6-6.8,3.4l-7.6,23.2c-6.2-5.9-8.8-15-6-23.6c3.2-9.9,12.5-16,22.4-15.7
			c2.1,0.1,4.2,0.4,6.3,1.1c0.2,0.1,0.3,0.1,0.5,0.2c0.9,0.3,1.8,0.7,2.7,1.1l0,0c0.9,0.4,1.7,0.9,2.6,1.5c2.1,1.5,4,3.2,5.5,5.3
			C584.7,509,586.1,516.6,583.8,523.9z"/>
	</g>
	<line class="st10" x1="558.9" y1="448.4" x2="563.3" y2="448.4"/>
	<line class="st10" x1="530.2" y1="620.6" x2="540.5" y2="620.6"/>
	<line class="st10" x1="661.7" y1="458.8" x2="666.8" y2="458.8"/>
	<line class="st10" x1="330.4" y1="471.3" x2="335.6" y2="471.3"/>
	<line class="st10" x1="345.8" y1="506.2" x2="351" y2="506.2"/>
	<line class="st10" x1="344.4" y1="531.7" x2="349.6" y2="531.7"/>
	<line class="st10" x1="344.4" y1="591.7" x2="349.6" y2="591.7"/>
	<line class="st10" x1="530.2" y1="545.9" x2="540.5" y2="545.9"/>
	<g class="st1">
		<path class="st5" d="M540.6,442.4l-6.5-2.1c-2.8-0.9-4.4-3.9-3.4-6.8l7.6-23.2l6.5,2.1l-7.6,23.2
			C536.2,438.4,537.7,441.4,540.6,442.4z"/>
		<path class="st5" d="M533.7,550.9c-2.8,8.6-10.3,14.5-18.8,15.5l-6.5-2.1c2.8-0.4,5.6-1.3,8.1-2.6c2.4-1.3,4.6-3.1,6.4-5.2
			c1.9-2.2,3.3-4.8,4.3-7.7c2.4-7.3,0.9-14.9-3.4-20.6c-1.5-2-3.3-3.8-5.5-5.3l21.9-67.3c2.6,0.1,5.1-0.3,7.5-1
			c6.8-2.1,12.5-7.4,14.9-14.7c0.9-2.7,1.2-5.4,1.1-8.1l0,0c-0.1-3-0.9-6-2.1-8.6c-1.2-2.6-2.9-4.9-5-6.9l6.5,2.1
			c6.2,5.9,8.8,15,6,23.6c-3.2,9.9-12.5,16-22.4,15.7L524.9,525C533,530.6,536.9,541.1,533.7,550.9z"/>
		<path class="st5" d="M510.8,533.8c-2.8-0.9-5.8,0.6-6.8,3.4l-7.6,23.2l-6.5-2.1l7.6-23.2c0.9-2.8,3.9-4.4,6.8-3.4L510.8,533.8z"/>
		<path class="st5" d="M540.3,455.6l-21.9,67.3c-0.8-0.6-1.7-1.1-2.6-1.5l0,0c-0.9-0.4-1.7-0.8-2.7-1.1c-0.2-0.1-0.3-0.1-0.5-0.2
			c-2.1-0.7-4.2-1-6.3-1.1l21.9-67.3c1.7,1.2,3.7,2.1,5.7,2.8c0.2,0.1,0.3,0.1,0.5,0.2c0.9,0.3,1.9,0.5,2.8,0.7
			C538.3,455.5,539.3,455.6,540.3,455.6z"/>
		<path class="st5" d="M562.7,439.9c-2.4,7.3-8.1,12.5-14.9,14.7c-2.4,0.8-5,1.1-7.5,1c-1,0-2-0.1-3-0.3c-0.9-0.2-1.9-0.4-2.8-0.7
			c-0.2-0.1-0.3-0.1-0.5-0.2c-2.1-0.7-4-1.6-5.7-2.8c-8.2-5.5-12.1-16-8.8-25.9c2.8-8.6,10.3-14.5,18.8-15.5l-7.6,23.2
			c-0.9,2.8,0.6,5.8,3.4,6.8l8.3,2.7c2.8,0.9,5.8-0.6,6.8-3.4l7.6-23.2c2.1,2,3.8,4.3,5,6.9c1.3,2.7,2,5.6,2.1,8.6l0,0
			C563.9,434.5,563.5,437.2,562.7,439.9z"/>
		<path class="st5" d="M527.2,548.8c-0.9,2.9-2.4,5.5-4.3,7.7c-1.8,2.1-4,3.9-6.4,5.2c-2.5,1.4-5.2,2.3-8.1,2.6l7.6-23.2
			c0.9-2.8-0.6-5.8-3.4-6.8l-8.3-2.7c-2.8-0.9-5.8,0.6-6.8,3.4l-7.6,23.2c-6.2-5.9-8.8-15-6-23.6c3.2-9.9,12.5-16,22.4-15.7
			c2.1,0.1,4.2,0.4,6.3,1.1c0.2,0.1,0.3,0.1,0.5,0.2c0.9,0.3,1.8,0.7,2.7,1.1l0,0c0.9,0.4,1.7,0.9,2.6,1.5c2.1,1.5,4,3.2,5.5,5.3
			C528.1,533.9,529.6,541.5,527.2,548.8z"/>
	</g>
	<g class="st1">
		<path class="st5" d="M597.1,417.4l-6.5-2.1c-2.8-0.9-4.4-3.9-3.4-6.8l7.6-23.2l6.5,2.1l-7.6,23.2
			C592.8,413.5,594.3,416.5,597.1,417.4z"/>
		<path class="st5" d="M590.3,526c-2.8,8.6-10.3,14.5-18.8,15.5l-6.5-2.1c2.8-0.4,5.6-1.3,8.1-2.6c2.4-1.3,4.6-3.1,6.4-5.2
			c1.9-2.2,3.3-4.8,4.3-7.7c2.4-7.3,0.9-14.9-3.4-20.6c-1.5-2-3.3-3.8-5.5-5.3l21.9-67.3c2.6,0.1,5.1-0.3,7.5-1
			c6.8-2.1,12.5-7.4,14.9-14.7c0.9-2.7,1.2-5.4,1.1-8.1l0,0c-0.1-3-0.9-6-2.1-8.6c-1.2-2.6-2.9-4.9-5-6.9l6.5,2.1
			c6.2,5.9,8.8,15,6,23.6c-3.2,9.9-12.5,16-22.4,15.7l-21.9,67.3C589.6,505.7,593.5,516.1,590.3,526z"/>
		<path class="st5" d="M567.3,508.9c-2.8-0.9-5.8,0.6-6.8,3.4l-7.6,23.2l-6.5-2.1l7.6-23.2c0.9-2.8,3.9-4.4,6.8-3.4L567.3,508.9z"/>
		<path class="st5" d="M596.9,430.7l-22,67.3c-0.8-0.6-1.7-1.1-2.6-1.5l0,0c-0.9-0.4-1.7-0.8-2.7-1.1c-0.2-0.1-0.3-0.1-0.5-0.2
			c-2.1-0.7-4.2-1-6.3-1.1l21.9-67.3c1.7,1.2,3.7,2.1,5.7,2.8c0.2,0.1,0.3,0.1,0.5,0.2c0.9,0.3,1.9,0.5,2.8,0.7
			C594.9,430.6,595.9,430.7,596.9,430.7z"/>
		<path class="st5" d="M619.2,415c-2.4,7.3-8.1,12.5-14.9,14.7c-2.4,0.8-5,1.1-7.5,1c-1,0-2-0.1-3-0.3c-0.9-0.2-1.9-0.4-2.8-0.7
			c-0.2-0.1-0.3-0.1-0.5-0.2c-2.1-0.7-4-1.6-5.7-2.8c-8.2-5.5-12.1-16-8.8-25.9c2.8-8.6,10.3-14.5,18.8-15.5l-7.6,23.2
			c-0.9,2.8,0.6,5.8,3.4,6.8l8.3,2.7c2.8,0.9,5.8-0.6,6.8-3.4l7.6-23.2c2.1,2,3.8,4.3,5,6.9c1.3,2.7,2,5.6,2.1,8.6l0,0
			C620.5,409.6,620.1,412.3,619.2,415z"/>
		<path class="st5" d="M583.8,523.9c-0.9,2.9-2.4,5.5-4.3,7.7c-1.8,2.1-4,3.9-6.4,5.2c-2.5,1.4-5.2,2.3-8.1,2.6l7.6-23.2
			c0.9-2.8-0.6-5.8-3.4-6.8l-8.3-2.7c-2.8-0.9-5.8,0.6-6.8,3.4l-7.6,23.2c-6.2-5.9-8.8-15-6-23.6c3.2-9.9,12.5-16,22.4-15.7
			c2.1,0.1,4.2,0.4,6.3,1.1c0.2,0.1,0.3,0.1,0.5,0.2c0.9,0.3,1.8,0.7,2.7,1.1l0,0c0.9,0.4,1.7,0.9,2.6,1.5c2.1,1.5,4,3.2,5.5,5.3
			C584.7,509,586.1,516.6,583.8,523.9z"/>
	</g>
	<g class="st1">
		<path class="st3" d="M457.3,437.7c5.2,9-4.2,24.2-21.1,34c-16.8,9.8-34.7,10.5-40,1.6c-5.2-9,4.2-24.2,21.1-34
			C434.2,429.4,452.1,428.7,457.3,437.7z"/>
		<path class="st2" d="M463.1,450.7l41.9,71.8c-5.2-9-23.1-8.3-40,1.6c-16.8,9.8-26.3,25-21.1,34L402,486.3c-5.2-9,4.2-24.2,21.1-34
			C440,442.4,457.9,441.7,463.1,450.7z"/>
		<path class="st2" d="M457.3,511.7l-25.1-43.6c16.8-9.8,35-10.5,40.2-1.6l26.3,45.2H457.3"/>
		<path class="st2" d="M428.1,387.7l29.1,50c-5.2-9-23.1-8.3-40,1.6c-16.8,9.8-26.3,25-21.1,34l-29.1-50
			c-5.2-8.9,1.7-28.5,18.5-38.3C402.5,375.1,422.9,378.7,428.1,387.7z"/>
		<polygon class="st3" points="402.4,379.3 477.2,511.7 498.7,511.7 465.9,455.4 461.5,448.5 458.4,446.3 458.7,442.1 457.8,438.7 
			449.1,423.6 436.1,401.4 428.7,388.7 426.1,385.1 422.5,382.5 415.1,379.9 408,379.1 		"/>
		<path class="st9" d="M428.1,387.7l29.1,50c-5.2-9-23.1-8.3-40,1.6c-16.8,9.8-26.3,25-21.1,34l-29.1-50
			c-5.2-8.9,1.7-28.5,18.5-38.3C402.5,375.1,422.9,378.7,428.1,387.7z"/>
		<path class="st9" d="M463.1,450.7l41.9,71.8c-5.2-9-23.1-8.3-40,1.6c-16.8,9.8-26.3,25-21.1,34L402,486.3c-5.2-9,4.2-24.2,21.1-34
			C440,442.4,457.9,441.7,463.1,450.7z"/>
		<path class="st9" d="M370.9,429.7c-5.2-8.9,1.7-28.5,18.5-38.3s37.3-6.2,42.5,2.8"/>
		<path class="st9" d="M401,477.5c-2.1-1-3.7-2.5-4.8-4.3c-5.2-9,4.2-24.2,21.1-34c16.8-9.8,34.7-10.5,40-1.6
			c1.4,2.5,1.8,5.4,1.1,8.6"/>
		<path class="st9" d="M505,522.5c5.2,9-4.2,24.2-21.1,34c-16.8,9.8-34.7,10.5-40,1.6c-5.2-9,4.2-24.2,21.1-34
			C481.9,514.2,499.8,513.5,505,522.5z"/>
		<path class="st9" d="M417.8,513.5c-5.2-9,4.2-24.2,21.1-34"/>
		<line class="st9" x1="385.7" y1="384.9" x2="368.2" y2="355"/>
		<path class="st9" d="M457.3,511.7l-25.1-43.6c16.8-9.8,35-10.5,40.2-1.6l26.3,45.2H457.3"/>
		<circle class="st11" cx="368.2" cy="355" r="11.9"/>
		<circle class="st11" cx="411.3" cy="402.2" r="7.4"/>
		<circle class="st11" cx="433.6" cy="397.6" r="4.6"/>
	</g>
	<line class="st12" x1="330.4" y1="471.3" x2="335.6" y2="471.3"/>
	<line class="st12" x1="345.8" y1="506.2" x2="351" y2="506.2"/>
	<g class="st1">
		<g>
			<rect x="535.4" y="511.7" class="st2" width="108.3" height="128.7"/>
			<rect x="548.3" y="522.3" class="st2" width="20.4" height="36"/>
		</g>
		<line class="st8" x1="539.4" y1="635.5" x2="638.9" y2="635.5"/>
		<line class="st8" x1="638.5" y1="599.5" x2="643.6" y2="599.5"/>
		<line class="st8" x1="638.5" y1="568.9" x2="643.6" y2="568.9"/>
		<rect x="535.4" y="511.7" class="st3" width="108.3" height="128.7"/>
		<line class="st5" x1="539.4" y1="635.5" x2="638.9" y2="635.5"/>
		<line class="st5" x1="638.5" y1="599.5" x2="643.6" y2="599.5"/>
		<line class="st5" x1="638.5" y1="568.9" x2="643.6" y2="568.9"/>
		<g>
			<rect x="535.4" y="511.7" class="st9" width="108.3" height="128.7"/>
			<rect x="548.3" y="522.3" class="st9" width="20.4" height="36"/>
		</g>
	</g>
	<line class="st10" x1="544.9" y1="490.2" x2="550" y2="490.2"/>
	<line class="st10" x1="563.3" y1="448.4" x2="568.4" y2="448.4"/>
	<g class="st1">
		<polygon class="st2" points="635.5,511.7 531,511.7 563.2,438.7 667.6,438.7 		"/>
		<polygon class="st9" points="635.5,511.7 531,511.7 563.2,438.7 667.6,438.7 		"/>
		<line class="st9" x1="558.9" y1="448.4" x2="563.3" y2="448.4"/>
		<line class="st9" x1="540.5" y1="490.2" x2="544.9" y2="490.2"/>
	</g>
	<g class="st1">
		<polygon class="st2" points="643.6,511.7 535.4,511.7 567.6,438.7 675.8,438.7 		"/>
		<g>
			<polygon class="st3" points="567.6,438.7 675.8,438.7 643.6,511.7 535.4,511.7 			"/>
			<line class="st5" x1="661.7" y1="458.8" x2="666.8" y2="458.8"/>
			<line class="st5" x1="544.9" y1="490.2" x2="550" y2="490.2"/>
			<line class="st5" x1="563.3" y1="448.4" x2="568.4" y2="448.4"/>
		</g>
		<polygon class="st9" points="643.6,511.7 535.4,511.7 567.6,438.7 675.8,438.7 		"/>
	</g>
	<rect x="466.9" y="643.2" class="st13" width="1.7" height="8.8"/>
	<rect x="466.9" y="634.4" class="st13" width="1.7" height="8.8"/>
	<circle class="st13" cx="467.7" cy="643.1" r="2.6"/>
	<rect x="482.8" y="639.9" class="st13" width="1.7" height="8.8"/>
	<rect x="482.8" y="631.1" class="st13" width="1.7" height="8.8"/>
	<circle class="st13" cx="483.7" cy="639.9" r="2.6"/>
	
		<rect x="478.4" y="648.7" transform="matrix(0.2759 -0.9612 0.9612 0.2759 -280.746 933.5764)" class="st13" width="1.7" height="8.8"/>
	<rect x="474.4" y="643.2" class="st13" width="1.7" height="8.8"/>
	<circle class="st13" cx="475.3" cy="652" r="2.6"/>
	<rect x="474.4" y="634.4" class="st13" width="1.7" height="8.8"/>
	<circle class="st13" cx="475.3" cy="643.1" r="2.6"/>
	<g class="st1">
		<g>
			<path class="st2" d="M367.9,435.3l-6.7,1.6c-2.9,0.7-5.8-1.1-6.4-4l-5.5-23.8l6.7-1.6l5.5,23.8C362.2,434.2,365,436,367.9,435.3z
				"/>
			<path class="st3" d="M410.3,554.8l-6.7,1.5c2.3-1.8,4.1-4,5.5-6.4s2.3-5,2.8-7.8s0.4-5.8-0.3-8.8c-1.7-7.5-7-13.2-13.5-15.9
				c-2.3-1-4.8-1.5-7.4-1.7l-16.1-68.9c2.3-1.3,4.3-2.9,5.9-4.8c4.7-5.3,6.9-12.8,5.1-20.3c-0.6-2.8-1.8-5.3-3.2-7.5l0,0
				c-1.7-2.5-3.8-4.6-6.3-6.3c-2.4-1.6-5-2.7-7.8-3.3l6.7-1.6c8.3,1.8,15.3,8.2,17.4,17.1c2.3,10.1-2.4,20.2-11,25l16.1,68.9
				c9.9,0.5,18.6,7.5,21,17.6C420.3,540.6,416.9,549.4,410.3,554.8z"/>
			<path class="st2" d="M389.8,529c-2.9,0.7-4.7,3.6-4,6.4l5.5,23.8l-6.7,1.6l-5.5-23.8c-0.7-2.9,1.1-5.8,4-6.4L389.8,529z"/>
			<path class="st2" d="M390.6,515.7c-1,0-2,0-3,0l0,0c-1,0.1-1.9,0.2-2.9,0.4c-0.2,0-0.3,0.1-0.5,0.1c-2.1,0.5-4.1,1.3-6,2.3
				l-16.1-68.9c2.1,0.1,4.2-0.1,6.4-0.6c0.2,0,0.3-0.1,0.5-0.1c1-0.2,1.9-0.5,2.8-0.9s1.8-0.8,2.7-1.3L390.6,515.7z"/>
			<path class="st2" d="M380.5,442c-1.7,1.9-3.7,3.5-5.9,4.8c-0.9,0.5-1.8,0.9-2.7,1.3c-0.9,0.4-1.8,0.7-2.8,0.9
				c-0.2,0-0.3,0.1-0.5,0.1c-2.1,0.5-4.3,0.7-6.4,0.6c-9.9-0.5-18.6-7.5-21-17.6c-2.1-8.8,1.3-17.7,8-23l5.5,23.8
				c0.7,2.9,3.5,4.7,6.4,4l6.7-1.6l1.8-0.4c2.9-0.7,4.7-3.6,4-6.4l-5.5-23.8c2.8,0.6,5.4,1.7,7.8,3.3c2.5,1.6,4.6,3.8,6.3,6.3l0,0
				c1.5,2.2,2.6,4.7,3.2,7.5C387.3,429.2,385.2,436.7,380.5,442z"/>
			<path class="st2" d="M411.9,542.1c-0.4,2.8-1.4,5.4-2.8,7.8c-1.4,2.4-3.3,4.6-5.5,6.4l-5.5-23.8c-0.7-2.9-3.6-4.7-6.4-4l-1.9,0.4
				l-6.6,1.5c-2.9,0.7-4.7,3.5-4,6.4l5.5,23.8c-8.3-1.8-15.3-8.2-17.4-17.1c-2.4-10.1,2.4-20.2,11-25c1.8-1,3.8-1.8,6-2.3
				c0.2,0,0.3-0.1,0.5-0.1c1-0.2,1.9-0.3,2.9-0.4l0,0c1-0.1,2-0.1,3,0c2.6,0.1,5.1,0.7,7.4,1.7c6.6,2.7,11.8,8.4,13.5,15.9
				C412.3,536.3,412.4,539.2,411.9,542.1z"/>
		</g>
		<g>
			<path class="st5" d="M367.9,435.3l-6.7,1.6c-2.9,0.7-5.8-1.1-6.4-4l-5.5-23.8l6.7-1.6l5.5,23.8C362.2,434.2,365,436,367.9,435.3z
				"/>
			<path class="st5" d="M418.3,531.7c2.1,8.9-1.3,17.7-8,23l-6.7,1.6c2.2-1.8,4.1-4,5.5-6.4s2.3-5,2.8-7.8s0.4-5.8-0.3-8.8
				c-1.7-7.5-7-13.2-13.5-15.9c-2.3-1-4.8-1.5-7.4-1.7l-16.1-68.9c2.3-1.3,4.3-2.9,5.9-4.8c4.7-5.3,6.9-12.8,5.1-20.2
				c-0.6-2.8-1.8-5.3-3.2-7.5l0,0c-1.7-2.5-3.8-4.6-6.3-6.3c-2.4-1.6-5-2.7-7.8-3.3l6.7-1.6c8.3,1.8,15.3,8.2,17.4,17.1
				c2.4,10.1-2.4,20.2-11,25l16.1,68.9C407.2,514.7,415.9,521.6,418.3,531.7z"/>
			<path class="st5" d="M389.8,529c-2.9,0.7-4.7,3.6-4,6.4l5.5,23.8l-6.7,1.6l-5.5-23.8c-0.7-2.9,1.1-5.8,4-6.4L389.8,529z"/>
			<path class="st5" d="M374.5,446.8l16.1,68.9c-1-0.1-2,0-3,0l0,0c-1,0.1-1.9,0.2-2.9,0.4c-0.2,0-0.3,0.1-0.5,0.1
				c-2.1,0.5-4.1,1.3-6,2.3l-16.1-68.9c2.1,0.1,4.2-0.1,6.4-0.6c0.2,0,0.3-0.1,0.5-0.1c1-0.2,1.9-0.5,2.8-0.9
				C372.8,447.7,373.7,447.3,374.5,446.8z"/>
			<path class="st5" d="M385.6,421.8c1.7,7.5-0.4,14.9-5.1,20.2c-1.7,1.9-3.7,3.5-5.9,4.8c-0.9,0.5-1.8,0.9-2.7,1.3
				c-0.9,0.4-1.8,0.7-2.8,0.9c-0.2,0-0.3,0.1-0.5,0.1c-2.1,0.5-4.3,0.7-6.4,0.6c-9.9-0.5-18.6-7.5-21-17.6c-2.1-8.9,1.3-17.7,8-23
				l5.5,23.8c0.7,2.9,3.6,4.7,6.4,4l8.5-2c2.9-0.7,4.7-3.6,4-6.4l-5.5-23.8c2.8,0.6,5.5,1.7,7.8,3.3c2.5,1.6,4.6,3.8,6.3,6.3l0,0
				C383.8,416.5,384.9,419,385.6,421.8z"/>
			<path class="st5" d="M411.6,533.3c0.7,3,0.8,5.9,0.3,8.8c-0.4,2.8-1.4,5.4-2.8,7.8c-1.4,2.5-3.3,4.6-5.5,6.4l-5.5-23.8
				c-0.7-2.9-3.6-4.7-6.4-4l-8.5,2c-2.9,0.7-4.7,3.6-4,6.4l5.5,23.8c-8.3-1.8-15.3-8.2-17.4-17.1c-2.4-10.1,2.4-20.2,11-25
				c1.8-1,3.8-1.8,6-2.3c0.2,0,0.3-0.1,0.5-0.1c1-0.2,1.9-0.3,2.9-0.4l0,0c1-0.1,2-0.1,3,0c2.6,0.1,5.1,0.7,7.4,1.7
				C404.6,520.1,409.9,525.8,411.6,533.3z"/>
		</g>
	</g>
	<g class="st1">
		<g>
			<rect x="344.4" y="511.7" class="st2" width="191" height="128.7"/>
			
				<rect x="385.5" y="553.9" transform="matrix(0.7071 -0.7071 0.7071 0.7071 -276.6559 452.6642)" class="st2" width="45.2" height="12.8"/>
			
				<rect x="449.1" y="590.6" transform="matrix(0.7071 -0.7071 0.7071 0.7071 -283.9834 508.4034)" class="st2" width="45.2" height="12.8"/>
		</g>
		<line class="st8" x1="350.2" y1="635.5" x2="529" y2="635.5"/>
		<g>
			<rect x="344.4" y="511.7" class="st9" width="191" height="128.7"/>
			
				<rect x="385.5" y="553.9" transform="matrix(0.7071 -0.7071 0.7071 0.7071 -276.6559 452.6642)" class="st14" width="45.2" height="12.8"/>
			
				<rect x="449.1" y="590.6" transform="matrix(0.7071 -0.7071 0.7071 0.7071 -283.9834 508.4034)" class="st14" width="45.2" height="12.8"/>
		</g>
		<line class="st5" x1="350.2" y1="635.5" x2="529" y2="635.5"/>
		<line class="st5" x1="530.2" y1="620.6" x2="540.5" y2="620.6"/>
		<line class="st5" x1="344.4" y1="531.7" x2="349.6" y2="531.7"/>
		<line class="st5" x1="344.4" y1="591.7" x2="349.6" y2="591.7"/>
		<line class="st5" x1="530.2" y1="545.9" x2="540.5" y2="545.9"/>
	</g>
	<g class="st1">
		<rect x="466.9" y="643.2" class="st4" width="1.7" height="8.8"/>
		<rect x="466.9" y="634.4" class="st11" width="1.7" height="8.8"/>
		<circle class="st11" cx="467.7" cy="643.1" r="2.6"/>
		<rect x="482.8" y="639.9" class="st4" width="1.7" height="8.8"/>
		<rect x="482.8" y="631.1" class="st11" width="1.7" height="8.8"/>
		<circle class="st11" cx="483.7" cy="639.9" r="2.6"/>
		
			<rect x="478.4" y="648.7" transform="matrix(0.2759 -0.9612 0.9612 0.2759 -280.746 933.5764)" class="st15" width="1.7" height="8.8"/>
		<rect x="474.4" y="643.2" class="st11" width="1.7" height="8.8"/>
		<circle class="st11" cx="475.3" cy="652" r="2.6"/>
		<rect x="474.4" y="634.4" class="st11" width="1.7" height="8.8"/>
		<circle class="st11" cx="475.3" cy="643.1" r="2.6"/>
		<path class="st2" d="M480.5,637.3c-5.7,3.3-12.9,1.4-16.2-4.3c-1.5-2.7-2-5.7-1.3-8.5l-46-42.7c-5.4,2.3-11.8,0.3-14.8-5
			c-3.3-5.6-1.4-12.9,4.2-16.2v-57.9c-1.7-1-3.2-2.4-4.2-4.2c-3.3-5.7-1.4-12.9,4.3-16.2c5.7-3.3,12.9-1.4,16.2,4.3
			c3.3,5.6,1.4,12.9-4.2,16.2v57.9c1.7,1,3.1,2.4,4.2,4.2c1.3,2.2,1.8,4.7,1.5,7.1l47,43.7c5.1-1.5,10.8,0.6,13.6,5.4
			C488,626.8,486.1,634,480.5,637.3z"/>
		<path class="st3" d="M418.4,482.4c-4.7,0-6,5.2-6,22.1v66.4l70.9,64.1l2.4-3.6l0.6-4.8l-1.2-4.8l-2.4-3.3l-2-1.6l-3-1.3l-4.1-0.5
			l-2.5,0.5L424.2,572v-3.6l-1.9-4l-3.9-3.8V503l3.5-3l2-4.5l0.4-4.4l-1.7-4.6L418.4,482.4z"/>
		<path class="st9" d="M418.4,502.8v57.9c-3.6-2.1-8.2-2.3-12,0c0,0,0,0-0.1,0v-57.9C409.9,505,414.5,505.1,418.4,502.8
			C418.3,502.9,418.4,502.8,418.4,502.8z"/>
		<path class="st9" d="M418.4,502.8C418.4,502.8,418.3,502.9,418.4,502.8c-3.9,2.3-8.5,2.1-12.1,0c-1.7-1-3.2-2.4-4.2-4.2
			c-3.3-5.7-1.4-12.9,4.3-16.2c5.7-3.3,12.9-1.4,16.2,4.3C425.9,492.3,424,499.5,418.4,502.8z"/>
		<path class="st9" d="M424.2,572.1c-0.3,3.7-2.4,7.1-5.8,9.1c-0.5,0.3-0.9,0.5-1.4,0.7c-5.4,2.3-11.8,0.3-14.8-5
			c-3.3-5.6-1.4-12.9,4.2-16.2c0,0,0,0,0.1,0c3.8-2.2,8.4-2.1,12,0c1.7,1,3.1,2.4,4.2,4.2C423.9,567.2,424.4,569.7,424.2,572.1z"/>
		<path class="st9" d="M480.5,637.3c-5.7,3.3-12.9,1.4-16.2-4.3c-1.5-2.7-2-5.7-1.3-8.5l-46-42.7c0.5-0.2,0.9-0.4,1.4-0.7
			c3.4-2,5.5-5.5,5.8-9.1l47,43.7c5.1-1.5,10.8,0.6,13.6,5.4C488,626.8,486.1,634,480.5,637.3z"/>
	</g>
	<circle class="st16" cx="474.5" cy="627.1" r="11.8"/>
</g>
<g>
	<g>
		<g>
			<g>
				<path class="st2" d="M539.1,479.5l36.2,159.9c2.3,10-10,26.3-28.8,30.5c-18.6,4.2-36.9-5.3-39-15.3l-36.2-159.9
					c-1.3-5.9,2.3-11.6,8.3-13.1l46.6-10.6C532.1,470,537.8,473.6,539.1,479.5z"/>
			</g>
			<g>
				<path class="st2" d="M542.3,473.6L466,490.7c-3.8,0.8-7.8-1.5-8.7-5.5l0,0c-0.8-3.8,1.5-7.8,5.5-8.7l76.3-17.2
					c3.8-0.8,7.8,1.5,8.7,5.5l0,0C548.6,468.9,546.1,472.7,542.3,473.6z"/>
			</g>
			<g>
				
					<rect x="458.8" y="189.5" transform="matrix(0.9754 -0.2204 0.2204 0.9754 -61.3105 111.7065)" class="st2" width="22.2" height="282.1"/>
			</g>
			<g>
				<polygon class="st2" points="442.3,192.3 427.9,145.7 435.1,144 449.5,190.6 				"/>
			</g>
			<g>
				<polygon class="st2" points="427.9,195.5 420.9,147.2 435.1,144 442.3,192.3 				"/>
			</g>
		</g>
		<g>
			<polygon class="st3" points="551.6,534.6 520.5,534.6 508.4,482.1 537.2,475.3 539.1,479.5 			"/>
		</g>
		<g>
			<polygon class="st3" points="435.1,144 442.3,192.3 505,467.2 511.8,465.8 449.5,190.6 			"/>
		</g>
		<g>
			<path class="st2" d="M542.3,473.6L466,490.7c-3.8,0.8-7.8-1.5-8.7-5.5l0,0c-0.8-3.8,1.5-7.8,5.5-8.7l76.3-17.2
				c3.8-0.8,7.8,1.5,8.7,5.5l0,0C548.6,468.9,546.1,472.7,542.3,473.6z"/>
			<path d="M464.5,492c-1.6,0-3.2-0.5-4.6-1.3c-1.9-1.2-3.1-3-3.6-5.2c-0.5-2.2-0.1-4.5,1.1-6.4c1.2-1.9,3-3.1,5.2-3.6l76.2-17.2
				c2.2-0.5,4.5-0.1,6.4,1.1c1.9,1.2,3.1,3,3.6,5.2c0.9,4.5-1.9,9-6.3,9.9l-76.2,17.2C465.7,491.9,465.1,492,464.5,492z
				 M540.7,460.3c-0.4,0-0.9,0-1.3,0.1l-76.2,17.2c-1.6,0.3-3,1.3-3.8,2.6c-0.9,1.4-1.2,3.1-0.9,4.8c0.3,1.6,1.3,3,2.6,3.8
				c1.4,0.9,3.1,1.2,4.8,0.9l76.2-17.2c0,0,0,0,0,0c3.3-0.7,5.4-4.1,4.7-7.4c-0.3-1.6-1.3-2.9-2.6-3.8
				C543.1,460.6,541.9,460.3,540.7,460.3z"/>
		</g>
		<g>
			<polygon class="st3" points="508.4,482.1 505,467.2 539.1,459.6 544.4,460.5 547.8,465.1 546.5,471 541.2,474 			"/>
		</g>
		<g>
			<path d="M537.3,672c-7.9,0-15.7-2.1-21.9-6c-4.9-3.2-8.1-7.1-9-11.1l-37.3-164.8c-0.1-0.6,0.2-1.1,0.8-1.3
				c0.6-0.1,1.1,0.2,1.3,0.8l37.3,164.8c0.7,3.5,3.6,6.9,8,9.8c6.4,4.1,17.5,7.5,29.7,4.7c12.3-2.8,20.9-10.6,24.9-17
				c2.8-4.5,3.9-8.8,3.1-12.3L537,474.9c-0.1-0.6,0.2-1.1,0.8-1.3c0.6-0.1,1.1,0.2,1.3,0.8l37.3,164.8c0.9,4-0.3,8.9-3.4,13.9
				c-5.5,8.7-15.3,15.4-26.3,17.9C543.7,671.7,540.5,672,537.3,672z"/>
		</g>
		<g>
			<path d="M464.5,492c-1.6,0-3.2-0.5-4.6-1.3c-1.9-1.2-3.1-3-3.6-5.2c-0.5-2.2-0.1-4.5,1.1-6.4c1.2-1.9,3-3.1,5.2-3.6l76.2-17.2
				c2.2-0.5,4.5-0.1,6.4,1.1c1.9,1.2,3.1,3,3.6,5.2c0.9,4.5-1.9,9-6.3,9.9l-76.2,17.2C465.7,491.9,465.1,492,464.5,492z
				 M540.7,460.3c-0.4,0-0.9,0-1.3,0.1l-76.2,17.2c-1.6,0.3-3,1.3-3.8,2.6c-0.9,1.4-1.2,3.1-0.9,4.8c0.3,1.6,1.3,3,2.6,3.8
				c1.4,0.9,3.1,1.2,4.8,0.9l76.2-17.2c0,0,0,0,0,0c3.3-0.7,5.4-4.1,4.7-7.4c-0.3-1.6-1.3-2.9-2.6-3.8
				C543.1,460.6,541.9,460.3,540.7,460.3z"/>
		</g>
		<g>
			<path d="M490.2,471.7c-0.2,0-0.4-0.1-0.6-0.2c-0.2-0.1-0.4-0.4-0.5-0.7L427,195.7c-0.1-0.6,0.2-1.1,0.8-1.3l21.7-4.9
				c0.3-0.1,0.6,0,0.8,0.1c0.2,0.1,0.4,0.4,0.5,0.7l62.2,275.2c0.1,0.6-0.2,1.1-0.8,1.3l-21.7,4.9
				C490.3,471.7,490.3,471.7,490.2,471.7z M429.3,196.3L491,469.4l19.6-4.4l-61.7-273.1L429.3,196.3z"/>
		</g>
		<g>
			<path d="M442.3,193.4c-0.5,0-0.9-0.3-1-0.7L426.9,146c-0.1-0.3-0.1-0.6,0.1-0.8c0.1-0.3,0.4-0.4,0.7-0.5l7.2-1.7
				c0.5-0.1,1.1,0.2,1.3,0.7l14.4,46.6c0.1,0.3,0.1,0.6-0.1,0.8c-0.1,0.3-0.4,0.4-0.7,0.5l-7.2,1.7
				C442.5,193.4,442.4,193.4,442.3,193.4z M429.3,146.5l13.8,44.6l5.1-1.2l-13.8-44.6L429.3,146.5z"/>
		</g>
		<g>
			<polygon class="st2" points="427.9,195.5 420.9,147.2 435.1,144 442.3,192.3 			"/>
			<path d="M427.9,196.5c-0.2,0-0.4-0.1-0.6-0.2c-0.2-0.2-0.4-0.4-0.4-0.7l-7-48.3c-0.1-0.5,0.3-1.1,0.8-1.2l14.2-3.2
				c0.3-0.1,0.6,0,0.8,0.2c0.2,0.2,0.4,0.4,0.4,0.7l7.2,48.3c0.1,0.6-0.3,1.1-0.8,1.2l-14.4,3.2C428.1,196.5,428,196.5,427.9,196.5z
				 M422.1,148l6.7,46.2l12.3-2.7l-6.9-46.2L422.1,148z"/>
		</g>
	</g>
	<g>
		<g>
			<g>
				<path class="st2" d="M454.8,570.8l-41.9,158.4c-2.5,10-21,18.6-39.6,13.8c-18.6-4.9-30.3-21.6-27.5-31.6L387.7,553
					c1.5-5.9,7.4-9.3,13.3-7.8l46.2,12.3C452.9,558.9,456.3,564.9,454.8,570.8z"/>
			</g>
			<g>
				<path class="st2" d="M460.3,567l-75.6-19.9c-3.8-1.1-6.1-5.1-5.1-8.9l0,0c1.1-3.8,5.1-6.1,8.9-5.1l75.6,19.9
					c3.8,1.1,6.1,5.1,5.1,8.9l0,0C468.2,565.7,464.1,568.1,460.3,567z"/>
			</g>
			<g>
				
					<rect x="321.5" y="395.5" transform="matrix(0.256 -0.9667 0.9667 0.256 -48.9543 749.676)" class="st2" width="282.1" height="22.2"/>
			</g>
			<g>
				<polygon class="st2" points="501.8,271.3 510.7,223.2 517.9,225.1 509,273.2 				"/>
			</g>
			<g>
				<polygon class="st2" points="487.6,267.5 503.7,221.5 517.9,225.1 501.8,271.3 				"/>
			</g>
		</g>
		<g>
			<polygon class="st3" points="517.5,227.5 509,273.2 459.9,459 454.6,449.7 501.8,271.3 			"/>
		</g>
		<g>
			<g>
				<path d="M384.1,745.4c-3.7,0-7.5-0.5-11.1-1.4c-10.8-2.8-20.3-9.8-25.5-18.7c-2.9-5.1-3.9-10.1-2.8-14.1l41.9-158.4
					c0.8-3.1,2.7-5.7,5.5-7.3c2.7-1.6,6-2,9.1-1.3l46.2,12.3c6.2,1.6,10,8.2,8.4,14.6c0,0,0,0,0,0l-41.9,158.4
					c-1,4-4.3,7.8-9.3,10.7C398.8,743.6,391.5,745.4,384.1,745.4z M398.2,545.9c-1.8,0-3.5,0.5-5,1.3c-2.3,1.3-3.9,3.5-4.5,6
					l-41.9,158.4c-1,3.5,0,7.9,2.6,12.5c4.8,8.3,14,15.1,24.2,17.8c12.2,3.2,23.5,0.2,30-3.6c4.5-2.7,7.5-6,8.3-9.4l41.9-158.4
					c1.3-5.3-1.8-10.7-6.9-12.1l-46.2-12.3C399.9,546,399.1,545.9,398.2,545.9z M454.8,570.8L454.8,570.8L454.8,570.8z"/>
			</g>
			<g>
				<path d="M462.2,568.3c-0.7,0-1.5-0.1-2.2-0.3l-75.6-19.9c-2.1-0.6-3.9-2-5-3.9c-1.1-1.9-1.4-4.2-0.8-6.3c0.6-2.1,2-3.9,3.9-5
					c1.9-1.1,4.2-1.4,6.3-0.8l75.6,19.9c2.1,0.6,3.9,2,5,3.9c1.1,1.9,1.4,4.2,0.8,6.3c-0.6,2.1-2,3.9-3.9,5
					C465,567.9,463.6,568.3,462.2,568.3z M386.6,533.9c-1.1,0-2.1,0.3-3.1,0.8c-1.4,0.8-2.5,2.2-2.9,3.7c-0.4,1.6-0.2,3.2,0.6,4.7
					c0.8,1.4,2.2,2.5,3.7,2.9l75.6,19.9c0,0,0,0,0,0c1.6,0.4,3.2,0.2,4.7-0.6c1.4-0.8,2.5-2.2,2.9-3.7c0.4-1.6,0.2-3.2-0.6-4.7
					c-0.8-1.4-2.2-2.5-3.7-2.9l-75.6-19.9C387.7,534,387.2,533.9,386.6,533.9z"/>
			</g>
			<g>
				<path d="M437.2,546.9c-0.1,0-0.2,0-0.3,0l-21.5-5.7c-0.6-0.1-0.9-0.7-0.8-1.3l72.2-272.7c0.1-0.3,0.2-0.5,0.5-0.6
					c0.2-0.1,0.5-0.2,0.8-0.1l21.5,5.7c0.6,0.1,0.9,0.7,0.8,1.3l-72.2,272.7c-0.1,0.3-0.2,0.5-0.5,0.6
					C437.6,546.9,437.4,546.9,437.2,546.9z M417,539.4l19.5,5.2l71.7-270.7l-19.5-5.2L417,539.4z"/>
			</g>
			<g>
				<path d="M509,274.3c-0.1,0-0.2,0-0.3,0l-7.2-1.9c-0.5-0.1-0.9-0.7-0.8-1.2l8.9-48.1c0.1-0.3,0.2-0.5,0.5-0.7
					c0.3-0.2,0.6-0.2,0.8-0.1l7.2,1.9c0.5,0.1,0.9,0.7,0.8,1.2l-8.9,48.1c-0.1,0.3-0.2,0.5-0.5,0.7
					C509.4,274.2,509.2,274.3,509,274.3z M503.1,270.5l5.1,1.4l8.5-46l-5.1-1.4L503.1,270.5z"/>
			</g>
			<g>
				<polygon class="st2" points="487.6,267.5 503.7,221.5 517.9,225.1 501.8,271.3 				"/>
				<path d="M501.8,272.4c-0.1,0-0.2,0-0.3,0l-14.2-3.8c-0.3-0.1-0.5-0.3-0.7-0.5s-0.2-0.6-0.1-0.8l16.1-46c0.2-0.5,0.7-0.8,1.3-0.7
					l14.2,3.6c0.3,0.1,0.5,0.3,0.7,0.5c0.1,0.3,0.2,0.6,0.1,0.9l-16.1,46.2C502.7,272.1,502.3,272.4,501.8,272.4z M489,266.8
					l12.1,3.3l15.4-44.2l-12.1-3.1L489,266.8z"/>
			</g>
		</g>
	</g>
	<g>
		<g>
			<g>
				<polygon class="st2" points="177.1,534.6 406.5,534.6 338.3,380 108.9,380 				"/>
			</g>
			<g>
				<polygon class="st2" points="185.2,534.6 406.5,534.6 338.3,380 117.2,380 				"/>
			</g>
			<g>
				<line class="st8" x1="172.1" y1="522.9" x2="180.1" y2="522.9"/>
			</g>
			<g>
				<line class="st8" x1="139.4" y1="449" x2="147.5" y2="449"/>
			</g>
			<g>
				<line class="st8" x1="119.9" y1="404.5" x2="128" y2="404.5"/>
			</g>
		</g>
		<g>
			<g>
				<polygon class="st2" points="219.5,534.6 448.7,534.6 380.7,380 151.3,380 				"/>
			</g>
			<g>
				<polygon class="st3" points="227.5,534.6 354.8,534.6 290.7,380 159.3,380 				"/>
			</g>
			<g>
				<line class="st8" x1="214.4" y1="522.9" x2="222.5" y2="522.9"/>
			</g>
			<g>
				<line class="st8" x1="181.8" y1="449" x2="189.8" y2="449"/>
			</g>
			<g>
				<line class="st8" x1="162.1" y1="404.5" x2="170.4" y2="404.5"/>
			</g>
		</g>
		<g>
			<line class="st8" x1="128" y1="404.5" x2="138.8" y2="404.5"/>
		</g>
		<g>
			<g>
				<path d="M408.1,535.7H176.4l-0.3-0.6l-68.9-156.1H339l0.3,0.6L408.1,535.7z M177.8,533.5h227.1L337.6,381H110.6L177.8,533.5z"/>
			</g>
			<g>
				<path d="M408.1,535.7H184.5l-68.9-156.7H339l0.3,0.6L408.1,535.7z M185.9,533.5h219L337.6,381H118.8L185.9,533.5z"/>
			</g>
			<g>
				<rect x="172.1" y="521.9" width="8" height="2.1"/>
			</g>
			<g>
				<rect x="139.4" y="448" width="8" height="2.1"/>
			</g>
			<g>
				<rect x="119.9" y="403.5" width="8" height="2.1"/>
			</g>
		</g>
		<g>
			<path d="M138.8,405.6H128c-0.6,0-1.1-0.5-1.1-1.1s0.5-1.1,1.1-1.1h10.8c0.6,0,1.1,0.5,1.1,1.1S139.4,405.6,138.8,405.6z"/>
		</g>
	</g>
	<g>
		<g>
			<path class="st2" d="M592.7,387.8l-13.8-4.4c-5.9-1.9-9.3-8.3-7.2-14.4l16.1-49.1l13.8,4.4l-16.1,49.1
				C583.4,379.3,586.6,385.7,592.7,387.8z"/>
		</g>
		<g>
			<path class="st3" d="M653.3,387c-6.8,21-26.5,33.9-47.4,33.3l-46.4,142.5c17.4,11.6,25.6,33.9,18.9,54.9
				c-5.9,18.4-21.8,30.7-39.8,32.8l-13.8-4.4c6.1-0.8,11.9-2.8,17.2-5.5c5.1-2.8,9.7-6.6,13.6-11c4-4.7,7-10.2,9.1-16.3
				c5.1-15.5,1.9-31.6-7.2-43.6c-3.2-4.2-7.2-8-11.6-11.2l46.4-142.5c5.5,0.2,10.8-0.6,15.9-2.1c14.4-4.4,26.5-15.7,31.6-31.1
				c1.9-5.7,2.5-11.4,2.3-17.2c-0.2-6.4-1.9-12.7-4.7-18.4c-2.5-5.5-6.1-10.4-10.6-14.6l13.8,4.4C653.7,349.5,659.2,368.7,653.3,387
				z"/>
		</g>
		<g>
			<path class="st2" d="M529.6,581.4c-5.9-1.9-12.3,1.3-14.4,7.2l-16.1,49.1l-13.8-4.4l16.1-49.1c1.9-5.9,8.3-9.3,14.4-7.2
				L529.6,581.4z"/>
		</g>
		<g>
			<path class="st2" d="M592.1,415.8l-46.4,142.5c-1.7-1.3-3.6-2.3-5.5-3.2l0,0c-1.9-0.8-3.6-1.7-5.7-2.3c-0.4-0.2-0.6-0.2-1.1-0.4
				c-4.4-1.5-8.9-2.1-13.3-2.3l46.4-142.5c3.6,2.5,7.8,4.4,12.1,5.9c0.4,0.2,0.6,0.2,1.1,0.4c1.9,0.6,4,1.1,5.9,1.5
				C587.8,415.6,589.9,415.8,592.1,415.8z"/>
		</g>
		<g>
			<path class="st2" d="M639.5,382.5c-5.1,15.5-17.2,26.5-31.6,31.1c-5.1,1.7-10.6,2.3-15.9,2.1c-2.1,0-4.2-0.2-6.4-0.6
				c-1.9-0.4-4-0.8-5.9-1.5c-0.4-0.2-0.6-0.2-1.1-0.4c-4.4-1.5-8.5-3.4-12.1-5.9c-17.4-11.6-25.6-33.9-18.6-54.9
				c5.9-18.2,21.8-30.7,39.8-32.8l-16.1,49.1c-1.9,5.9,1.3,12.3,7.2,14.4l17.6,5.7c5.9,1.9,12.3-1.3,14.4-7.2l16.1-49.1
				c4.4,4.2,8,9.1,10.6,14.6c2.8,5.7,4.2,11.9,4.4,18.2l0,0C642.1,371.1,641.2,376.8,639.5,382.5z"/>
		</g>
		<g>
			<path class="st2" d="M564.3,613.2c-1.9,6.1-5.1,11.6-9.1,16.3c-3.8,4.4-8.5,8.3-13.6,11c-5.3,3-11,4.9-17.2,5.5l16.1-49.1
				c1.9-5.9-1.3-12.3-7.2-14.4l-17.6-5.7c-5.9-1.9-12.3,1.3-14.4,7.2l-16.1,49.1c-13.1-12.5-18.6-31.8-12.7-50
				c6.8-21,26.5-33.9,47.4-33.3c4.4,0.2,8.9,0.8,13.3,2.3c0.4,0.2,0.6,0.2,1.1,0.4c1.9,0.6,3.8,1.5,5.7,2.3l0,0
				c1.9,0.8,3.6,1.9,5.5,3.2c4.4,3.2,8.5,6.8,11.6,11.2C566.2,581.6,569.4,597.7,564.3,613.2z"/>
		</g>
	</g>
	<g>
		<g>
			<path class="st2" d="M712.4,334.9l-13.8-4.4c-5.9-1.9-9.3-8.3-7.2-14.4l16.1-49.1l13.8,4.4l-16.1,49.1
				C703.3,326.6,706.4,333,712.4,334.9z"/>
		</g>
		<g>
			<path class="st3" d="M698,564.9c-5.9,18.2-21.8,30.7-39.8,32.8l-13.8-4.4c5.9-0.8,11.9-2.8,17.2-5.5c5.1-2.8,9.7-6.6,13.6-11
				c4-4.7,7-10.2,9.1-16.3c5.1-15.5,1.9-31.6-7.2-43.6c-3.2-4.2-7-8-11.6-11.2L711.7,363c5.5,0.2,10.8-0.6,15.9-2.1
				c14.4-4.4,26.5-15.7,31.6-31.1c1.9-5.7,2.5-11.4,2.3-17.2l0,0c-0.2-6.4-1.9-12.7-4.4-18.2c-2.5-5.5-6.1-10.4-10.6-14.6l13.8,4.4
				c13.1,12.5,18.6,31.8,12.7,50c-6.8,21-26.5,33.9-47.4,33.3L679.1,510C696.5,521.9,704.7,543.9,698,564.9z"/>
		</g>
		<g>
			<path class="st2" d="M649.3,528.7c-5.9-1.9-12.3,1.3-14.4,7.2L618.8,585l-13.8-4.4l16.1-49.1c1.9-5.9,8.3-9.3,14.4-7.2
				L649.3,528.7z"/>
		</g>
		<g>
			<path class="st2" d="M711.9,363l-46.6,142.5c-1.7-1.3-3.6-2.3-5.5-3.2l0,0c-1.9-0.8-3.6-1.7-5.7-2.3c-0.4-0.2-0.6-0.2-1.1-0.4
				c-4.4-1.5-8.9-2.1-13.3-2.3l46.4-142.5c3.6,2.5,7.8,4.4,12.1,5.9c0.4,0.2,0.6,0.2,1.1,0.4c1.9,0.6,4,1.1,5.9,1.5
				C707.7,362.8,709.8,363,711.9,363z"/>
		</g>
		<g>
			<path class="st2" d="M759.2,329.8c-5.1,15.5-17.2,26.5-31.6,31.1c-5.1,1.7-10.6,2.3-15.9,2.1c-2.1,0-4.2-0.2-6.4-0.6
				c-1.9-0.4-4-0.8-5.9-1.5c-0.4-0.2-0.6-0.2-1.1-0.4c-4.4-1.5-8.5-3.4-12.1-5.9c-17.4-11.6-25.6-33.9-18.6-54.9
				c5.9-18.2,21.8-30.7,39.8-32.8L691.4,316c-1.9,5.9,1.3,12.3,7.2,14.4l17.6,5.7c5.9,1.9,12.3-1.3,14.4-7.2l16.1-49.1
				c4.4,4.2,8,9.1,10.6,14.6c2.8,5.7,4.2,11.9,4.4,18.2l0,0C761.9,318.3,761.1,324.1,759.2,329.8z"/>
		</g>
		<g>
			<path class="st2" d="M684.2,560.4c-1.9,6.1-5.1,11.6-9.1,16.3c-3.8,4.4-8.5,8.3-13.6,11c-5.3,3-11,4.9-17.2,5.5l16.1-49.1
				c1.9-5.9-1.3-12.3-7.2-14.4l-17.6-5.7c-5.9-1.9-12.3,1.3-14.4,7.2l-16.1,49.1c-13.1-12.5-18.6-31.8-12.7-50
				c6.8-21,26.5-33.9,47.4-33.3c4.4,0.2,8.9,0.8,13.3,2.3c0.4,0.2,0.6,0.2,1.1,0.4c1.9,0.6,3.8,1.5,5.7,2.3l0,0
				c1.9,0.8,3.6,1.9,5.5,3.2c4.4,3.2,8.5,6.8,11.6,11.2C686.1,528.9,689.1,545,684.2,560.4z"/>
		</g>
	</g>
	<g>
		<line class="st8" x1="631.5" y1="400.5" x2="640.8" y2="400.5"/>
	</g>
	<g>
		<line class="st8" x1="570.7" y1="765.2" x2="592.5" y2="765.2"/>
	</g>
	<g>
		<line class="st8" x1="849.2" y1="422.5" x2="860" y2="422.5"/>
	</g>
	<g>
		<line class="st8" x1="147.5" y1="449" x2="158.5" y2="449"/>
	</g>
	<g>
		<line class="st8" x1="180.1" y1="522.9" x2="191.1" y2="522.9"/>
	</g>
	<g>
		<line class="st8" x1="177.1" y1="577" x2="188.2" y2="577"/>
	</g>
	<g>
		<line class="st8" x1="177.1" y1="704" x2="188.2" y2="704"/>
	</g>
	<g>
		<line class="st8" x1="570.7" y1="607" x2="592.5" y2="607"/>
	</g>
	<g>
		<g>
			<path d="M592.7,388.9c-0.1,0-0.2,0-0.3-0.1l-13.8-4.4c-3.2-1-5.8-3.2-7.3-6.2c-1.5-3-1.7-6.3-0.6-9.5l16.1-49.1
				c0.2-0.6,0.8-0.9,1.3-0.7l13.8,4.4c0.3,0.1,0.5,0.3,0.6,0.5c0.1,0.3,0.2,0.5,0.1,0.8l-16.1,49.1c-0.9,2.6-0.8,5.3,0.4,7.7
				c1.2,2.5,3.4,4.4,6.2,5.4c0.5,0.2,0.8,0.8,0.7,1.3C593.6,388.6,593.1,388.9,592.7,388.9z M588.5,321.2l-15.8,48.1
				c-0.9,2.7-0.7,5.5,0.5,7.9c1.2,2.5,3.4,4.3,6,5.2l7.2,2.3c-0.6-0.7-1.1-1.5-1.5-2.3c-1.4-2.9-1.6-6.2-0.5-9.3l15.8-48.1
				L588.5,321.2z"/>
		</g>
		<g>
			<path d="M538.3,651.5c-0.1,0-0.2,0-0.3-0.1l-13.8-4.4c-0.5-0.2-0.8-0.6-0.7-1.1c0-0.5,0.4-0.9,0.9-1c5.8-0.8,11.6-2.7,16.8-5.4
				c4.9-2.6,9.5-6.4,13.2-10.8c3.8-4.4,6.8-9.7,8.9-16c4.8-14.5,2.1-30.5-7-42.6c-3.3-4.4-7-8-11.4-11c-0.4-0.3-0.6-0.8-0.4-1.2
				l46.4-142.5c0.1-0.4,0.5-0.8,1-0.7c5,0.2,10.1-0.5,15.5-2.1c14.5-4.5,26.1-15.9,30.8-30.5c1.8-5.3,2.5-10.8,2.3-16.8
				c-0.2-5.9-1.7-12.1-4.4-17.8c-2.4-5.2-5.9-10-10.4-14.3c-0.4-0.3-0.4-0.9-0.2-1.3c0.3-0.4,0.8-0.6,1.2-0.5l13.8,4.4
				c0.2,0,0.3,0.1,0.4,0.2c13.7,13.1,18.8,33.1,13,51.1c-6.6,20.5-25.4,34-46.9,34c-0.3,0-0.5,0-0.8,0l-45.7,141.1
				c17.5,12.5,25,35.3,18.4,55.6l0,0c-5.9,18.2-21.9,31.3-40.7,33.6C538.4,651.5,538.3,651.5,538.3,651.5z M528.8,646.3l9.6,3.1
				c17.9-2.2,33.1-14.8,38.7-32.1c0,0,0,0,0,0c6.4-19.7-1.1-41.8-18.2-53.7c-0.4-0.3-0.6-0.8-0.4-1.2l46.2-142.5
				c0.1-0.4,0.6-0.7,1-0.7c21.4,0.7,39.9-12.4,46.4-32.5c5.6-17.1,0.8-36.2-12.3-48.7l-9.5-3.1c3.2,3.6,5.9,7.6,7.8,11.9
				c2.8,6,4.3,12.4,4.5,18.6c0.2,6.3-0.5,12-2.4,17.5c-5,15.2-17.1,27.1-32.3,31.8c-5.4,1.6-10.5,2.3-15.4,2.2l-45.9,141
				c4.2,3,8,6.7,11.2,11c9.6,12.7,12.4,29.4,7.4,44.6c-2.2,6.5-5.4,12.1-9.3,16.7c-3.9,4.6-8.7,8.5-13.9,11.3
				C538,643.6,533.4,645.2,528.8,646.3z"/>
		</g>
		<g>
			<path d="M499.1,638.8c-0.1,0-0.2,0-0.3-0.1l-13.8-4.4c-0.3-0.1-0.5-0.3-0.6-0.5c-0.1-0.3-0.1-0.5-0.1-0.8l16.1-49.1
				c1-3.2,3.2-5.8,6.2-7.3c3-1.5,6.3-1.7,9.5-0.6l13.7,4.4c0,0,0,0,0,0l0,0c0.6,0.2,0.9,0.8,0.7,1.3c-0.2,0.6-0.8,0.9-1.3,0.7l0,0h0
				c-5.4-1.7-11.1,1.1-13.1,6.6l-16.1,49.1C499.9,638.5,499.5,638.8,499.1,638.8z M486.7,632.6l11.8,3.8l15.8-48.1
				c1.4-4.1,4.7-6.9,8.5-8l-7.1-2.3c-2.7-0.9-5.5-0.7-7.9,0.5c-2.5,1.2-4.3,3.4-5.2,6L486.7,632.6z"/>
		</g>
		<g>
			<path d="M545.7,559.4c-0.2,0-0.4-0.1-0.6-0.2c-1.5-1.1-3.3-2.2-5.3-3.1l-1.1-0.5c-1.5-0.7-2.9-1.3-4.5-1.8
				c-0.3-0.1-0.4-0.2-0.6-0.2c-0.2-0.1-0.4-0.1-0.7-0.3c-3.8-1.2-8-2-12.9-2.2c-0.3,0-0.6-0.2-0.8-0.5c-0.2-0.3-0.2-0.6-0.1-0.9
				l46.4-142.5c0.1-0.3,0.4-0.6,0.7-0.7c0.3-0.1,0.7-0.1,0.9,0.1c3.1,2.2,7,4.1,11.8,5.8c0.3,0.1,0.4,0.2,0.5,0.2
				c0.2,0.1,0.4,0.1,0.7,0.3c1.4,0.5,3.2,0.8,4.8,1.2l1.3,0.2c2.1,0.2,4,0.4,5.9,0.4c0.3,0,0.7,0.2,0.9,0.4c0.2,0.3,0.3,0.6,0.2,1
				l-46.4,142.5c-0.1,0.3-0.4,0.6-0.7,0.7C545.9,559.4,545.8,559.4,545.7,559.4z M521.5,549.1c4.5,0.3,8.5,1.1,12.2,2.3
				c0.3,0.1,0.4,0.2,0.5,0.2c0.2,0.1,0.4,0.1,0.7,0.3c1.6,0.5,3.1,1.1,4.6,1.8l1.1,0.5c1.6,0.7,3.2,1.5,4.5,2.5l45.5-139.8
				c-1.5-0.1-3-0.2-4.6-0.3l-0.6-0.1l-1-0.2c-1.7-0.4-3.5-0.8-5.2-1.3c-0.3-0.1-0.4-0.2-0.5-0.2c-0.2-0.1-0.4-0.1-0.7-0.3
				c-4.3-1.5-8-3.2-11-5.2L521.5,549.1z"/>
		</g>
		<g>
			<path d="M594,416.9c-0.7,0-1.3,0-2,0c0,0,0,0,0,0c-2.1,0-4.3-0.2-6.5-0.7l-0.9-0.2c-1.7-0.4-3.5-0.8-5.2-1.3
				c-0.3-0.1-0.4-0.2-0.5-0.2c-0.2-0.1-0.4-0.1-0.7-0.3c-4.6-1.5-8.7-3.5-12.2-6c-18.1-12.2-26-35.2-19-56.1
				c5.9-18.2,21.9-31.3,40.7-33.5c0.4,0,0.7,0.1,0.9,0.4s0.3,0.7,0.2,1l-16.1,49.1c-1.7,5.4,1.1,11.1,6.5,13.1l17.6,5.7
				c5.4,1.7,11.1-1.1,13.1-6.5l16.1-49.1c0.1-0.3,0.4-0.6,0.7-0.7c0.3-0.1,0.7,0,1,0.3c4.6,4.4,8.3,9.5,10.8,14.9
				c2.8,5.8,4.3,12.1,4.5,18.6c0,5.8-0.9,11.7-2.6,17.5c0,0,0,0,0,0c-5,15.2-16.8,26.8-32.2,31.8C603.9,416.1,599,416.9,594,416.9z
				 M586.3,320.9c-17.3,2.7-31.8,15-37.3,31.9c-6.6,19.9,0.8,42,18.2,53.7c3.4,2.4,7.2,4.3,11.8,5.8c0.3,0.1,0.4,0.2,0.5,0.2
				c0.2,0.1,0.4,0.1,0.7,0.3c1.4,0.5,3.1,0.8,4.8,1.2l0.9,0.2c2,0.4,4.1,0.6,6.1,0.6c5.5,0.2,10.8-0.5,15.6-2.1
				c14.8-4.8,26.1-15.9,30.9-30.4c1.7-5.6,2.5-11.3,2.5-16.8c-0.2-6.2-1.7-12.2-4.3-17.8c-2.2-4.8-5.3-9.2-9.2-13.1L611.9,382
				c-2.3,6.5-9.2,10-15.7,7.9l-17.6-5.7c-6.5-2.3-10-9.2-7.9-15.7L586.3,320.9z M639.5,382.5L639.5,382.5L639.5,382.5z"/>
		</g>
		<g>
			<path d="M524.5,647.1c-0.3,0-0.6-0.1-0.8-0.4c-0.2-0.3-0.3-0.7-0.2-1l16.1-49.1c1.7-5.4-1.1-11.1-6.6-13.1l-17.6-5.7
				c-5.4-1.7-11.1,1.1-13.1,6.6l-16.1,49.1c-0.1,0.3-0.4,0.6-0.7,0.7c-0.4,0.1-0.7,0-1-0.3c-13.7-13.1-18.8-33.1-13-51.1
				c6.8-21,26.2-34.6,48.5-34c5.1,0.2,9.6,1,13.6,2.4c0.3,0.1,0.4,0.2,0.5,0.2c0.2,0.1,0.4,0.1,0.7,0.3c1.8,0.6,3.8,1.5,5.6,2.3
				c1.9,0.9,3.6,1.9,5.7,3.3c5.1,3.7,9,7.4,11.9,11.5c9.5,13.2,12.2,29.5,7.1,44.8c-1.9,6.1-5,11.7-9.3,16.7
				c-3.9,4.6-8.7,8.5-13.9,11.3c-5.5,3.1-11.5,5-17.6,5.6C524.6,647.1,524.5,647.1,524.5,647.1z M512.3,575.1c1.3,0,2.6,0.2,3.9,0.6
				l17.6,5.7c6.5,2.3,10,9.2,7.9,15.7L526,644.7c5.2-0.7,10.3-2.5,15.1-5.2c4.9-2.7,9.5-6.4,13.3-10.8c4.1-4.7,7.1-10.1,8.9-15.9
				c0,0,0,0,0,0c4.8-14.6,2.3-30.3-6.8-42.9c-2.8-3.9-6.5-7.5-11.4-11c-2-1.3-3.5-2.3-5.3-3.1c-1.9-0.8-3.8-1.7-5.6-2.3
				c-0.3-0.1-0.4-0.2-0.5-0.2c-0.2-0.1-0.4-0.1-0.7-0.3c-3.8-1.2-8-2-12.9-2.2c-21.3-0.6-39.9,12.4-46.4,32.5
				c-5.4,16.7-1,35.2,11.2,47.7l15.6-47.5C502.3,578.4,507.1,575.1,512.3,575.1z"/>
		</g>
	</g>
	<g>
		<g>
			<path d="M712.4,335.9c-0.1,0-0.2,0-0.3-0.1c0,0,0,0,0,0l0,0c0,0,0,0,0,0l-13.7-4.4c-3.2-1-5.8-3.2-7.3-6.2
				c-1.5-3-1.7-6.3-0.6-9.5l16.1-49.1c0.2-0.6,0.8-0.9,1.3-0.7l13.8,4.4c0.3,0.1,0.5,0.3,0.6,0.5c0.1,0.3,0.2,0.5,0.1,0.8
				l-16.1,49.1c-1.7,5.6,1.1,11.3,6.5,13.1l0,0c0.6,0.2,0.9,0.8,0.7,1.3C713.2,335.6,712.8,335.9,712.4,335.9z M708.2,268.2
				l-15.8,48.1c-0.9,2.7-0.7,5.5,0.5,7.9c1.2,2.5,3.4,4.3,6,5.2l7.2,2.3c-2.4-3.1-3.3-7.4-2-11.6l15.8-48.1L708.2,268.2z"/>
		</g>
		<g>
			<path d="M658.2,598.8c-0.1,0-0.2,0-0.3-0.1l-13.8-4.4c-0.5-0.2-0.8-0.6-0.7-1.1c0-0.5,0.4-0.9,0.9-1c5.8-0.8,11.6-2.7,16.8-5.4
				c4.9-2.7,9.5-6.4,13.2-10.8c3.8-4.4,6.8-9.7,8.9-16c4.8-14.5,2.1-30.5-7-42.7c-3.3-4.4-7-8-11.4-11c-0.4-0.3-0.6-0.8-0.4-1.2
				l46.4-142.5c0.1-0.4,0.5-0.7,1-0.7c5,0.2,10.1-0.5,15.5-2.1c14.5-4.5,26.1-15.9,30.9-30.5c1.8-5.3,2.5-10.8,2.3-16.8
				c-0.2-5.9-1.7-12.1-4.3-17.8c-2.4-5.2-5.9-10-10.4-14.3c-0.4-0.3-0.4-0.9-0.2-1.3c0.3-0.4,0.8-0.6,1.2-0.5l13.8,4.4
				c0.2,0,0.3,0.1,0.4,0.2c13.7,13.1,18.8,33.1,13,51.1c-6.7,20.7-25.8,34.3-47.7,34l-45.9,141c17.8,12.6,25.3,34.8,18.6,55.6
				c0,0,0,0,0,0c-5.9,18.2-21.9,31.3-40.7,33.6C658.2,598.8,658.2,598.8,658.2,598.8z M648.7,593.5l9.6,3.1
				c17.9-2.2,33.1-14.8,38.7-32.1c6.5-20.1-0.9-41.7-18.4-53.7c-0.4-0.3-0.6-0.8-0.4-1.2l46.4-142.5c0.1-0.4,0.6-0.7,1-0.7
				c0,0,0,0,0,0c0.5,0,1,0,1.5,0c20.6,0,38.6-12.9,44.9-32.5c5.6-17.1,0.8-36.2-12.3-48.7l-9.5-3.1c3.2,3.6,5.9,7.6,7.8,11.9
				c2.8,6,4.3,12.4,4.5,18.6c0.2,6.3-0.5,12-2.4,17.5c-5,15.2-17.1,27.1-32.3,31.8c-5.4,1.6-10.4,2.3-15.4,2.2l-45.9,141
				c4.2,3,8,6.7,11.2,11c9.6,12.7,12.4,29.4,7.4,44.6c-2.2,6.5-5.4,12.1-9.3,16.7c-3.9,4.6-8.7,8.5-13.9,11.3
				C657.9,590.9,653.3,592.5,648.7,593.5z M698,564.9L698,564.9L698,564.9z"/>
		</g>
		<g>
			<path d="M618.8,586.1c-0.1,0-0.2,0-0.3-0.1l-13.8-4.4c-0.3-0.1-0.5-0.3-0.6-0.5c-0.1-0.3-0.2-0.5-0.1-0.8l16.1-49.1
				c1-3.2,3.2-5.8,6.2-7.3c3-1.5,6.3-1.7,9.5-0.6l13.7,4.4l0,0l0,0c0.6,0.2,0.9,0.8,0.7,1.3c-0.2,0.6-0.8,0.9-1.3,0.7
				c-5.4-1.7-11.1,1.1-13.1,6.5l-16.1,49.1C619.6,585.8,619.2,586.1,618.8,586.1z M606.3,579.9l11.8,3.8l15.8-48.1
				c1.4-4.1,4.7-6.9,8.5-8l-7.1-2.3c-2.7-0.9-5.5-0.7-7.9,0.5c-2.5,1.2-4.3,3.4-5.2,6L606.3,579.9z"/>
		</g>
		<g>
			<path d="M665.4,506.6c-0.2,0-0.4-0.1-0.6-0.2c-1.5-1.1-3.3-2.2-5.3-3.1l-1.1-0.5c-1.5-0.7-2.9-1.3-4.5-1.8
				c-0.3-0.1-0.4-0.2-0.6-0.2c-0.2-0.1-0.4-0.1-0.7-0.3c-3.8-1.2-8-2-12.9-2.2c-0.3,0-0.6-0.2-0.8-0.5c-0.2-0.3-0.2-0.6-0.1-0.9
				l46.4-142.5c0.1-0.3,0.4-0.6,0.7-0.7c0.3-0.1,0.7-0.1,0.9,0.1c3.1,2.2,7,4.1,11.8,5.8c0.3,0.1,0.4,0.2,0.5,0.2
				c0.2,0.1,0.4,0.1,0.7,0.3c1.4,0.5,3.1,0.8,4.8,1.2l0.9,0.2l0.9,0.1c2.1,0.2,3.8,0.3,5.6,0.3c0.3,0,0.7,0.2,0.9,0.4
				c0.2,0.3,0.3,0.6,0.2,1l-46.6,142.5c-0.1,0.3-0.4,0.6-0.7,0.7C665.6,506.6,665.5,506.6,665.4,506.6z M641.2,496.3
				c4.5,0.3,8.5,1.1,12.2,2.3c0.3,0.1,0.4,0.2,0.5,0.2c0.2,0.1,0.4,0.1,0.7,0.3c1.6,0.5,3.1,1.1,4.6,1.8l1.1,0.5
				c1.6,0.7,3.2,1.6,4.5,2.5l45.7-139.8c-1.4-0.1-2.8-0.2-4.3-0.3l-1.1-0.1l-1-0.2c-1.7-0.4-3.5-0.8-5.1-1.3
				c-0.3-0.1-0.4-0.2-0.5-0.2c-0.2-0.1-0.4-0.1-0.7-0.3c-4.3-1.5-8-3.2-11-5.2L641.2,496.3z"/>
		</g>
		<g>
			<path d="M713.7,364.1c-0.7,0-1.3,0-2,0c0,0,0,0,0,0c-2.1,0-4.3-0.2-6.5-0.7l-0.9-0.2c-1.7-0.4-3.5-0.8-5.2-1.3
				c-0.3-0.1-0.4-0.2-0.5-0.2c-0.2-0.1-0.4-0.1-0.7-0.3c-4.6-1.5-8.7-3.5-12.2-6c-18.1-12.2-26-35.2-19-56.1
				c5.9-18.2,21.9-31.3,40.7-33.5c0.4,0,0.7,0.1,0.9,0.4c0.2,0.3,0.3,0.7,0.2,1l-16.1,49.1c-1.7,5.4,1.1,11.1,6.5,13.1l17.6,5.7
				c5.4,1.7,11.1-1.1,13.1-6.5l16.1-49.1c0.1-0.3,0.4-0.6,0.7-0.7c0.3-0.1,0.7,0,1,0.3c4.6,4.4,8.3,9.5,10.8,14.9
				c2.8,5.8,4.3,12.1,4.5,18.6c0.2,5.8-0.7,11.7-2.6,17.5l0,0c-5,15.2-16.8,26.8-32.2,31.8C723.6,363.4,718.7,364.1,713.7,364.1z
				 M706,268.1c-17.3,2.7-31.8,15-37.3,31.9c-6.6,19.9,0.8,42,18.2,53.7c3.4,2.4,7.2,4.3,11.8,5.8c0.3,0.1,0.4,0.2,0.5,0.2
				c0.2,0.1,0.4,0.1,0.7,0.3c1.4,0.5,3.1,0.8,4.8,1.2l0.9,0.2c2,0.4,4.1,0.6,6.1,0.6c5.5,0.2,10.8-0.5,15.6-2.1
				c14.8-4.8,26.1-15.9,30.9-30.5c0,0,0,0,0,0c1.9-5.6,2.7-11.2,2.5-16.8c-0.2-6.3-1.7-12.2-4.3-17.8c-2.2-4.8-5.3-9.2-9.2-13.1
				l-15.6,47.5c-2.3,6.5-9.2,10-15.7,7.9l-17.6-5.7c-6.5-2.3-10-9.2-7.9-15.7L706,268.1z"/>
		</g>
		<g>
			<path d="M644.4,594.3c-0.3,0-0.6-0.1-0.8-0.4c-0.2-0.3-0.3-0.7-0.2-1l16.1-49.1c1.7-5.4-1.1-11.1-6.5-13.1l-17.6-5.7
				c-5.4-1.7-11.1,1.1-13.1,6.5l-16.1,49.1c-0.1,0.3-0.4,0.6-0.7,0.7c-0.3,0.1-0.7,0-1-0.3c-13.7-13.1-18.8-33.1-13-51.1
				c6.8-21,26.3-34.6,48.5-34c5.1,0.2,9.6,1,13.6,2.4c0.3,0.1,0.4,0.2,0.5,0.2c0.2,0.1,0.4,0.1,0.7,0.3c1.8,0.6,3.8,1.5,5.7,2.3
				c1.9,0.9,3.6,1.9,5.7,3.3c5.1,3.7,9,7.4,11.9,11.5c9.4,13,12,29.3,7.1,44.8c-1.9,6.1-5,11.7-9.3,16.7c-3.9,4.6-8.7,8.5-13.9,11.3
				c-5.5,3.1-11.4,5-17.6,5.6C644.5,594.3,644.4,594.3,644.4,594.3z M632.2,522.4c1.3,0,2.6,0.2,3.9,0.6l17.6,5.7
				c6.5,2.3,10,9.2,7.9,15.7L645.9,592c5.2-0.8,10.3-2.5,15.1-5.2c4.9-2.7,9.5-6.4,13.3-10.8c4.1-4.7,7.1-10.1,8.9-15.9c0,0,0,0,0,0
				c4.7-14.8,2.2-30.5-6.8-42.9c-2.8-3.9-6.5-7.5-11.4-11c-2-1.3-3.5-2.3-5.3-3.1c-1.9-0.8-3.8-1.7-5.6-2.3
				c-0.3-0.1-0.4-0.2-0.5-0.2c-0.2-0.1-0.4-0.1-0.7-0.3c-3.8-1.2-8-2-12.9-2.2c-21.2-0.7-39.9,12.4-46.4,32.5
				c-5.4,16.7-1,35.2,11.2,47.7l15.6-47.5C622.2,525.6,627,522.4,632.2,522.4z"/>
		</g>
	</g>
	<g>
		<g>
			<path class="st3" d="M416.3,377.9c11,19.1-8.9,51.3-44.7,72c-35.6,20.8-73.5,22.2-84.7,3.4c-11-19.1,8.9-51.3,44.7-72
				C367.3,360.3,405.3,358.8,416.3,377.9z"/>
		</g>
		<g>
			<path class="st2" d="M428.6,405.4l88.7,152.1c-11-19.1-48.9-17.6-84.7,3.4c-35.6,20.8-55.7,53-44.7,72l-88.7-152.1
				c-11-19.1,8.9-51.3,44.7-72C379.6,387.8,417.5,386.3,428.6,405.4z"/>
		</g>
		<g>
			<path class="st2" d="M416.3,534.6l-53.2-92.3c35.6-20.8,74.1-22.2,85.1-3.4l55.7,95.7H416.3"/>
		</g>
		<g>
			<path class="st2" d="M354.4,272l61.6,105.9c-11-19.1-48.9-17.6-84.7,3.4c-35.6,20.8-55.7,53-44.7,72L225,347.4
				c-11-18.9,3.6-60.4,39.2-81.1C300.2,245.3,343.4,252.9,354.4,272z"/>
		</g>
		<g>
			<polygon class="st3" points="300,254.2 458.4,534.6 504,534.6 434.5,415.3 425.2,400.7 418.6,396.1 419.2,387.2 417.3,380 
				398.9,348 371.4,301 355.7,274.1 350.2,266.4 342.6,260.9 326.9,255.4 311.8,253.7 			"/>
		</g>
		<g>
			<path d="M285.7,453.8l-61.6-105.9c-5.7-9.7-4.9-24.9,2.1-40.8c7.6-17.2,20.9-32.1,37.5-41.8c20.6-12,45.6-15.8,66.7-10.2
				c11.8,3.1,20.7,8.9,24.9,16.3l61.6,105.8c0,0,0,0.1,0.1,0.1l-1.8,1.1l-0.1-0.1c-3.1-5.3-8.7-9.2-16.2-11.2
				c-17.6-4.6-43.2,1.1-67,15.1c-35.1,20.5-55,52.1-44.3,70.6L285.7,453.8z M310.6,254.7c-15.6,0-32,4.3-45.9,12.4
				c-16.2,9.5-29.2,24-36.6,40.8c-6.6,15-7.4,29.9-2.2,38.9l56.8,97.7c-2-19.5,17.2-46.2,48-64.2c24.2-14.2,50.5-20.1,68.6-15.3
				c4.2,1.1,7.8,2.8,10.8,4.9l-56.8-97.5c-4-6.9-12.4-12.3-23.6-15.3C323.8,255.5,317.3,254.7,310.6,254.7z"/>
		</g>
		<g>
			<path d="M387,633.4l-88.7-152.1c-11.3-19.5,8.9-52.5,45.1-73.5c24.2-14.2,50.5-20.1,68.6-15.3c8.1,2.1,14.1,6.4,17.5,12.3
				l88.7,151.9c0,0.1,0.1,0.1,0.1,0.2l-1.8,1.1l-0.1-0.2c-3.1-5.3-8.7-9.2-16.2-11.1c-17.6-4.6-43.2,1.1-67,15.1
				c-35.1,20.5-55,52.1-44.3,70.6L387,633.4z M398.2,393.1c-16,0-35.5,5.9-53.8,16.6c-35.1,20.4-55,52-44.3,70.6l84,143.9
				c-2.1-19.5,17.2-46.2,48-64.2c24.2-14.2,50.5-20.1,68.6-15.3c4.2,1.1,7.8,2.8,10.8,4.9l-83.8-143.7c-3.1-5.4-8.7-9.3-16.3-11.3
				C407.4,393.6,402.9,393.1,398.2,393.1z"/>
		</g>
		<g>
			<path d="M232.4,361.4c-5.7-9.7-4.9-25,2.1-40.8c7.6-17.2,20.9-32.1,37.5-41.8c20.1-11.7,45.6-15.6,66.4-10
				c11.9,3.2,20.8,9,25,16.3l-1.8,1.1c-4-6.9-12.4-12.3-23.8-15.4c-20.3-5.4-45.2-1.6-64.8,9.8c-16.2,9.5-29.2,24-36.6,40.8
				c-6.6,15-7.4,29.9-2.2,38.9L232.4,361.4z"/>
		</g>
		<g>
			<path d="M296.6,463.1c-4.5-2.1-8.1-5.3-10.6-9.5c-11.3-19.6,8.9-52.5,45.1-73.5c36-21,74.6-22.4,86.2-3c3.2,5.6,4,12,2.5,19
				l-2.1-0.5c1.4-6.4,0.7-12.3-2.2-17.5c-10.9-18.3-48.3-16.6-83.3,3.8c-35.1,20.4-55,52-44.3,70.6c2.3,3.8,5.6,6.7,9.7,8.7
				L296.6,463.1z"/>
		</g>
		<g>
			<path d="M418.4,647.1c-14.4,0-26-4.5-31.4-13.7c-11.3-19.6,8.9-52.5,45.1-73.5c24.2-14.2,50.5-20.1,68.6-15.3
				c8.1,2.1,14.1,6.4,17.5,12.3c11.3,19.5-8.9,52.5-45.1,73.5C454.2,641.5,434.5,647.1,418.4,647.1z M486.9,545.1
				c-16,0-35.5,5.9-53.8,16.6c-35.1,20.4-55,52-44.3,70.6c10.9,18.3,48.3,16.6,83.3-3.8c35.1-20.4,55-52,44.3-70.6
				c-3.1-5.4-8.7-9.3-16.3-11.3C496.1,545.7,491.7,545.1,486.9,545.1z"/>
		</g>
		<g>
			<path d="M331.7,538.9c-11.3-19.5,8.9-52.5,45.1-73.5l1.1,1.8c-35.1,20.4-55,52-44.3,70.6L331.7,538.9z"/>
		</g>
		<g>
			<rect x="245" y="197.7" transform="matrix(0.863 -0.5051 0.5051 0.863 -84.6772 156.3986)" width="2.1" height="73.4"/>
		</g>
		<g>
			<path d="M505.8,535.7h-90.1l-0.3-0.5l-53.7-93.3l0.9-0.5c36.3-21.2,75.2-22.5,86.6-3L505.8,535.7z M416.9,533.5h85.2l-54.8-94.1
				c-10.5-18.1-48.3-16.5-82.8,3.2L416.9,533.5z"/>
		</g>
		<g>
			<circle class="st2" cx="227.5" cy="202.7" r="25.2"/>
			<path d="M227.5,229c-14.5,0-26.3-11.8-26.3-26.3c0-14.5,11.8-26.3,26.3-26.3c14.5,0,26.3,11.8,26.3,26.3
				C253.8,217.2,242,229,227.5,229z M227.5,178.5c-13.3,0-24.1,10.8-24.1,24.1c0,13.3,10.8,24.1,24.1,24.1
				c13.3,0,24.1-10.8,24.1-24.1C251.7,189.4,240.9,178.5,227.5,178.5z"/>
		</g>
		<g>
			<circle class="st2" cx="318.8" cy="302.7" r="15.7"/>
			<path d="M318.8,319.4c-9.2,0-16.7-7.5-16.7-16.7c0-9.2,7.5-16.7,16.7-16.7c9.2,0,16.7,7.5,16.7,16.7
				C335.6,311.9,328.1,319.4,318.8,319.4z M318.8,288c-8.1,0-14.6,6.6-14.6,14.6c0,8.1,6.6,14.6,14.6,14.6c8.1,0,14.6-6.6,14.6-14.6
				C333.5,294.6,326.9,288,318.8,288z"/>
		</g>
		<g>
			<circle class="st2" cx="366.1" cy="292.9" r="9.7"/>
			<path d="M366.1,303.7c-6,0-10.8-4.8-10.8-10.8c0-6,4.8-10.8,10.8-10.8s10.8,4.8,10.8,10.8C376.9,298.9,372,303.7,366.1,303.7z
				 M366.1,284.2c-4.8,0-8.7,3.9-8.7,8.7c0,4.8,3.9,8.7,8.7,8.7c4.8,0,8.7-3.9,8.7-8.7C374.8,288.1,370.9,284.2,366.1,284.2z"/>
		</g>
	</g>
	<g>
		<path d="M158.5,450.1h-11c-0.6,0-1.1-0.5-1.1-1.1c0-0.6,0.5-1.1,1.1-1.1h11c0.6,0,1.1,0.5,1.1,1.1
			C159.6,449.6,159.1,450.1,158.5,450.1z"/>
	</g>
	<g>
		<path d="M191.1,524h-11c-0.6,0-1.1-0.5-1.1-1.1c0-0.6,0.5-1.1,1.1-1.1h11c0.6,0,1.1,0.5,1.1,1.1C192.2,523.5,191.7,524,191.1,524z
			"/>
	</g>
	<g>
		<g>
			<g>
				<rect x="581.7" y="534.6" class="st2" width="229.4" height="272.6"/>
			</g>
			<g>
				<rect x="609" y="557" class="st2" width="43.2" height="76.3"/>
			</g>
		</g>
		<g>
			<line class="st8" x1="590.2" y1="796.8" x2="800.9" y2="796.8"/>
		</g>
		<g>
			<line class="st8" x1="800.1" y1="720.6" x2="810.9" y2="720.6"/>
		</g>
		<g>
			<line class="st8" x1="800.1" y1="655.7" x2="810.9" y2="655.7"/>
		</g>
		<g>
			<rect x="581.7" y="534.6" class="st3" width="229.4" height="272.6"/>
		</g>
		<g>
			<path d="M800.9,797.9H590.2c-0.6,0-1.1-0.5-1.1-1.1s0.5-1.1,1.1-1.1h210.7c0.6,0,1.1,0.5,1.1,1.1S801.5,797.9,800.9,797.9z"/>
		</g>
		<g>
			<path d="M810.9,721.6h-10.8c-0.6,0-1.1-0.5-1.1-1.1c0-0.6,0.5-1.1,1.1-1.1h10.8c0.6,0,1.1,0.5,1.1,1.1
				C811.9,721.1,811.4,721.6,810.9,721.6z"/>
		</g>
		<g>
			<path d="M810.9,656.8h-10.8c-0.6,0-1.1-0.5-1.1-1.1c0-0.6,0.5-1.1,1.1-1.1h10.8c0.6,0,1.1,0.5,1.1,1.1
				C811.9,656.3,811.4,656.8,810.9,656.8z"/>
		</g>
		<g>
			<g>
				<path d="M812.1,808.2H580.6V533.5h231.5V808.2z M582.7,806.1H810V535.7H582.7V806.1z"/>
			</g>
			<g>
				<path d="M653.3,634.4H608V556h45.3V634.4z M610.1,632.2h41.1v-74.1h-41.1V632.2z"/>
			</g>
		</g>
	</g>
	<g>
		<line class="st8" x1="601.8" y1="489.1" x2="612.6" y2="489.1"/>
	</g>
	<g>
		<line class="st8" x1="640.8" y1="400.5" x2="651.6" y2="400.5"/>
	</g>
	<g>
		<g>
			<polygon class="st2" points="793.7,534.6 572.4,534.6 640.6,380 861.7,380 			"/>
		</g>
		<g>
			<path d="M794.4,535.7H570.7l69.1-156.7h223.4l-0.7,1.5L794.4,535.7z M574,533.5h219L860.1,381H641.3L574,533.5z"/>
		</g>
		<g>
			<rect x="631.5" y="399.5" width="9.3" height="2.1"/>
		</g>
		<g>
			<rect x="592.5" y="488" width="9.3" height="2.1"/>
		</g>
	</g>
	<g>
		<g>
			<polygon class="st2" points="810.9,534.6 581.7,534.6 649.9,380 879.1,380 			"/>
		</g>
		<g>
			<g>
				<polygon class="st3" points="649.9,380 879.1,380 810.9,534.6 581.7,534.6 				"/>
			</g>
			<g>
				<path d="M860,423.6h-10.8c-0.6,0-1.1-0.5-1.1-1.1s0.5-1.1,1.1-1.1H860c0.6,0,1.1,0.5,1.1,1.1S860.6,423.6,860,423.6z"/>
			</g>
			<g>
				<path d="M612.6,490.1h-10.8c-0.6,0-1.1-0.5-1.1-1.1c0-0.6,0.5-1.1,1.1-1.1h10.8c0.6,0,1.1,0.5,1.1,1.1
					C613.7,489.6,613.2,490.1,612.6,490.1z"/>
			</g>
			<g>
				<path d="M651.6,401.6h-10.8c-0.6,0-1.1-0.5-1.1-1.1c0-0.6,0.5-1.1,1.1-1.1h10.8c0.6,0,1.1,0.5,1.1,1.1
					C652.6,401.1,652.2,401.6,651.6,401.6z"/>
			</g>
		</g>
		<g>
			<path d="M811.6,535.7H580.1l69.1-156.7h231.5L811.6,535.7z M583.3,533.5h226.9L877.4,381H650.6L583.3,533.5z"/>
		</g>
	</g>
	<g>
		<rect x="436.6" y="813.1" class="st2" width="3.6" height="18.6"/>
	</g>
	<g>
		<rect x="436.6" y="794.5" class="st2" width="3.6" height="18.6"/>
	</g>
	<g>
		<circle class="st2" cx="438.3" cy="812.9" r="5.5"/>
	</g>
	<g>
		<rect x="470.3" y="806.1" class="st2" width="3.6" height="18.6"/>
	</g>
	<g>
		<rect x="470.3" y="787.5" class="st2" width="3.6" height="18.6"/>
	</g>
	<g>
		<circle class="st2" cx="472.2" cy="806.1" r="5.5"/>
	</g>
	<g>
		
			<rect x="461" y="824.8" transform="matrix(0.2759 -0.9612 0.9612 0.2759 -466.6728 1048.795)" class="st2" width="3.6" height="18.6"/>
	</g>
	<g>
		<rect x="452.5" y="813.1" class="st2" width="3.6" height="18.6"/>
	</g>
	<g>
		<circle class="st2" cx="454.4" cy="831.8" r="5.5"/>
	</g>
	<g>
		<rect x="452.5" y="794.5" class="st2" width="3.6" height="18.6"/>
	</g>
	<g>
		<circle class="st2" cx="454.4" cy="812.9" r="5.5"/>
	</g>
	<g>
		<g>
			<g>
				<path class="st2" d="M226.9,372.8l-14.2,3.4c-6.1,1.5-12.3-2.3-13.6-8.5l-11.6-50.4l14.2-3.4l11.6,50.4
					C214.8,370.4,220.8,374.3,226.9,372.8z"/>
			</g>
			<g>
				<path class="st3" d="M316.7,625.9l-14.2,3.2c4.9-3.8,8.7-8.5,11.6-13.6c3-5.1,4.9-10.6,5.9-16.5c1.1-5.9,0.8-12.3-0.6-18.6
					c-3.6-15.9-14.8-28-28.6-33.7c-4.9-2.1-10.2-3.2-15.7-3.6l-34.1-145.9c4.9-2.8,9.1-6.1,12.5-10.2c10-11.2,14.6-27.1,10.8-43
					c-1.3-5.9-3.8-11.2-6.8-15.9l0,0c-3.6-5.3-8-9.7-13.3-13.3c-5.1-3.4-10.6-5.7-16.5-7l14.2-3.4c17.6,3.8,32.4,17.4,36.9,36.2
					c4.9,21.4-5.1,42.8-23.3,53l34.1,145.9c21,1.1,39.4,15.9,44.5,37.3C337.9,595.8,330.7,614.4,316.7,625.9z"/>
			</g>
			<g>
				<path class="st2" d="M273.3,571.2c-6.1,1.5-10,7.6-8.5,13.6l11.6,50.4l-14.2,3.4l-11.6-50.4c-1.5-6.1,2.3-12.3,8.5-13.6
					L273.3,571.2z"/>
			</g>
			<g>
				<path class="st2" d="M275,543.1c-2.1,0-4.2,0-6.4,0l0,0c-2.1,0.2-4,0.4-6.1,0.8c-0.4,0-0.6,0.2-1.1,0.2
					c-4.4,1.1-8.7,2.8-12.7,4.9l-34.1-145.9c4.4,0.2,8.9-0.2,13.6-1.3c0.4,0,0.6-0.2,1.1-0.2c2.1-0.4,4-1.1,5.9-1.9
					c1.9-0.8,3.8-1.7,5.7-2.8L275,543.1z"/>
			</g>
			<g>
				<path class="st2" d="M253.6,387c-3.6,4-7.8,7.4-12.5,10.2c-1.9,1.1-3.8,1.9-5.7,2.8c-1.9,0.8-3.8,1.5-5.9,1.9
					c-0.4,0-0.6,0.2-1.1,0.2c-4.4,1.1-9.1,1.5-13.6,1.3c-21-1.1-39.4-15.9-44.5-37.3c-4.4-18.6,2.8-37.5,16.9-48.7l11.6,50.4
					c1.5,6.1,7.4,10,13.6,8.5l14.2-3.4l3.8-0.8c6.1-1.5,10-7.6,8.5-13.6L227.3,308c5.9,1.3,11.4,3.6,16.5,7c5.3,3.4,9.7,8,13.3,13.3
					l0,0c3.2,4.7,5.5,10,6.8,15.9C268,359.9,263.6,375.7,253.6,387z"/>
			</g>
			<g>
				<path class="st2" d="M320.1,599c-0.8,5.9-3,11.4-5.9,16.5c-3,5.1-7,9.7-11.6,13.6l-11.6-50.4c-1.5-6.1-7.6-10-13.6-8.5l-4,0.8
					l-14,3.2c-6.1,1.5-10,7.4-8.5,13.6l11.6,50.4c-17.6-3.8-32.4-17.4-36.9-36.2c-5.1-21.4,5.1-42.8,23.3-53c3.8-2.1,8-3.8,12.7-4.9
					c0.4,0,0.6-0.2,1.1-0.2c2.1-0.4,4-0.6,6.1-0.8l0,0c2.1-0.2,4.2-0.2,6.4,0c5.5,0.2,10.8,1.5,15.7,3.6c14,5.7,25,17.8,28.6,33.7
					C321,586.7,321.2,592.8,320.1,599z"/>
			</g>
		</g>
		<g>
			<g>
				<path d="M210,377.5c-2.3,0-4.6-0.6-6.5-1.9c-2.8-1.8-4.7-4.5-5.4-7.7l-11.6-50.4c-0.1-0.6,0.2-1.1,0.8-1.3l14.2-3.4
					c0.3-0.1,0.6,0,0.8,0.1c0.2,0.1,0.4,0.4,0.5,0.7l11.6,50.4c0.7,2.7,2.3,5,4.6,6.4c2.3,1.4,5,1.9,7.7,1.3l0.1,0
					c0.6-0.1,1.1,0.2,1.3,0.8c0.1,0.6-0.2,1.1-0.8,1.3c0,0,0,0-0.1,0l-14.1,3.4C212,377.4,211,377.5,210,377.5z M188.8,318.1
					l11.4,49.4c0.6,2.7,2.1,4.9,4.4,6.4c2.3,1.5,5.1,1.9,7.9,1.3l7.5-1.8c-0.7-0.3-1.4-0.6-2.1-1.1c-2.8-1.7-4.7-4.5-5.5-7.7
					l-11.4-49.4L188.8,318.1z"/>
			</g>
			<g>
				<path d="M302.5,630.1c-0.4,0-0.8-0.2-0.9-0.6c-0.2-0.4-0.1-1,0.3-1.3c4.6-3.8,8.5-8.3,11.4-13.3c2.8-4.8,4.7-10.1,5.8-16.2
					c1-5.8,0.8-12-0.6-18.2c-3.3-14.7-13.8-27.1-28-32.9c-4.4-1.9-9.4-3.1-15.3-3.5c-0.5,0-0.8-0.4-0.9-0.8l-34.1-145.9
					c-0.1-0.5,0.1-0.9,0.5-1.2c4.9-2.8,9-6.1,12.2-9.9c10.2-11.5,14.2-27.2,10.6-41.9c-1.1-5.2-3.3-10.3-6.6-15.6
					c-3.5-5.1-7.9-9.5-13-13c-4.9-3.3-10.4-5.6-16.1-6.8c-0.5-0.1-0.8-0.5-0.8-1c0-0.5,0.3-0.9,0.8-1l14.2-3.4c0.2,0,0.3,0,0.5,0
					c18.5,4,33.3,18.5,37.7,37c5,21-4.5,42.9-23.1,53.7l33.7,144.4c21.2,1.7,39.3,17.2,44.2,38h0c4.4,18.8-2.2,37.8-17.3,49.8
					c-0.1,0.1-0.3,0.2-0.4,0.2l-14.2,3.4C302.7,630.1,302.6,630.1,302.5,630.1z M276.1,542.1c5.8,0.5,10.8,1.7,15.2,3.6
					c14.8,6.1,25.7,19,29.2,34.4c1.5,6.5,1.7,12.9,0.6,19.1c-1.1,6.3-3.1,11.8-6.1,16.9c-2.3,4-5.3,7.7-8.7,11l9.9-2.4
					c14.3-11.4,20.6-29.6,16.4-47.5c-4.8-20.2-22.5-35.2-43.1-36.5c-0.5,0-0.9-0.4-1-0.8L254.5,394c-0.1-0.5,0.1-0.9,0.5-1.2
					c18.2-10.2,27.6-31.5,22.8-51.8c-4.2-17.6-18.2-31.5-35.8-35.4l-9.8,2.3c4.5,1.4,8.8,3.4,12.7,6.1c5.4,3.7,10,8.2,13.6,13.6
					c3.5,5.5,5.8,10.8,6.9,16.3c3.7,15.3-0.4,31.7-11,43.7c-3.2,3.8-7.3,7.2-12.1,10L276.1,542.1z"/>
			</g>
			<g>
				<path d="M262.3,639.6c-0.2,0-0.4-0.1-0.6-0.2c-0.2-0.1-0.4-0.4-0.5-0.7l-11.6-50.4c-0.8-3.3-0.2-6.6,1.6-9.5
					c1.8-2.8,4.5-4.7,7.7-5.4l14.2-3.4c0.6-0.1,1.1,0.2,1.3,0.8c0.1,0.6-0.2,1.1-0.8,1.3c0,0,0,0,0,0l0,0c-2.7,0.7-5.1,2.4-6.5,4.8
					c-1.4,2.3-1.8,5-1.2,7.5l11.7,50.4c0.1,0.6-0.2,1.1-0.8,1.3l-14.2,3.4C262.4,639.6,262.4,639.6,262.3,639.6z M266.7,573.9
					l-7.4,1.8c-2.7,0.6-4.9,2.1-6.4,4.4c-1.5,2.3-1.9,5.1-1.3,7.9l11.4,49.4l12.1-2.9L263.8,585c-0.8-3.1-0.3-6.3,1.4-9.1
					C265.7,575.2,266.2,574.5,266.7,573.9z"/>
			</g>
			<g>
				<path d="M248.7,550.1c-0.1,0-0.3,0-0.4-0.1c-0.3-0.1-0.5-0.4-0.6-0.7l-34.1-145.9c-0.1-0.3,0-0.7,0.2-0.9
					c0.2-0.3,0.5-0.4,0.9-0.4c4.3,0.2,8.7-0.2,13.3-1.2c0.1,0,0.2,0,0.2,0c0.4-0.1,0.7-0.2,1.1-0.2c1.7-0.4,3.6-1,5.5-1.8
					c2.1-0.7,4-1.5,5.6-2.5c0.3-0.2,0.6-0.2,1-0.1c0.3,0.1,0.5,0.4,0.6,0.7L276,542.8c0.1,0.3,0,0.7-0.2,0.9
					c-0.2,0.3-0.6,0.4-0.9,0.4c-1.3-0.1-2.7-0.1-4.1,0c-0.7,0-1.4,0-2.2,0c-1.9,0.2-3.8,0.4-5.9,0.8l-0.4,0.1
					c-0.2,0.1-0.4,0.1-0.7,0.2c-4.1,1-8.2,2.6-12.4,4.8C249.1,550,248.9,550.1,248.7,550.1z M216,404.2l33.5,143.3
					c3.9-2,7.9-3.4,11.7-4.3c0.1,0,0.2,0,0.2,0c0.4-0.1,0.7-0.2,1.1-0.2c2-0.4,4-0.6,6-0.8c0.8,0,1.5,0,2.2-0.1c1,0,1.9-0.1,2.9,0
					l-33.5-143.2c-1.4,0.8-3,1.4-4.7,1.9c-2,0.9-3.9,1.5-6,1.9l-0.4,0.1c-0.2,0.1-0.4,0.1-0.7,0.2C224.1,403.8,220,404.2,216,404.2z
					"/>
			</g>
			<g>
				<path d="M217.1,404.4c-0.8,0-1.5,0-2.3-0.1c-21.7-1.1-40.4-16.8-45.5-38.1c-4.4-18.8,2.2-37.8,17.3-49.8c0.3-0.2,0.7-0.3,1-0.2
					c0.3,0.1,0.6,0.4,0.7,0.8l11.6,50.4c0.7,2.7,2.3,5.1,4.8,6.5c2.3,1.4,5,1.8,7.5,1.2l18-4.2c2.7-0.7,5.1-2.3,6.5-4.8
					c1.4-2.3,1.8-5,1.2-7.5l-11.7-50.4c-0.1-0.4,0-0.7,0.3-1c0.3-0.3,0.6-0.4,1-0.3c6.3,1.3,12.1,3.8,16.9,7.2
					c5.1,3.3,9.7,7.9,13.6,13.6c3.4,4.6,5.8,10,7.4,16.2c0,0,0,0,0,0c3.5,15.6-0.6,31.9-11,43.7c-3.6,4-7.9,7.5-12.7,10.4
					c-2,1.1-3.9,2-5.8,2.8c-2.1,0.9-4,1.6-6.2,2l-0.4,0.1c-0.2,0.1-0.4,0.1-0.7,0.2C224.8,403.9,220.9,404.4,217.1,404.4z
					 M186.7,319.2c-13.5,11.5-19.4,29.2-15.3,46.6c4.9,20.4,22.7,35.4,43.5,36.5c4.4,0.2,9-0.2,13.3-1.2c0.1,0,0.2,0,0.2,0
					c0.4-0.1,0.7-0.2,1.1-0.2c1.8-0.4,3.6-1,5.5-1.8c1.9-0.8,3.8-1.7,5.6-2.7c4.7-2.8,8.8-6.1,12.2-9.9c10.1-11.4,14-26.7,10.6-41.8
					c-1.5-6-3.8-11.1-7-15.5c-3.8-5.6-8.2-9.9-13.1-13.1c-4.2-2.9-9.2-5.1-14.5-6.5l11.3,48.8c0.8,3.1,0.3,6.3-1.4,9.1
					c-1.8,2.9-4.5,4.9-7.8,5.7l-18,4.2c-3.1,0.8-6.3,0.3-9.1-1.4c-2.9-1.8-4.9-4.5-5.7-7.8L186.7,319.2z"/>
			</g>
			<g>
				<path d="M262.5,639.4c-0.1,0-0.1,0-0.2,0c-18.5-4-33.3-18.5-37.7-37c-5-21.2,4.8-43.5,23.8-54.1c4.1-2.3,8.5-4,13-5
					c0.1,0,0.2,0,0.2,0c0.4-0.1,0.7-0.2,1.1-0.2c2-0.4,3.9-0.6,6-0.8c2.2-0.2,4.4-0.2,6.6,0c5.5,0.2,10.9,1.4,16,3.7
					c14.8,5.9,25.7,18.7,29.2,34.2c1.5,6.5,1.7,12.8,0.6,19.1c-0.8,5.7-2.9,11.4-6.1,16.9c-2.8,5-6.8,9.7-11.9,13.8
					c-0.3,0.2-0.7,0.3-1,0.2c-0.3-0.1-0.6-0.4-0.7-0.8l-11.6-50.4c-0.7-2.7-2.3-5.1-4.8-6.5c-2.3-1.4-5-1.8-7.5-1.2l-18,4.2
					c-2.7,0.7-5.1,2.4-6.5,4.8c-1.4,2.3-1.8,5-1.2,7.5l11.7,50.4c0.1,0.4,0,0.7-0.3,1C263,639.3,262.8,639.4,262.5,639.4z
					 M261.8,545.4c-4.3,1-8.4,2.6-12.3,4.7c-18.2,10.2-27.6,31.5-22.8,51.8c4,17.1,17.5,30.7,34.4,35l-11.3-48.8
					c-0.8-3.1-0.3-6.3,1.4-9.1c1.7-2.9,4.5-4.9,7.8-5.7l18-4.2c3.1-0.8,6.3-0.3,9.1,1.4c2.9,1.8,4.9,4.5,5.7,7.8l11.3,48.7
					c4.3-3.7,7.6-7.7,10.1-12.1c3.1-5.3,5-10.7,5.8-16.2c1-6,0.8-12-0.6-18.2c0,0,0,0,0,0c-3.4-14.8-13.8-27.1-28-32.7
					c-4.9-2.1-10.1-3.3-15.3-3.5c-2.1-0.2-4.2-0.2-6.2,0c-2.1,0.2-3.9,0.4-6,0.8l-0.4,0.1C262.3,545.3,262.1,545.4,261.8,545.4z"/>
			</g>
		</g>
	</g>
	<g>
		<g>
			<g>
				<rect x="177.1" y="534.6" class="st2" width="404.6" height="272.6"/>
			</g>
			<g>
				
					<rect x="264.2" y="623.9" transform="matrix(0.7071 -0.7071 0.7071 0.7071 -359.3884 407.3566)" class="st2" width="95.7" height="27.1"/>
			</g>
			<g>
				
					<rect x="398.9" y="701.7" transform="matrix(0.7071 -0.7071 0.7071 0.7071 -374.9085 525.4161)" class="st2" width="95.7" height="27.1"/>
			</g>
		</g>
		<g>
			<line class="st8" x1="189.4" y1="796.8" x2="568.1" y2="796.8"/>
		</g>
		<g>
			<g>
				<path d="M582.7,808.2H176.1V533.5h406.7V808.2z M178.2,806.1h402.4V535.7H178.2V806.1z"/>
			</g>
			<g>
				<path d="M287.8,682.4l-20.7-20.7l69.2-69.2l20.7,20.7L287.8,682.4z M270.1,661.8l17.7,17.7l66.2-66.2l-17.7-17.7L270.1,661.8z"
					/>
			</g>
			<g>
				<path d="M422.5,760.2l-20.7-20.7l69.2-69.2l20.7,20.7L422.5,760.2z M404.8,739.5l17.7,17.7l66.2-66.2L471,673.3L404.8,739.5z"/>
			</g>
		</g>
		<g>
			<path d="M568.1,797.9H189.4c-0.6,0-1.1-0.5-1.1-1.1s0.5-1.1,1.1-1.1h378.7c0.6,0,1.1,0.5,1.1,1.1S568.7,797.9,568.1,797.9z"/>
		</g>
		<g>
			<path d="M592.5,766.3h-21.8c-0.6,0-1.1-0.5-1.1-1.1c0-0.6,0.5-1.1,1.1-1.1h21.8c0.6,0,1.1,0.5,1.1,1.1
				C593.5,765.8,593.1,766.3,592.5,766.3z"/>
		</g>
		<g>
			<path d="M188.2,578h-11c-0.6,0-1.1-0.5-1.1-1.1c0-0.6,0.5-1.1,1.1-1.1h11c0.6,0,1.1,0.5,1.1,1.1C189.2,577.5,188.7,578,188.2,578
				z"/>
		</g>
		<g>
			<path d="M188.2,705.1h-11c-0.6,0-1.1-0.5-1.1-1.1c0-0.6,0.5-1.1,1.1-1.1h11c0.6,0,1.1,0.5,1.1,1.1
				C189.2,704.6,188.7,705.1,188.2,705.1z"/>
		</g>
		<g>
			<path d="M592.5,608.1h-21.8c-0.6,0-1.1-0.5-1.1-1.1c0-0.6,0.5-1.1,1.1-1.1h21.8c0.6,0,1.1,0.5,1.1,1.1
				C593.5,607.6,593.1,608.1,592.5,608.1z"/>
		</g>
	</g>
	<g>
		<g>
			<rect x="436.6" y="813.1" class="st2" width="3.6" height="18.6"/>
			<path d="M440.2,832.8h-3.6c-0.6,0-1.1-0.5-1.1-1.1v-18.6c0-0.6,0.5-1.1,1.1-1.1h3.6c0.6,0,1.1,0.5,1.1,1.1v18.6
				C441.3,832.3,440.8,832.8,440.2,832.8z M437.7,830.7h1.5v-16.5h-1.5V830.7z"/>
		</g>
		<g>
			<rect x="436.6" y="794.5" class="st2" width="3.6" height="18.6"/>
			<path d="M441.3,814.2h-5.7v-20.8h5.7V814.2z M437.7,812.1h1.5v-16.5h-1.5V812.1z"/>
		</g>
		<g>
			<circle class="st2" cx="438.3" cy="812.9" r="5.5"/>
			<path d="M438.3,819.5c-3.6,0-6.6-2.9-6.6-6.6c0-3.6,2.9-6.6,6.6-6.6c3.6,0,6.6,2.9,6.6,6.6C444.9,816.5,441.9,819.5,438.3,819.5z
				 M438.3,808.5c-2.5,0-4.4,2-4.4,4.4c0,2.5,2,4.4,4.4,4.4c2.5,0,4.4-2,4.4-4.4C442.7,810.5,440.7,808.5,438.3,808.5z"/>
		</g>
		<g>
			<rect x="470.3" y="806.1" class="st2" width="3.6" height="18.6"/>
			<path d="M473.9,825.8h-3.6c-0.6,0-1.1-0.5-1.1-1.1v-18.6c0-0.6,0.5-1.1,1.1-1.1h3.6c0.6,0,1.1,0.5,1.1,1.1v18.6
				C474.9,825.4,474.5,825.8,473.9,825.8z M471.3,823.7h1.5v-16.5h-1.5V823.7z"/>
		</g>
		<g>
			<rect x="470.3" y="787.5" class="st2" width="3.6" height="18.6"/>
			<path d="M474.9,807.2h-5.7v-20.8h5.7V807.2z M471.3,805.1h1.5v-16.5h-1.5V805.1z"/>
		</g>
		<g>
			<circle class="st2" cx="472.2" cy="806.1" r="5.5"/>
			<path d="M472.2,812.7c-3.6,0-6.6-2.9-6.6-6.6c0-3.6,2.9-6.6,6.6-6.6c3.6,0,6.6,2.9,6.6,6.6C478.7,809.7,475.8,812.7,472.2,812.7z
				 M472.2,801.7c-2.5,0-4.4,2-4.4,4.4c0,2.5,2,4.4,4.4,4.4c2.5,0,4.4-2,4.4-4.4C476.6,803.7,474.6,801.7,472.2,801.7z"/>
		</g>
		<g>
			
				<rect x="461" y="824.8" transform="matrix(0.2759 -0.9612 0.9612 0.2759 -466.6728 1048.795)" class="st2" width="3.6" height="18.6"/>
			<path d="M471.2,839.5c-0.1,0-0.2,0-0.3,0l-17.9-5.1c-0.3-0.1-0.5-0.3-0.6-0.5c-0.1-0.2-0.2-0.5-0.1-0.8l1-3.5
				c0.2-0.6,0.7-0.9,1.3-0.7l17.9,5.1c0.3,0.1,0.5,0.3,0.6,0.5c0.1,0.2,0.2,0.5,0.1,0.8l-1,3.5C472.1,839.2,471.7,839.5,471.2,839.5
				z M454.6,832.6l15.9,4.6l0.4-1.4l-15.9-4.6L454.6,832.6z"/>
		</g>
		<g>
			<rect x="452.5" y="813.1" class="st2" width="3.6" height="18.6"/>
			<path d="M457.1,832.8h-5.7v-20.8h5.7V832.8z M453.5,830.7h1.5v-16.5h-1.5V830.7z"/>
		</g>
		<g>
			<circle class="st2" cx="454.4" cy="831.8" r="5.5"/>
			<path d="M454.4,838.3c-3.6,0-6.6-2.9-6.6-6.6s2.9-6.6,6.6-6.6c3.6,0,6.6,2.9,6.6,6.6S458,838.3,454.4,838.3z M454.4,827.3
				c-2.5,0-4.4,2-4.4,4.4c0,2.5,2,4.4,4.4,4.4c2.5,0,4.4-2,4.4-4.4C458.8,829.3,456.8,827.3,454.4,827.3z"/>
		</g>
		<g>
			<rect x="452.5" y="794.5" class="st2" width="3.6" height="18.6"/>
			<path d="M457.1,814.2h-5.7v-20.8h5.7V814.2z M453.5,812.1h1.5v-16.5h-1.5V812.1z"/>
		</g>
		<g>
			<circle class="st2" cx="454.4" cy="812.9" r="5.5"/>
			<path d="M454.4,819.5c-3.6,0-6.6-2.9-6.6-6.6c0-3.6,2.9-6.6,6.6-6.6c3.6,0,6.6,2.9,6.6,6.6C461,816.5,458,819.5,454.4,819.5z
				 M454.4,808.5c-2.5,0-4.4,2-4.4,4.4c0,2.5,2,4.4,4.4,4.4c2.5,0,4.4-2,4.4-4.4C458.8,810.5,456.8,808.5,454.4,808.5z"/>
		</g>
		<g>
			<path class="st2" d="M465.4,800.6c-12.1,7-27.3,3-34.3-9.1c-3.2-5.7-4.2-12.1-2.8-18l-97.4-90.4c-11.4,4.9-25,0.6-31.3-10.6
				c-7-11.9-3-27.3,8.9-34.3V515.5c-3.6-2.1-6.8-5.1-8.9-8.9c-7-12.1-3-27.3,9.1-34.3c12.1-7,27.3-3,34.3,9.1
				c7,11.9,3,27.3-8.9,34.3v122.6c3.6,2.1,6.6,5.1,8.9,8.9c2.8,4.7,3.8,10,3.2,15l99.5,92.6c10.8-3.2,22.9,1.3,28.8,11.4
				C481.3,778.4,477.3,793.6,465.4,800.6z"/>
		</g>
		<g>
			<path class="st3" d="M333.9,472.5c-10,0-12.7,11-12.7,46.8V660l150.2,135.8l5.1-7.6l1.3-10.2l-2.5-10.2l-5.1-7l-4.2-3.4l-6.4-2.8
				l-8.7-1.1l-5.3,1.1l-99.3-92.3v-7.6l-4-8.5l-8.3-8v-122l7.4-6.4l4.2-9.5l0.8-9.3l-3.6-9.7L333.9,472.5z"/>
		</g>
		<g>
			<path d="M334.9,640.2l-1.6-0.9c-7.6-4.5-17-4.5-24.3,0l-0.3,0.2h-1.6V513.9l1.6,1c7.4,4.5,16.7,4.5,24.4,0.1l1.6-1.6l0,0.7
				l5.6-3.3l-5.5,5.5V640.2z M309.3,517.6v119.1c7.3-3.8,16-3.8,23.5-0.1V517.5C325.3,521.3,316.6,521.3,309.3,517.6z"/>
		</g>
		<g>
			<path d="M321.1,520.3c-4.6,0-9.2-1.2-13.4-3.6c-4-2.4-7.2-5.6-9.3-9.3c-7.2-12.5-3-28.5,9.5-35.7c12.5-7.2,28.5-3,35.8,9.5
				c3.5,6,4.5,13,2.7,19.7c-1.8,6.7-6,12.3-12,15.9C330.3,519.1,325.7,520.3,321.1,520.3z M321,470.2c-4.1,0-8.2,1-12,3.2
				c-11.5,6.6-15.4,21.4-8.7,32.9c1.9,3.4,4.8,6.3,8.5,8.5c7.6,4.4,17,4.4,24.6,0l0,0c5.5-3.2,9.4-8.4,11-14.6
				c1.6-6.2,0.7-12.6-2.5-18.1C337.4,474.5,329.3,470.2,321,470.2z"/>
		</g>
		<g>
			<path d="M321.2,686.3c-9.1,0-17.8-4.8-22.5-13.1c-3.5-6-4.5-13-2.7-19.8c1.8-6.8,6-12.4,12-16l0.2-0.1h0.2
				c8.2-4.6,18.2-4.6,26.2,0.1c3.7,2.2,6.9,5.3,9.3,9.3c2.6,5,3.8,10.5,3.3,15.9c-0.7,8.3-5.5,15.8-12.8,20.1
				c-1.1,0.7-2,1.1-3.1,1.6C328,685.7,324.6,686.3,321.2,686.3z M308.7,639.4c-5.4,3.2-9.2,8.4-10.8,14.5
				c-1.6,6.2-0.7,12.7,2.5,18.2c6,10.5,18.9,14.9,30,10.2c1-0.4,1.8-0.8,2.8-1.4c6.8-4,11.2-10.9,11.8-18.5l0,0
				c0.4-5-0.6-10-3.1-14.7c-2.2-3.6-5.1-6.5-8.5-8.5c-7.5-4.4-16.8-4.4-24.3,0L308.7,639.4z"/>
		</g>
		<g>
			<path d="M452.8,805.1c-9,0-17.8-4.7-22.7-13c-3.3-5.9-4.3-12.3-3-18.2L329,682.7l1.6-0.6c1-0.4,1.8-0.8,2.8-1.4
				c6.6-3.9,11.2-11,11.8-18.5l0.2-2.2L446,753.7c11.4-3.1,23.5,1.8,29.4,12.1c7,12.5,2.8,28.5-9.5,35.8l0,0
				C461.8,803.9,457.3,805.1,452.8,805.1z M332.8,683.4l96.7,89.8l-0.2,0.6c-1.4,5.5-0.4,11.7,2.7,17.2c6.6,11.4,21.4,15.4,32.9,8.7
				c11.3-6.6,15.2-21.4,8.7-32.9c-5.6-9.6-16.9-14.1-27.6-10.9l-0.6,0.2l-0.4-0.4l-98-91.2c-1.3,7.4-5.8,14.1-12.5,18
				C333.8,682.8,333.3,683.1,332.8,683.4z"/>
		</g>
	</g>
	<g>
		<path d="M452.7,805.1c-14.4,0-26.1-11.7-26.1-26.1s11.7-26.1,26.1-26.1c14.4,0,26.1,11.7,26.1,26.1S467.1,805.1,452.7,805.1z
			 M452.7,755.1c-13.2,0-23.9,10.7-23.9,23.9c0,13.2,10.7,23.9,23.9,23.9c13.2,0,23.9-10.7,23.9-23.9
			C476.6,765.8,465.9,755.1,452.7,755.1z"/>
	</g>
</g>
</svg>
