<?xml version="1.0" encoding="utf-8"?>
<!-- Generator: Adobe Illustrator 23.1.0, SVG Export Plug-In . SVG Version: 6.00 Build 0)  -->
<svg version="1.1" id="Layer_1" xmlns="http://www.w3.org/2000/svg" xmlns:xlink="http://www.w3.org/1999/xlink" x="0px" y="0px"
	 viewBox="0 0 1080 1080" style="enable-background:new 0 0 1080 1080;" xml:space="preserve">
<style type="text/css">
	.st0{display:none;}
	.st1{display:inline;fill:#FFFFFF;}
	.st2{display:inline;}
	.st3{display:inline;fill:#FFFFFF;stroke:#000000;stroke-linecap:round;stroke-linejoin:round;stroke-miterlimit:10;}
	.st4{display:inline;fill:none;stroke:#000000;stroke-width:3;stroke-linecap:round;stroke-linejoin:round;stroke-miterlimit:10;}
	.st5{display:inline;fill:none;stroke:#000000;stroke-width:2;stroke-linecap:round;stroke-linejoin:round;stroke-miterlimit:10;}
	.st6{display:inline;fill:none;stroke:#000000;stroke-width:5;stroke-linecap:round;stroke-linejoin:round;stroke-miterlimit:10;}
	.st7{fill:none;stroke:#000000;stroke-width:3;stroke-linecap:round;stroke-linejoin:round;stroke-miterlimit:10;}
	.st8{fill:#FFFFFF;stroke:#000000;stroke-width:3;stroke-linecap:round;stroke-linejoin:round;stroke-miterlimit:10;}
	
		.st9{display:inline;fill:#FFFFFF;stroke:#000000;stroke-width:5;stroke-linecap:round;stroke-linejoin:round;stroke-miterlimit:10;}
	
		.st10{display:inline;fill:#FFFFFF;stroke:#000000;stroke-width:3;stroke-linecap:round;stroke-linejoin:round;stroke-miterlimit:10;}
</style>
<g class="st0">
	<path class="st1" d="M202.2,1047.6l-0.3,512.4l-14.9,65.7l7.6,34.8l15.6,31.4l34.5,23.2l12.2-0.9c0,0,1-172.3,25.8-238.7
		l-18.8-14.4c0,0-10.2-147.7-3-191.4l7.8-180.1l2.5-42.6L202.2,1047.6z"/>
	<path class="st1" d="M467.4,659.1c0,0,51.2,48.2,171.6,8.2l-15.7,50.1l-5.1,282.2l-5.1,306.2l1.8,137.9c0,0-9.9,42.1,127.3,24.8
		l90.1,6.9c0,0-214.9,100.6-518,2.6v-3.5c0,0,65.9-19.8,123.3-6.2s83.5,11.4,89.7,1.8c6.2-9.6,7.5-38,7.4-52.4
		c-0.2-14.4-7.2-146-7.2-146l-17.6-281.1l-17.9-275.2L467.4,659.1z"/>
	<path class="st2" d="M210.2,684.1c0,0-28,24.1-33.2,60.2c0,0,32.6-45,50-47.4L210.2,684.1z"/>
	<path class="st2" d="M891.7,699.6l28.1-12.6c0,0,8.5,27.1,4.4,44.1L891.7,699.6z"/>
	<path class="st1" d="M459,586c0,0-56.6,11.2-64.3,35.1s-1.7,127.1,17,139c0,0,58-57.4,80.1-44.8C491.9,715.4,448.1,639.2,459,586z"
		/>
	<path class="st1" d="M640.8,571.1c0,0,64.6,14.1,76.2,28s-10.4,137.1-26.5,169.4c0,0-54.8-49-67.2-51.1c0,0,27.4-68.7,17.2-96.2
		L640.8,571.1z"/>
	<path class="st1" d="M337.6,840.4l110.8,4v114c0,0-60.3,22-110.8-6.5V840.4z"/>
	<path class="st1" d="M640.5,840.4l110.8,4v114c0,0-60.3,22-110.8-6.5V840.4z"/>
	<path class="st1" d="M271.2,1047c0,0-107.7,0.3-128.8-13.3c0,0-13.2-287.4,84.6-336.7c0,0,55.8,38.3,64.8,149.1
		c0,0,6.3,68.6-10.4,104.7L271.2,1047z"/>
	<path class="st1" d="M891.7,699.6c0,0,67.8,24.7,62.8,188.2v140.7c0,0-47.6,23.8-141.6,2.7l-38.8-6.7l8.4-55.9
		C782.5,968.5,719.6,783.1,891.7,699.6z"/>
	<path class="st1" d="M210.2,684.1l181.3-56c0,0-5.1,120.8,20.3,132.1c0,0,55.7-61.8,80.1-44.8l26.4,405.1l14.8,268.5
		c0,0,18.1,90.7-22.7,87.7c-40.9-3-112.3-14.2-112.3-14.2l-77,10.7c0,0-65.9,24.2-59.6-36.5c0,0-3.6-269.2,5.5-351.9l14.5-134
		C281.4,950.8,333.5,768.6,210.2,684.1z"/>
	<path class="st1" d="M919.7,687c0,0-149.7-66.4-199.3-66.2c0,0-9.2,121.7-29.9,147.7c0,0-48.4-47-67.2-51.1l-7.5,412l-1.1,205.5
		l0.1,108.9c0,0-3.1,41.6,117.7,24.5l80.7,8.6l43.4-12.7l12.4-21.1l-3.2-180l-6.2-224.5l-85.5-14.2l8.4-55.9
		c0,0-33.2-100.6,16.2-186.3C848.2,696.6,919.7,687,919.7,687z"/>
	<path class="st1" d="M461.8,548.3c0,0,100,54,178.1-6.8l0.7,79.7c0,0,1.3,35.3-1.5,46.2s-114.7,35.8-171.6-8.2l-8.4-46.2
		L461.8,548.3z"/>
	<path class="st1" d="M372.8,333.1c0,0-44.2-18.9-49.4,22.5s16.6,60.7,16.6,60.7s22.3,21,43.3,0L372.8,333.1z"/>
	<path class="st1" d="M725.6,329.1c0,0,39.2-35.8,51,18.6c11.8,54.5-24.9,73.2-28.9,73.8c-4,0.6-17.3,3-30.7-7.8L725.6,329.1z"/>
	<path class="st1" d="M366.4,286.4c0,0,140.1-71.4,363.4,5.3c0,0,0.3,130.3-42.2,205.4c0,0-53.9,93.4-168.9,69.6
		S396.5,479,396.5,479L366.4,286.4z"/>
	<path class="st4" d="M729.8,291.7c-6.8,36.7-5.7,75.8-11.4,112.7c-5.7,36.9-16,74.1-38.5,103.9c-26.2,34.9-67.9,57-111.3,61.9
		c-43.4,4.8-88-7.1-124.7-30.7c-8.1-5.2-15.9-11-22.7-17.9c-26.6-27.4-32.9-68.1-37.8-106c-5.1-39.3-10.3-78.7-15.4-118l-1.7-11.2
		C366.4,286.4,494,214.8,729.8,291.7z"/>
	<path class="st4" d="M725.6,329.1c4.6-7.4,13.1-12.3,21.9-12.4c8.7-0.2,17.4,4.4,22.3,11.7c2.2,3.3,3.6,6.9,4.7,10.7
		c7.2,23.6,3.1,50.4-10.8,70.9c-2.1,3.1-4.5,6.2-7.6,8.3c-5,3.4-11.3,4.1-17.3,4.2c-8,0.1-17.4-1.5-21.3-8.6"/>
	<path class="st4" d="M369.5,333.1c-0.2-3-3.8-4.3-6.8-4.7c-8.2-1.1-17.1-1.1-24.2,3.1c-6.2,3.8-10.3,10.3-12.9,17.1
		c-7.7,19.9-4.4,43.7,8.3,60.8c5.6,7.6,13.4,14.1,22.7,15.9s20-2.3,23.9-10.9"/>
	<path class="st4" d="M371,349.8c-9-2.5-19.1-0.8-26.7,4.6c-2.8,2-5.5,4.8-5.4,8.3"/>
	<path class="st4" d="M725.4,350.7c2.6-3.1,5.3-6.1,8.5-8.4s7-4.1,11.1-4.4c5-0.4,9.9,1.5,14.4,3.8"/>
	<path class="st4" d="M744.7,341.4c2.8,3,4.4,7,5,11.1c0.6,4.1,0.3,8.2-0.2,12.3c-1,8.6-3,17.8-9.7,23.4"/>
	<path class="st4" d="M353.4,353.2c-3.2,6.1-3.9,13.4-2,20c1.6,5.4,5.2,10.5,10.6,12"/>
	<path class="st4" d="M527.8,347.7c0.5,17.5-1.9,35.5-10.5,50.8c-4.5,8-10.7,15.2-14.7,23.5c-4,8.3-5.6,18.6-0.9,26.6
		c3.5,5.9,10,9.4,16.7,10.8c6.7,1.4,13.6,0.8,20.4-0.1"/>
	<path class="st4" d="M574.3,332.7c21.9-9,46.6-7.1,70.2-5.1"/>
	<path class="st4" d="M498.8,336.1c-23.4-6.8-48.4-7.8-72.3-2.8"/>
	<path class="st4" d="M489.4,483.4c0,0,18.4,13.4,51.5,13.7s54.1-18,54.1-18"/>
	<path class="st4" d="M505.7,505.1c0,0,8.3,11.3,35.3,10.8s34.8-9.5,34.8-9.5"/>
	<line class="st5" x1="542.2" y1="515.9" x2="542.2" y2="526.6"/>
	<line class="st5" x1="550.7" y1="515.9" x2="552.4" y2="526.6"/>
	<line class="st5" x1="534.1" y1="515.7" x2="531.7" y2="526.6"/>
	<line class="st5" x1="491.9" y1="545.2" x2="485.3" y2="559.8"/>
	<line class="st5" x1="514.1" y1="551.2" x2="508.7" y2="566.7"/>
	<line class="st5" x1="536.8" y1="554" x2="534.1" y2="570.6"/>
	<line class="st5" x1="556.2" y1="553.3" x2="557.7" y2="571.1"/>
	<line class="st5" x1="574.6" y1="550.7" x2="579.1" y2="568.7"/>
	<line class="st5" x1="597" y1="546.1" x2="603.1" y2="562.6"/>
	<path class="st4" d="M461.8,549.7v71.8c0,0,23.2,33,96.6,33c73.4,0,81.5-33.3,81.5-33.3v-76"/>
	<path class="st4" d="M356.2,176.6c0,0-8.2-89.1,43.9-103.1s191.5-41.1,265.7,0s71.6,48.1,75.9,69.2s-9.4,150.6-9.4,150.6
		s-263.1-108-314.7-116.7c-51.6-8.7-121.8,11.2-119.3,65.8c2.5,54.6,70.6,62,70.6,62"/>
	<path class="st4" d="M227,696.9c-7.9,3.8-12,6.2-16.8,9.6c-45.1,32.1-55.1,136-55.1,136s-14,100.6-12.5,148.7l-0.1,42.4
		c0,0,5.9,17.3,128.8,13.3"/>
	<path class="st4" d="M467.4,659.1c19.1,13.2,47.4,25.1,90.3,25.1c38.3,0,64.2-8.9,82.1-20.5"/>
	<path class="st4" d="M904,708.5c0,0-127.3,55.4-121.3,176V950l-0.2,18.5c-16.7-15.5-13.8-88.4-13.8-88.4
		C776,735.1,919.7,687,919.7,687"/>
	<path class="st4" d="M210.2,706.5c0,0,69.2,45.4,69.2,178V959"/>
	<path class="st4" d="M162.1,1011.8c0,0,59.2,11.5,104.8,6.5"/>
	<path class="st4" d="M803.7,985.7c0,0,72.9,13.8,132.3,6.2"/>
	<path class="st4" d="M461.8,586c0,0-58.5,14.1-67,35.1c-8.6,21,3,119.3,11,136.3s47-52.1,86.1-42.1
		C491.9,715.4,447.6,641.2,461.8,586z"/>
	<path class="st4" d="M639.8,571.2c0,0,66.5,11.3,77.6,28.6c11.1,17.3-11.9,147.6-24,165.7c-12,18-46.1-51.1-70.2-48.1
		c0,0,32-82.2,16.5-103.3V571.2z"/>
	<path class="st4" d="M720.4,621.1c0,0,162.6,39.7,199.3,65.8c0,0,8.5,26.4,5.9,46"/>
	<path class="st4" d="M393,628.1c0,0-169.1,47.2-182.8,56c-13.6,8.8-30.9,36.3-36,76.1"/>
	<path class="st4" d="M613,1263.8c-0.8,93,0,167.3,1.8,179.9c6,42.1,98.4,17.9,143.2,26.6c44.8,8.7,90.6,7.6,106.3-13.4
		c16-21.4,0-159.7,1.5-193.8L849.3,1036"/>
	<path class="st4" d="M623.3,717.4c0,0-4.3,210.9-7.3,403.1l-1.3,56l-1.7,87.3"/>
	<path class="st4" d="M491.9,715.4c0,0,8.7,122.5,17.6,261.4l11.4,187.2c8.7,144.1,15.6,275.2,13.2,292.4c-6,42.1-93.7,6-143.6,6
		s-104,30.1-123.6,3c-19.6-27.1,4.1-473.9,12.5-506.3c52.1-200.8-69.2-274.9-69.2-274.9"/>
	<path class="st4" d="M782.5,968.5c0,0-2.7,34.8-8.4,55.9c0,0,151,30.6,180.4,4v-39.3l-0.2-146.5c0,0,5.8-85.9-50.3-134
		c-4.1-3.6-6.6-5.5-12.3-9"/>
	<path class="st4" d="M751.3,844.4c0,0-95.3-7.4-110.8-4c0,0,0.1,32.7,0,36.7s110.8,5.4,110.8,5.4V844.4z"/>
	<path class="st4" d="M640.5,877.2v74.7c0,0,28.7,15.8,64,15.8c35.3,0,46.8-9.3,46.8-9.3v-75.9"/>
	<path class="st4" d="M448.4,844.4c0,0-95.3-7.4-110.8-4c0,0,0.1,32.7,0,36.7s110.8,5.4,110.8,5.4V844.4z"/>
	<path class="st4" d="M337.6,877.2v74.7c0,0,28.7,15.8,64,15.8s46.8-9.3,46.8-9.3v-75.9"/>
	<path class="st4" d="M600.1,846.1c0,0-11.7,126.9-41.7,161.1"/>
	<path class="st4" d="M214.5,882.5c0,0,5,84.4,30.3,106.8"/>
	<path class="st4" d="M202.2,1047.6v359.6v149.6c-0.6,7.1-1.5,15.5-2.9,22.5c-3.7,17.8-12.8,34.7-12.2,52.9c0.3,11,4.3,21.5,9,31.5
		c3.5,7.3,7.4,14.4,11.8,21.2c2,3.1,4.1,6.1,6.7,8.7c4.3,4.3,9.8,7.1,14.8,10.5c4.2,2.9,8.2,6.2,12.8,8.5c4.6,2.3,10.1,3.4,14.8,1.6
		"/>
	<path class="st10" d="M964,1548.7c-1.1,32.8,3.6,99-9.5,104.4c-13.1,5.3-100.2,38.8-128.5,34.5c-7.5-1.1-14-10.3-19.3-23.7
		c0,0-36.7-5.7-42.9-29.7c-6.2-24-18.2-125.1,35.7-144.5c3.5-13.9,5.2-26,6.9-35.3c3.4-18.1-2.8-423.4-2.8-423.4
		c49.4,3.7,93.8,5.2,134.3,5c0,0,0,431.4,0,456.3S965.1,1516,964,1548.7z"/>
</g>
<ellipse class="st0" cx="466.9" cy="352" rx="13.8" ry="20.6"/>
<ellipse cx="604.5" cy="347.7" rx="13.8" ry="20.6"/>
</svg>
