<?xml version="1.0" encoding="utf-8"?>
<!-- Generator: Adobe Illustrator 23.1.0, SVG Export Plug-In . SVG Version: 6.00 Build 0)  -->
<svg version="1.1" xmlns="http://www.w3.org/2000/svg" xmlns:xlink="http://www.w3.org/1999/xlink" x="0px" y="0px"
	 viewBox="0 0 1000 1000" style="enable-background:new 0 0 1000 1000;" xml:space="preserve">
<style type="text/css">
	.st0{display:none;}
	.st1{display:inline;}
	.st2{fill:#FFFFFF;stroke:#000000;stroke-linecap:round;stroke-linejoin:round;stroke-miterlimit:10;}
	.st3{fill:#F0EFEF;stroke:#000000;stroke-linecap:round;stroke-linejoin:round;stroke-miterlimit:10;}
	.st4{display:inline;fill:#FFFFFF;stroke:#000000;stroke-linecap:round;stroke-linejoin:round;stroke-miterlimit:10;}
	.st5{fill:none;stroke:#000000;stroke-linecap:round;stroke-linejoin:round;stroke-miterlimit:10;}
	.st6{display:inline;fill:#F0EFEF;stroke:#000000;stroke-linecap:round;stroke-linejoin:round;stroke-miterlimit:10;}
	.st7{fill:#7F7F7F;stroke:#000000;stroke-linecap:round;stroke-linejoin:round;stroke-miterlimit:10;}
	.st8{fill:none;stroke:#7F7F7F;stroke-miterlimit:10;}
	.st9{display:inline;fill:#FFFFFF;stroke:#000000;stroke-miterlimit:10;}
	.st10{fill:#FFFFFF;}
</style>
<g id="BACKUP" class="st0">
</g>
<g id="Layer_1" class="st0">
	<g id="Net">
		<g class="st1">
			<g>
				<line class="st8" x1="-644.5" y1="-2014.4" x2="3249.8" y2="234"/>
				<line class="st8" x1="-652.7" y1="-2000.2" x2="3241.6" y2="248.2"/>
				<line class="st8" x1="-660.9" y1="-1986" x2="3233.4" y2="262.3"/>
				<line class="st8" x1="-669.1" y1="-1971.8" x2="3225.2" y2="276.5"/>
				<line class="st8" x1="-677.3" y1="-1957.6" x2="3217" y2="290.7"/>
				<line class="st8" x1="-685.4" y1="-1943.5" x2="3208.8" y2="304.9"/>
				<line class="st8" x1="-693.6" y1="-1929.3" x2="3200.6" y2="319.1"/>
				<line class="st8" x1="-701.8" y1="-1915.1" x2="3192.4" y2="333.3"/>
				<line class="st8" x1="-710" y1="-1900.9" x2="3184.2" y2="347.5"/>
				<line class="st8" x1="-718.2" y1="-1886.7" x2="3176.1" y2="361.6"/>
				<line class="st8" x1="-726.4" y1="-1872.5" x2="3167.9" y2="375.8"/>
				<line class="st8" x1="-734.6" y1="-1858.3" x2="3159.7" y2="390"/>
				<line class="st8" x1="-742.8" y1="-1844.2" x2="3151.5" y2="404.2"/>
				<line class="st8" x1="-751" y1="-1830" x2="3143.3" y2="418.4"/>
				<line class="st8" x1="-759.2" y1="-1815.8" x2="3135.1" y2="432.6"/>
				<line class="st8" x1="-767.3" y1="-1801.6" x2="3126.9" y2="446.8"/>
				<line class="st8" x1="-775.5" y1="-1787.4" x2="3118.7" y2="460.9"/>
				<line class="st8" x1="-783.7" y1="-1773.2" x2="3110.5" y2="475.1"/>
				<line class="st8" x1="-791.9" y1="-1759" x2="3102.3" y2="489.3"/>
				<line class="st8" x1="-800.1" y1="-1744.9" x2="3094.2" y2="503.5"/>
				<line class="st8" x1="-808.3" y1="-1730.7" x2="3086" y2="517.7"/>
				<line class="st8" x1="-816.5" y1="-1716.5" x2="3077.8" y2="531.9"/>
				<line class="st8" x1="-824.7" y1="-1702.3" x2="3069.6" y2="546.1"/>
				<line class="st8" x1="-832.9" y1="-1688.1" x2="3061.4" y2="560.2"/>
				<line class="st8" x1="-841.1" y1="-1673.9" x2="3053.2" y2="574.4"/>
				<line class="st8" x1="-849.3" y1="-1659.7" x2="3045" y2="588.6"/>
				<line class="st8" x1="-857.4" y1="-1645.6" x2="3036.8" y2="602.8"/>
				<line class="st8" x1="-865.6" y1="-1631.4" x2="3028.6" y2="617"/>
				<line class="st8" x1="-873.8" y1="-1617.2" x2="3020.4" y2="631.2"/>
				<line class="st8" x1="-882" y1="-1603" x2="3012.3" y2="645.4"/>
				<line class="st8" x1="-890.2" y1="-1588.8" x2="3004.1" y2="659.5"/>
				<line class="st8" x1="-898.4" y1="-1574.6" x2="2995.9" y2="673.7"/>
				<line class="st8" x1="-906.6" y1="-1560.4" x2="2987.7" y2="687.9"/>
				<line class="st8" x1="-914.8" y1="-1546.3" x2="2979.5" y2="702.1"/>
				<line class="st8" x1="-923" y1="-1532.1" x2="2971.3" y2="716.3"/>
				<line class="st8" x1="-931.2" y1="-1517.9" x2="2963.1" y2="730.5"/>
				<line class="st8" x1="-939.3" y1="-1503.7" x2="2954.9" y2="744.7"/>
				<line class="st8" x1="-947.5" y1="-1489.5" x2="2946.7" y2="758.8"/>
				<line class="st8" x1="-955.7" y1="-1475.3" x2="2938.5" y2="773"/>
				<line class="st8" x1="-963.9" y1="-1461.1" x2="2930.4" y2="787.2"/>
				<line class="st8" x1="-972.1" y1="-1447" x2="2922.2" y2="801.4"/>
				<line class="st8" x1="-980.3" y1="-1432.8" x2="2914" y2="815.6"/>
				<line class="st8" x1="-988.5" y1="-1418.6" x2="2905.8" y2="829.8"/>
				<line class="st8" x1="-996.7" y1="-1404.4" x2="2897.6" y2="844"/>
				<line class="st8" x1="-1004.9" y1="-1390.2" x2="2889.4" y2="858.1"/>
				<line class="st8" x1="-1013.1" y1="-1376" x2="2881.2" y2="872.3"/>
				<line class="st8" x1="-1021.2" y1="-1361.8" x2="2873" y2="886.5"/>
				<line class="st8" x1="-1029.4" y1="-1347.7" x2="2864.8" y2="900.7"/>
				<line class="st8" x1="-1037.6" y1="-1333.5" x2="2856.6" y2="914.9"/>
				<line class="st8" x1="-1045.8" y1="-1319.3" x2="2848.5" y2="929.1"/>
				<line class="st8" x1="-1054" y1="-1305.1" x2="2840.3" y2="943.3"/>
				<line class="st8" x1="-1062.2" y1="-1290.9" x2="2832.1" y2="957.4"/>
				<line class="st8" x1="-1070.4" y1="-1276.7" x2="2823.9" y2="971.6"/>
				<line class="st8" x1="-1078.6" y1="-1262.5" x2="2815.7" y2="985.8"/>
				<line class="st8" x1="-1086.8" y1="-1248.4" x2="2807.5" y2="1000"/>
				<line class="st8" x1="-1095" y1="-1234.2" x2="2799.3" y2="1014.2"/>
				<line class="st8" x1="-1103.1" y1="-1220" x2="2791.1" y2="1028.4"/>
				<line class="st8" x1="-1111.3" y1="-1205.8" x2="2782.9" y2="1042.6"/>
				<line class="st8" x1="-1119.5" y1="-1191.6" x2="2774.7" y2="1056.7"/>
				<line class="st8" x1="-1127.7" y1="-1177.4" x2="2766.5" y2="1070.9"/>
				<line class="st8" x1="-1135.9" y1="-1163.2" x2="2758.4" y2="1085.1"/>
				<line class="st8" x1="-1144.1" y1="-1149.1" x2="2750.2" y2="1099.3"/>
				<line class="st8" x1="-1152.3" y1="-1134.9" x2="2742" y2="1113.5"/>
				<line class="st8" x1="-1160.5" y1="-1120.7" x2="2733.8" y2="1127.7"/>
				<line class="st8" x1="-1168.7" y1="-1106.5" x2="2725.6" y2="1141.9"/>
				<line class="st8" x1="-1176.9" y1="-1092.3" x2="2717.4" y2="1156"/>
				<line class="st8" x1="-1185" y1="-1078.1" x2="2709.2" y2="1170.2"/>
				<line class="st8" x1="-1193.2" y1="-1063.9" x2="2701" y2="1184.4"/>
				<line class="st8" x1="-1201.4" y1="-1049.8" x2="2692.8" y2="1198.6"/>
				<line class="st8" x1="-1209.6" y1="-1035.6" x2="2684.6" y2="1212.8"/>
				<line class="st8" x1="-1217.8" y1="-1021.4" x2="2676.5" y2="1227"/>
				<line class="st8" x1="-1226" y1="-1007.2" x2="2668.3" y2="1241.2"/>
				<line class="st8" x1="-1234.2" y1="-993" x2="2660.1" y2="1255.3"/>
				<line class="st8" x1="-1242.4" y1="-978.8" x2="2651.9" y2="1269.5"/>
				<line class="st8" x1="-1250.6" y1="-964.6" x2="2643.7" y2="1283.7"/>
				<line class="st8" x1="-1258.8" y1="-950.5" x2="2635.5" y2="1297.9"/>
				<line class="st8" x1="-1266.9" y1="-936.3" x2="2627.3" y2="1312.1"/>
				<line class="st8" x1="-1275.1" y1="-922.1" x2="2619.1" y2="1326.3"/>
				<line class="st8" x1="-1283.3" y1="-907.9" x2="2610.9" y2="1340.5"/>
				<line class="st8" x1="-1291.5" y1="-893.7" x2="2602.7" y2="1354.6"/>
				<line class="st8" x1="-1299.7" y1="-879.5" x2="2594.6" y2="1368.8"/>
				<line class="st8" x1="-1307.9" y1="-865.3" x2="2586.4" y2="1383"/>
				<line class="st8" x1="-1316.1" y1="-851.1" x2="2578.2" y2="1397.2"/>
				<line class="st8" x1="-1324.3" y1="-837" x2="2570" y2="1411.4"/>
				<line class="st8" x1="-1332.5" y1="-822.8" x2="2561.8" y2="1425.6"/>
				<line class="st8" x1="-1340.7" y1="-808.6" x2="2553.6" y2="1439.8"/>
				<line class="st8" x1="-1348.9" y1="-794.4" x2="2545.4" y2="1453.9"/>
				<line class="st8" x1="-1357" y1="-780.2" x2="2537.2" y2="1468.1"/>
				<line class="st8" x1="-1365.2" y1="-766" x2="2529" y2="1482.3"/>
				<line class="st8" x1="-1373.4" y1="-751.8" x2="2520.8" y2="1496.5"/>
				<line class="st8" x1="-1381.6" y1="-737.7" x2="2512.7" y2="1510.7"/>
				<line class="st8" x1="-1389.8" y1="-723.5" x2="2504.5" y2="1524.9"/>
				<line class="st8" x1="-1398" y1="-709.3" x2="2496.3" y2="1539.1"/>
				<line class="st8" x1="-1406.2" y1="-695.1" x2="2488.1" y2="1553.2"/>
				<line class="st8" x1="-1414.4" y1="-680.9" x2="2479.9" y2="1567.4"/>
				<line class="st8" x1="-1422.6" y1="-666.7" x2="2471.7" y2="1581.6"/>
				<line class="st8" x1="-1430.8" y1="-652.5" x2="2463.5" y2="1595.8"/>
				<line class="st8" x1="-1438.9" y1="-638.4" x2="2455.3" y2="1610"/>
				<line class="st8" x1="-1447.1" y1="-624.2" x2="2447.1" y2="1624.2"/>
				<line class="st8" x1="-1455.3" y1="-610" x2="2438.9" y2="1638.4"/>
				<line class="st8" x1="-1463.5" y1="-595.8" x2="2430.8" y2="1652.5"/>
				<line class="st8" x1="-1471.7" y1="-581.6" x2="2422.6" y2="1666.7"/>
				<line class="st8" x1="-1479.9" y1="-567.4" x2="2414.4" y2="1680.9"/>
				<line class="st8" x1="-1488.1" y1="-553.2" x2="2406.2" y2="1695.1"/>
				<line class="st8" x1="-1496.3" y1="-539.1" x2="2398" y2="1709.3"/>
				<line class="st8" x1="-1504.5" y1="-524.9" x2="2389.8" y2="1723.5"/>
				<line class="st8" x1="-1512.7" y1="-510.7" x2="2381.6" y2="1737.7"/>
				<line class="st8" x1="-1520.8" y1="-496.5" x2="2373.4" y2="1751.8"/>
				<line class="st8" x1="-1529" y1="-482.3" x2="2365.2" y2="1766"/>
				<line class="st8" x1="-1537.2" y1="-468.1" x2="2357" y2="1780.2"/>
				<line class="st8" x1="-1545.4" y1="-453.9" x2="2348.9" y2="1794.4"/>
				<line class="st8" x1="-1553.6" y1="-439.8" x2="2340.7" y2="1808.6"/>
				<line class="st8" x1="-1561.8" y1="-425.6" x2="2332.5" y2="1822.8"/>
				<line class="st8" x1="-1570" y1="-411.4" x2="2324.3" y2="1837"/>
				<line class="st8" x1="-1578.2" y1="-397.2" x2="2316.1" y2="1851.1"/>
				<line class="st8" x1="-1586.4" y1="-383" x2="2307.9" y2="1865.3"/>
				<line class="st8" x1="-1594.6" y1="-368.8" x2="2299.7" y2="1879.5"/>
				<line class="st8" x1="-1602.7" y1="-354.6" x2="2291.5" y2="1893.7"/>
				<line class="st8" x1="-1610.9" y1="-340.5" x2="2283.3" y2="1907.9"/>
				<line class="st8" x1="-1619.1" y1="-326.3" x2="2275.1" y2="1922.1"/>
				<line class="st8" x1="-1627.3" y1="-312.1" x2="2266.9" y2="1936.3"/>
				<line class="st8" x1="-1635.5" y1="-297.9" x2="2258.8" y2="1950.5"/>
				<line class="st8" x1="-1643.7" y1="-283.7" x2="2250.6" y2="1964.6"/>
				<line class="st8" x1="-1651.9" y1="-269.5" x2="2242.4" y2="1978.8"/>
				<line class="st8" x1="-1660.1" y1="-255.3" x2="2234.2" y2="1993"/>
				<line class="st8" x1="-1668.3" y1="-241.2" x2="2226" y2="2007.2"/>
				<line class="st8" x1="-1676.5" y1="-227" x2="2217.8" y2="2021.4"/>
				<line class="st8" x1="-1684.6" y1="-212.8" x2="2209.6" y2="2035.6"/>
				<line class="st8" x1="-1692.8" y1="-198.6" x2="2201.4" y2="2049.8"/>
				<line class="st8" x1="-1701" y1="-184.4" x2="2193.2" y2="2063.9"/>
				<line class="st8" x1="-1709.2" y1="-170.2" x2="2185" y2="2078.1"/>
				<line class="st8" x1="-1717.4" y1="-156" x2="2176.9" y2="2092.3"/>
				<line class="st8" x1="-1725.6" y1="-141.9" x2="2168.7" y2="2106.5"/>
				<line class="st8" x1="-1733.8" y1="-127.7" x2="2160.5" y2="2120.7"/>
				<line class="st8" x1="-1742" y1="-113.5" x2="2152.3" y2="2134.9"/>
				<line class="st8" x1="-1750.2" y1="-99.3" x2="2144.1" y2="2149.1"/>
				<line class="st8" x1="-1758.4" y1="-85.1" x2="2135.9" y2="2163.2"/>
				<line class="st8" x1="-1766.5" y1="-70.9" x2="2127.7" y2="2177.4"/>
				<line class="st8" x1="-1774.7" y1="-56.7" x2="2119.5" y2="2191.6"/>
				<line class="st8" x1="-1782.9" y1="-42.6" x2="2111.3" y2="2205.8"/>
				<line class="st8" x1="-1791.1" y1="-28.4" x2="2103.1" y2="2220"/>
				<line class="st8" x1="-1799.3" y1="-14.2" x2="2095" y2="2234.2"/>
				<line class="st8" x1="-1807.5" y1="0" x2="2086.8" y2="2248.4"/>
				<line class="st8" x1="-1815.7" y1="14.2" x2="2078.6" y2="2262.5"/>
				<line class="st8" x1="-1823.9" y1="28.4" x2="2070.4" y2="2276.7"/>
				<line class="st8" x1="-1832.1" y1="42.6" x2="2062.2" y2="2290.9"/>
				<line class="st8" x1="-1840.3" y1="56.7" x2="2054" y2="2305.1"/>
				<line class="st8" x1="-1848.5" y1="70.9" x2="2045.8" y2="2319.3"/>
				<line class="st8" x1="-1856.6" y1="85.1" x2="2037.6" y2="2333.5"/>
				<line class="st8" x1="-1864.8" y1="99.3" x2="2029.4" y2="2347.7"/>
				<line class="st8" x1="-1873" y1="113.5" x2="2021.2" y2="2361.8"/>
				<line class="st8" x1="-1881.2" y1="127.7" x2="2013.1" y2="2376"/>
				<line class="st8" x1="-1889.4" y1="141.9" x2="2004.9" y2="2390.2"/>
				<line class="st8" x1="-1897.6" y1="156" x2="1996.7" y2="2404.4"/>
				<line class="st8" x1="-1905.8" y1="170.2" x2="1988.5" y2="2418.6"/>
				<line class="st8" x1="-1914" y1="184.4" x2="1980.3" y2="2432.8"/>
				<line class="st8" x1="-1922.2" y1="198.6" x2="1972.1" y2="2447"/>
				<line class="st8" x1="-1930.4" y1="212.8" x2="1963.9" y2="2461.1"/>
				<line class="st8" x1="-1938.5" y1="227" x2="1955.7" y2="2475.3"/>
				<line class="st8" x1="-1946.7" y1="241.2" x2="1947.5" y2="2489.5"/>
				<line class="st8" x1="-1954.9" y1="255.3" x2="1939.3" y2="2503.7"/>
				<line class="st8" x1="-1963.1" y1="269.5" x2="1931.2" y2="2517.9"/>
				<line class="st8" x1="-1971.3" y1="283.7" x2="1923" y2="2532.1"/>
				<line class="st8" x1="-1979.5" y1="297.9" x2="1914.8" y2="2546.3"/>
				<line class="st8" x1="-1987.7" y1="312.1" x2="1906.6" y2="2560.4"/>
				<line class="st8" x1="-1995.9" y1="326.3" x2="1898.4" y2="2574.6"/>
				<line class="st8" x1="-2004.1" y1="340.5" x2="1890.2" y2="2588.8"/>
				<line class="st8" x1="-2012.3" y1="354.6" x2="1882" y2="2603"/>
				<line class="st8" x1="-2020.4" y1="368.8" x2="1873.8" y2="2617.2"/>
				<line class="st8" x1="-2028.6" y1="383" x2="1865.6" y2="2631.4"/>
				<line class="st8" x1="-2036.8" y1="397.2" x2="1857.4" y2="2645.6"/>
				<line class="st8" x1="-2045" y1="411.4" x2="1849.3" y2="2659.7"/>
				<line class="st8" x1="-2053.2" y1="425.6" x2="1841.1" y2="2673.9"/>
				<line class="st8" x1="-2061.4" y1="439.8" x2="1832.9" y2="2688.1"/>
				<line class="st8" x1="-2069.6" y1="453.9" x2="1824.7" y2="2702.3"/>
				<line class="st8" x1="-2077.8" y1="468.1" x2="1816.5" y2="2716.5"/>
				<line class="st8" x1="-2086" y1="482.3" x2="1808.3" y2="2730.7"/>
				<line class="st8" x1="-2094.2" y1="496.5" x2="1800.1" y2="2744.9"/>
				<line class="st8" x1="-2102.3" y1="510.7" x2="1791.9" y2="2759"/>
				<line class="st8" x1="-2110.5" y1="524.9" x2="1783.7" y2="2773.2"/>
				<line class="st8" x1="-2118.7" y1="539.1" x2="1775.5" y2="2787.4"/>
				<line class="st8" x1="-2126.9" y1="553.2" x2="1767.3" y2="2801.6"/>
				<line class="st8" x1="-2135.1" y1="567.4" x2="1759.2" y2="2815.8"/>
				<line class="st8" x1="-2143.3" y1="581.6" x2="1751" y2="2830"/>
				<line class="st8" x1="-2151.5" y1="595.8" x2="1742.8" y2="2844.2"/>
				<line class="st8" x1="-2159.7" y1="610" x2="1734.6" y2="2858.3"/>
				<line class="st8" x1="-2167.9" y1="624.2" x2="1726.4" y2="2872.5"/>
				<line class="st8" x1="-2176.1" y1="638.4" x2="1718.2" y2="2886.7"/>
				<line class="st8" x1="-2184.2" y1="652.5" x2="1710" y2="2900.9"/>
				<line class="st8" x1="-2192.4" y1="666.7" x2="1701.8" y2="2915.1"/>
				<line class="st8" x1="-2200.6" y1="680.9" x2="1693.6" y2="2929.3"/>
				<line class="st8" x1="-2208.8" y1="695.1" x2="1685.4" y2="2943.5"/>
				<line class="st8" x1="-2217" y1="709.3" x2="1677.3" y2="2957.6"/>
				<line class="st8" x1="-2225.2" y1="723.5" x2="1669.1" y2="2971.8"/>
				<line class="st8" x1="-2233.4" y1="737.7" x2="1660.9" y2="2986"/>
				<line class="st8" x1="-2241.6" y1="751.8" x2="1652.7" y2="3000.2"/>
				<line class="st8" x1="-2249.8" y1="766" x2="1644.5" y2="3014.4"/>
			</g>
			<g>
				<line class="st8" x1="3249.8" y1="766" x2="-644.5" y2="3014.4"/>
				<line class="st8" x1="3241.6" y1="751.8" x2="-652.7" y2="3000.2"/>
				<line class="st8" x1="3233.4" y1="737.7" x2="-660.9" y2="2986"/>
				<line class="st8" x1="3225.2" y1="723.5" x2="-669.1" y2="2971.8"/>
				<line class="st8" x1="3217" y1="709.3" x2="-677.3" y2="2957.6"/>
				<line class="st8" x1="3208.8" y1="695.1" x2="-685.4" y2="2943.5"/>
				<line class="st8" x1="3200.6" y1="680.9" x2="-693.6" y2="2929.3"/>
				<line class="st8" x1="3192.4" y1="666.7" x2="-701.8" y2="2915.1"/>
				<line class="st8" x1="3184.2" y1="652.5" x2="-710" y2="2900.9"/>
				<line class="st8" x1="3176.1" y1="638.4" x2="-718.2" y2="2886.7"/>
				<line class="st8" x1="3167.9" y1="624.2" x2="-726.4" y2="2872.5"/>
				<line class="st8" x1="3159.7" y1="610" x2="-734.6" y2="2858.3"/>
				<line class="st8" x1="3151.5" y1="595.8" x2="-742.8" y2="2844.2"/>
				<line class="st8" x1="3143.3" y1="581.6" x2="-751" y2="2830"/>
				<line class="st8" x1="3135.1" y1="567.4" x2="-759.2" y2="2815.8"/>
				<line class="st8" x1="3126.9" y1="553.2" x2="-767.3" y2="2801.6"/>
				<line class="st8" x1="3118.7" y1="539.1" x2="-775.5" y2="2787.4"/>
				<line class="st8" x1="3110.5" y1="524.9" x2="-783.7" y2="2773.2"/>
				<line class="st8" x1="3102.3" y1="510.7" x2="-791.9" y2="2759"/>
				<line class="st8" x1="3094.2" y1="496.5" x2="-800.1" y2="2744.9"/>
				<line class="st8" x1="3086" y1="482.3" x2="-808.3" y2="2730.7"/>
				<line class="st8" x1="3077.8" y1="468.1" x2="-816.5" y2="2716.5"/>
				<line class="st8" x1="3069.6" y1="453.9" x2="-824.7" y2="2702.3"/>
				<line class="st8" x1="3061.4" y1="439.8" x2="-832.9" y2="2688.1"/>
				<line class="st8" x1="3053.2" y1="425.6" x2="-841.1" y2="2673.9"/>
				<line class="st8" x1="3045" y1="411.4" x2="-849.3" y2="2659.7"/>
				<line class="st8" x1="3036.8" y1="397.2" x2="-857.4" y2="2645.6"/>
				<line class="st8" x1="3028.6" y1="383" x2="-865.6" y2="2631.4"/>
				<line class="st8" x1="3020.4" y1="368.8" x2="-873.8" y2="2617.2"/>
				<line class="st8" x1="3012.3" y1="354.6" x2="-882" y2="2603"/>
				<line class="st8" x1="3004.1" y1="340.5" x2="-890.2" y2="2588.8"/>
				<line class="st8" x1="2995.9" y1="326.3" x2="-898.4" y2="2574.6"/>
				<line class="st8" x1="2987.7" y1="312.1" x2="-906.6" y2="2560.4"/>
				<line class="st8" x1="2979.5" y1="297.9" x2="-914.8" y2="2546.3"/>
				<line class="st8" x1="2971.3" y1="283.7" x2="-923" y2="2532.1"/>
				<line class="st8" x1="2963.1" y1="269.5" x2="-931.2" y2="2517.9"/>
				<line class="st8" x1="2954.9" y1="255.3" x2="-939.3" y2="2503.7"/>
				<line class="st8" x1="2946.7" y1="241.2" x2="-947.5" y2="2489.5"/>
				<line class="st8" x1="2938.5" y1="227" x2="-955.7" y2="2475.3"/>
				<line class="st8" x1="2930.4" y1="212.8" x2="-963.9" y2="2461.1"/>
				<line class="st8" x1="2922.2" y1="198.6" x2="-972.1" y2="2447"/>
				<line class="st8" x1="2914" y1="184.4" x2="-980.3" y2="2432.8"/>
				<line class="st8" x1="2905.8" y1="170.2" x2="-988.5" y2="2418.6"/>
				<line class="st8" x1="2897.6" y1="156" x2="-996.7" y2="2404.4"/>
				<line class="st8" x1="2889.4" y1="141.9" x2="-1004.9" y2="2390.2"/>
				<line class="st8" x1="2881.2" y1="127.7" x2="-1013.1" y2="2376"/>
				<line class="st8" x1="2873" y1="113.5" x2="-1021.2" y2="2361.8"/>
				<line class="st8" x1="2864.8" y1="99.3" x2="-1029.4" y2="2347.7"/>
				<line class="st8" x1="2856.6" y1="85.1" x2="-1037.6" y2="2333.5"/>
				<line class="st8" x1="2848.5" y1="70.9" x2="-1045.8" y2="2319.3"/>
				<line class="st8" x1="2840.3" y1="56.7" x2="-1054" y2="2305.1"/>
				<line class="st8" x1="2832.1" y1="42.6" x2="-1062.2" y2="2290.9"/>
				<line class="st8" x1="2823.9" y1="28.4" x2="-1070.4" y2="2276.7"/>
				<line class="st8" x1="2815.7" y1="14.2" x2="-1078.6" y2="2262.5"/>
				<line class="st8" x1="2807.5" y1="0" x2="-1086.8" y2="2248.4"/>
				<line class="st8" x1="2799.3" y1="-14.2" x2="-1095" y2="2234.2"/>
				<line class="st8" x1="2791.1" y1="-28.4" x2="-1103.1" y2="2220"/>
				<line class="st8" x1="2782.9" y1="-42.6" x2="-1111.3" y2="2205.8"/>
				<line class="st8" x1="2774.7" y1="-56.7" x2="-1119.5" y2="2191.6"/>
				<line class="st8" x1="2766.5" y1="-70.9" x2="-1127.7" y2="2177.4"/>
				<line class="st8" x1="2758.4" y1="-85.1" x2="-1135.9" y2="2163.2"/>
				<line class="st8" x1="2750.2" y1="-99.3" x2="-1144.1" y2="2149.1"/>
				<line class="st8" x1="2742" y1="-113.5" x2="-1152.3" y2="2134.9"/>
				<line class="st8" x1="2733.8" y1="-127.7" x2="-1160.5" y2="2120.7"/>
				<line class="st8" x1="2725.6" y1="-141.9" x2="-1168.7" y2="2106.5"/>
				<line class="st8" x1="2717.4" y1="-156" x2="-1176.9" y2="2092.3"/>
				<line class="st8" x1="2709.2" y1="-170.2" x2="-1185" y2="2078.1"/>
				<line class="st8" x1="2701" y1="-184.4" x2="-1193.2" y2="2063.9"/>
				<line class="st8" x1="2692.8" y1="-198.6" x2="-1201.4" y2="2049.8"/>
				<line class="st8" x1="2684.6" y1="-212.8" x2="-1209.6" y2="2035.6"/>
				<line class="st8" x1="2676.5" y1="-227" x2="-1217.8" y2="2021.4"/>
				<line class="st8" x1="2668.3" y1="-241.2" x2="-1226" y2="2007.2"/>
				<line class="st8" x1="2660.1" y1="-255.3" x2="-1234.2" y2="1993"/>
				<line class="st8" x1="2651.9" y1="-269.5" x2="-1242.4" y2="1978.8"/>
				<line class="st8" x1="2643.7" y1="-283.7" x2="-1250.6" y2="1964.6"/>
				<line class="st8" x1="2635.5" y1="-297.9" x2="-1258.8" y2="1950.5"/>
				<line class="st8" x1="2627.3" y1="-312.1" x2="-1266.9" y2="1936.3"/>
				<line class="st8" x1="2619.1" y1="-326.3" x2="-1275.1" y2="1922.1"/>
				<line class="st8" x1="2610.9" y1="-340.5" x2="-1283.3" y2="1907.9"/>
				<line class="st8" x1="2602.7" y1="-354.6" x2="-1291.5" y2="1893.7"/>
				<line class="st8" x1="2594.6" y1="-368.8" x2="-1299.7" y2="1879.5"/>
				<line class="st8" x1="2586.4" y1="-383" x2="-1307.9" y2="1865.3"/>
				<line class="st8" x1="2578.2" y1="-397.2" x2="-1316.1" y2="1851.1"/>
				<line class="st8" x1="2570" y1="-411.4" x2="-1324.3" y2="1837"/>
				<line class="st8" x1="2561.8" y1="-425.6" x2="-1332.5" y2="1822.8"/>
				<line class="st8" x1="2553.6" y1="-439.8" x2="-1340.7" y2="1808.6"/>
				<line class="st8" x1="2545.4" y1="-453.9" x2="-1348.9" y2="1794.4"/>
				<line class="st8" x1="2537.2" y1="-468.1" x2="-1357" y2="1780.2"/>
				<line class="st8" x1="2529" y1="-482.3" x2="-1365.2" y2="1766"/>
				<line class="st8" x1="2520.8" y1="-496.5" x2="-1373.4" y2="1751.8"/>
				<line class="st8" x1="2512.7" y1="-510.7" x2="-1381.6" y2="1737.7"/>
				<line class="st8" x1="2504.5" y1="-524.9" x2="-1389.8" y2="1723.5"/>
				<line class="st8" x1="2496.3" y1="-539.1" x2="-1398" y2="1709.3"/>
				<line class="st8" x1="2488.1" y1="-553.2" x2="-1406.2" y2="1695.1"/>
				<line class="st8" x1="2479.9" y1="-567.4" x2="-1414.4" y2="1680.9"/>
				<line class="st8" x1="2471.7" y1="-581.6" x2="-1422.6" y2="1666.7"/>
				<line class="st8" x1="2463.5" y1="-595.8" x2="-1430.8" y2="1652.5"/>
				<line class="st8" x1="2455.3" y1="-610" x2="-1438.9" y2="1638.4"/>
				<line class="st8" x1="2447.1" y1="-624.2" x2="-1447.1" y2="1624.2"/>
				<line class="st8" x1="2438.9" y1="-638.4" x2="-1455.3" y2="1610"/>
				<line class="st8" x1="2430.8" y1="-652.5" x2="-1463.5" y2="1595.8"/>
				<line class="st8" x1="2422.6" y1="-666.7" x2="-1471.7" y2="1581.6"/>
				<line class="st8" x1="2414.4" y1="-680.9" x2="-1479.9" y2="1567.4"/>
				<line class="st8" x1="2406.2" y1="-695.1" x2="-1488.1" y2="1553.2"/>
				<line class="st8" x1="2398" y1="-709.3" x2="-1496.3" y2="1539.1"/>
				<line class="st8" x1="2389.8" y1="-723.5" x2="-1504.5" y2="1524.9"/>
				<line class="st8" x1="2381.6" y1="-737.7" x2="-1512.7" y2="1510.7"/>
				<line class="st8" x1="2373.4" y1="-751.8" x2="-1520.8" y2="1496.5"/>
				<line class="st8" x1="2365.2" y1="-766" x2="-1529" y2="1482.3"/>
				<line class="st8" x1="2357" y1="-780.2" x2="-1537.2" y2="1468.1"/>
				<line class="st8" x1="2348.9" y1="-794.4" x2="-1545.4" y2="1453.9"/>
				<line class="st8" x1="2340.7" y1="-808.6" x2="-1553.6" y2="1439.8"/>
				<line class="st8" x1="2332.5" y1="-822.8" x2="-1561.8" y2="1425.6"/>
				<line class="st8" x1="2324.3" y1="-837" x2="-1570" y2="1411.4"/>
				<line class="st8" x1="2316.1" y1="-851.1" x2="-1578.2" y2="1397.2"/>
				<line class="st8" x1="2307.9" y1="-865.3" x2="-1586.4" y2="1383"/>
				<line class="st8" x1="2299.7" y1="-879.5" x2="-1594.6" y2="1368.8"/>
				<line class="st8" x1="2291.5" y1="-893.7" x2="-1602.7" y2="1354.6"/>
				<line class="st8" x1="2283.3" y1="-907.9" x2="-1610.9" y2="1340.5"/>
				<line class="st8" x1="2275.1" y1="-922.1" x2="-1619.1" y2="1326.3"/>
				<line class="st8" x1="2266.9" y1="-936.3" x2="-1627.3" y2="1312.1"/>
				<line class="st8" x1="2258.8" y1="-950.5" x2="-1635.5" y2="1297.9"/>
				<line class="st8" x1="2250.6" y1="-964.6" x2="-1643.7" y2="1283.7"/>
				<line class="st8" x1="2242.4" y1="-978.8" x2="-1651.9" y2="1269.5"/>
				<line class="st8" x1="2234.2" y1="-993" x2="-1660.1" y2="1255.3"/>
				<line class="st8" x1="2226" y1="-1007.2" x2="-1668.3" y2="1241.2"/>
				<line class="st8" x1="2217.8" y1="-1021.4" x2="-1676.5" y2="1227"/>
				<line class="st8" x1="2209.6" y1="-1035.6" x2="-1684.6" y2="1212.8"/>
				<line class="st8" x1="2201.4" y1="-1049.8" x2="-1692.8" y2="1198.6"/>
				<line class="st8" x1="2193.2" y1="-1063.9" x2="-1701" y2="1184.4"/>
				<line class="st8" x1="2185" y1="-1078.1" x2="-1709.2" y2="1170.2"/>
				<line class="st8" x1="2176.9" y1="-1092.3" x2="-1717.4" y2="1156"/>
				<line class="st8" x1="2168.7" y1="-1106.5" x2="-1725.6" y2="1141.9"/>
				<line class="st8" x1="2160.5" y1="-1120.7" x2="-1733.8" y2="1127.7"/>
				<line class="st8" x1="2152.3" y1="-1134.9" x2="-1742" y2="1113.5"/>
				<line class="st8" x1="2144.1" y1="-1149.1" x2="-1750.2" y2="1099.3"/>
				<line class="st8" x1="2135.9" y1="-1163.2" x2="-1758.4" y2="1085.1"/>
				<line class="st8" x1="2127.7" y1="-1177.4" x2="-1766.5" y2="1070.9"/>
				<line class="st8" x1="2119.5" y1="-1191.6" x2="-1774.7" y2="1056.7"/>
				<line class="st8" x1="2111.3" y1="-1205.8" x2="-1782.9" y2="1042.6"/>
				<line class="st8" x1="2103.1" y1="-1220" x2="-1791.1" y2="1028.4"/>
				<line class="st8" x1="2095" y1="-1234.2" x2="-1799.3" y2="1014.2"/>
				<line class="st8" x1="2086.8" y1="-1248.4" x2="-1807.5" y2="1000"/>
				<line class="st8" x1="2078.6" y1="-1262.5" x2="-1815.7" y2="985.8"/>
				<line class="st8" x1="2070.4" y1="-1276.7" x2="-1823.9" y2="971.6"/>
				<line class="st8" x1="2062.2" y1="-1290.9" x2="-1832.1" y2="957.4"/>
				<line class="st8" x1="2054" y1="-1305.1" x2="-1840.3" y2="943.3"/>
				<line class="st8" x1="2045.8" y1="-1319.3" x2="-1848.5" y2="929.1"/>
				<line class="st8" x1="2037.6" y1="-1333.5" x2="-1856.6" y2="914.9"/>
				<line class="st8" x1="2029.4" y1="-1347.7" x2="-1864.8" y2="900.7"/>
				<line class="st8" x1="2021.2" y1="-1361.8" x2="-1873" y2="886.5"/>
				<line class="st8" x1="2013.1" y1="-1376" x2="-1881.2" y2="872.3"/>
				<line class="st8" x1="2004.9" y1="-1390.2" x2="-1889.4" y2="858.1"/>
				<line class="st8" x1="1996.7" y1="-1404.4" x2="-1897.6" y2="844"/>
				<line class="st8" x1="1988.5" y1="-1418.6" x2="-1905.8" y2="829.8"/>
				<line class="st8" x1="1980.3" y1="-1432.8" x2="-1914" y2="815.6"/>
				<line class="st8" x1="1972.1" y1="-1447" x2="-1922.2" y2="801.4"/>
				<line class="st8" x1="1963.9" y1="-1461.1" x2="-1930.4" y2="787.2"/>
				<line class="st8" x1="1955.7" y1="-1475.3" x2="-1938.5" y2="773"/>
				<line class="st8" x1="1947.5" y1="-1489.5" x2="-1946.7" y2="758.8"/>
				<line class="st8" x1="1939.3" y1="-1503.7" x2="-1954.9" y2="744.7"/>
				<line class="st8" x1="1931.2" y1="-1517.9" x2="-1963.1" y2="730.5"/>
				<line class="st8" x1="1923" y1="-1532.1" x2="-1971.3" y2="716.3"/>
				<line class="st8" x1="1914.8" y1="-1546.3" x2="-1979.5" y2="702.1"/>
				<line class="st8" x1="1906.6" y1="-1560.4" x2="-1987.7" y2="687.9"/>
				<line class="st8" x1="1898.4" y1="-1574.6" x2="-1995.9" y2="673.7"/>
				<line class="st8" x1="1890.2" y1="-1588.8" x2="-2004.1" y2="659.5"/>
				<line class="st8" x1="1882" y1="-1603" x2="-2012.3" y2="645.4"/>
				<line class="st8" x1="1873.8" y1="-1617.2" x2="-2020.4" y2="631.2"/>
				<line class="st8" x1="1865.6" y1="-1631.4" x2="-2028.6" y2="617"/>
				<line class="st8" x1="1857.4" y1="-1645.6" x2="-2036.8" y2="602.8"/>
				<line class="st8" x1="1849.3" y1="-1659.7" x2="-2045" y2="588.6"/>
				<line class="st8" x1="1841.1" y1="-1673.9" x2="-2053.2" y2="574.4"/>
				<line class="st8" x1="1832.9" y1="-1688.1" x2="-2061.4" y2="560.2"/>
				<line class="st8" x1="1824.7" y1="-1702.3" x2="-2069.6" y2="546.1"/>
				<line class="st8" x1="1816.5" y1="-1716.5" x2="-2077.8" y2="531.9"/>
				<line class="st8" x1="1808.3" y1="-1730.7" x2="-2086" y2="517.7"/>
				<line class="st8" x1="1800.1" y1="-1744.9" x2="-2094.2" y2="503.5"/>
				<line class="st8" x1="1791.9" y1="-1759" x2="-2102.3" y2="489.3"/>
				<line class="st8" x1="1783.7" y1="-1773.2" x2="-2110.5" y2="475.1"/>
				<line class="st8" x1="1775.5" y1="-1787.4" x2="-2118.7" y2="460.9"/>
				<line class="st8" x1="1767.3" y1="-1801.6" x2="-2126.9" y2="446.8"/>
				<line class="st8" x1="1759.2" y1="-1815.8" x2="-2135.1" y2="432.6"/>
				<line class="st8" x1="1751" y1="-1830" x2="-2143.3" y2="418.4"/>
				<line class="st8" x1="1742.8" y1="-1844.2" x2="-2151.5" y2="404.2"/>
				<line class="st8" x1="1734.6" y1="-1858.3" x2="-2159.7" y2="390"/>
				<line class="st8" x1="1726.4" y1="-1872.5" x2="-2167.9" y2="375.8"/>
				<line class="st8" x1="1718.2" y1="-1886.7" x2="-2176.1" y2="361.6"/>
				<line class="st8" x1="1710" y1="-1900.9" x2="-2184.2" y2="347.5"/>
				<line class="st8" x1="1701.8" y1="-1915.1" x2="-2192.4" y2="333.3"/>
				<line class="st8" x1="1693.6" y1="-1929.3" x2="-2200.6" y2="319.1"/>
				<line class="st8" x1="1685.4" y1="-1943.5" x2="-2208.8" y2="304.9"/>
				<line class="st8" x1="1677.3" y1="-1957.6" x2="-2217" y2="290.7"/>
				<line class="st8" x1="1669.1" y1="-1971.8" x2="-2225.2" y2="276.5"/>
				<line class="st8" x1="1660.9" y1="-1986" x2="-2233.4" y2="262.3"/>
				<line class="st8" x1="1652.7" y1="-2000.2" x2="-2241.6" y2="248.2"/>
				<line class="st8" x1="1644.5" y1="-2014.4" x2="-2249.8" y2="234"/>
			</g>
		</g>
	</g>
	<g>
		<polygon class="st4" points="287.1,452.7 319.8,471.6 352.6,452.7 319.8,433.8 		"/>
		<polygon class="st4" points="287.1,452.7 287.1,471.6 319.8,490.5 319.8,471.6 		"/>
		<polygon class="st4" points="352.6,452.7 352.6,471.6 319.8,490.5 319.8,471.6 		"/>
		<polygon class="st4" points="287.1,339.2 319.8,358.1 352.6,339.2 319.8,320.3 		"/>
		<polygon class="st4" points="287.1,339.2 287.1,358.1 319.8,377.1 319.8,358.1 		"/>
		<polygon class="st4" points="352.6,339.2 352.6,358.1 319.8,377.1 319.8,358.1 		"/>
		<polygon class="st4" points="500,216.3 532.8,235.2 565.5,216.3 532.8,197.4 		"/>
		<polygon class="st4" points="500,216.3 500,235.2 532.8,254.1 532.8,235.2 		"/>
		<polygon class="st4" points="565.5,216.3 565.5,235.2 532.8,254.1 532.8,235.2 		"/>
		<polygon class="st4" points="712.9,339.2 745.7,358.1 778.5,339.2 745.7,320.3 		"/>
		<polygon class="st4" points="712.9,339.2 712.9,358.1 745.7,377.1 745.7,358.1 		"/>
		<polygon class="st4" points="778.5,339.2 778.5,358.1 745.7,377.1 745.7,358.1 		"/>
		<polygon class="st4" points="532.8,556.7 565.5,575.7 532.8,594.6 500,575.7 		"/>
		<polygon class="st4" points="500,575.7 500,594.6 532.8,613.5 532.8,594.6 		"/>
		<polygon class="st4" points="532.8,613.5 565.5,594.6 565.5,575.7 532.8,594.6 		"/>
		<polygon class="st4" points="532.8,348.7 500,329.8 532.8,310.9 565.5,329.8 		"/>
		<polygon class="st4" points="500,329.8 500,348.7 532.8,367.6 532.8,348.7 		"/>
		<polygon class="st4" points="565.5,329.8 532.8,348.7 532.8,367.6 565.5,348.7 		"/>
		<polygon class="st4" points="745.7,471.6 778.5,452.7 745.7,433.8 712.9,452.7 		"/>
		<polygon class="st4" points="712.9,452.7 712.9,471.6 745.7,490.5 745.7,471.6 		"/>
		<polygon class="st4" points="745.7,490.5 778.5,471.6 778.5,452.7 745.7,471.6 		"/>
		<polygon class="st4" points="319.8,471.6 352.6,452.7 532.8,556.7 500,575.7 		"/>
		<polygon class="st4" points="319.8,433.8 500,329.8 532.8,348.7 352.6,452.7 		"/>
		<polygon class="st4" points="532.8,556.7 712.9,452.7 745.7,471.6 565.5,575.7 		"/>
		<polygon class="st4" points="532.8,348.7 712.9,452.7 745.7,433.8 565.5,329.8 		"/>
		<polygon class="st4" points="352.6,452.7 532.8,348.7 712.9,452.7 532.8,556.7 		"/>
		<polygon class="st4" points="287.1,358.1 287.1,452.7 319.8,471.6 319.8,377.1 		"/>
		<polygon class="st4" points="352.6,358.1 319.8,377.1 319.8,471.6 352.6,452.7 		"/>
		<polygon class="st4" points="295.2,254.1 319.8,268.3 344.4,254.1 319.8,239.9 		"/>
		<polygon class="st4" points="295.2,254.1 295.2,268.3 319.8,282.5 319.8,268.3 		"/>
		<polygon class="st4" points="344.4,254.1 344.4,268.3 319.8,282.5 319.8,268.3 		"/>
		<polygon class="st4" points="295.2,268.3 295.2,339.2 319.8,353.4 319.8,282.5 		"/>
		<polygon class="st4" points="344.4,268.3 319.8,282.5 319.8,353.4 344.4,339.2 		"/>
		<polygon class="st4" points="500,235.2 500,329.8 532.8,348.7 532.8,254.1 		"/>
		<polygon class="st4" points="565.5,235.2 532.8,254.1 532.8,348.7 565.5,329.8 		"/>
		<polygon class="st4" points="712.9,358.1 712.9,452.7 745.7,471.6 745.7,377.1 		"/>
		<polygon class="st4" points="778.5,358.1 745.7,377.1 745.7,471.6 778.5,452.7 		"/>
		<polygon class="st4" points="500,462.2 532.8,481.1 565.5,462.2 532.8,443.3 		"/>
		<polygon class="st4" points="500,462.2 500,481.1 532.8,500 532.8,481.1 		"/>
		<polygon class="st4" points="565.5,462.2 565.5,481.1 532.8,500 532.8,481.1 		"/>
		<polygon class="st4" points="500,481.1 500,575.7 532.8,594.6 532.8,500 		"/>
		<polygon class="st4" points="565.5,481.1 532.8,500 532.8,594.6 565.5,575.7 		"/>
	</g>
	<g>
		<g class="st1">
			<polygon class="st2" points="500,235.2 500,405.4 532.8,424.3 532.8,254.1 			"/>
			<polygon class="st2" points="565.5,235.2 565.5,405.4 532.8,424.3 532.8,254.1 			"/>
		</g>
		<polygon class="st4" points="565.5,235.2 532.8,216.3 500,235.2 532.8,254.1 		"/>
	</g>
</g>
<g id="BG" class="st0">
	<g id="Layer_367" class="st1">
		<rect class="st10" width="1000" height="1000"/>
	</g>
</g>
<g id="Ground_x5F_1">
	<g id="Layer_5">
		<polygon class="st3" points="25,679.7 500,953.9 975,679.7 500,405.4 		"/>
	</g>
	<g id="Layer_4">
		<polygon class="st2" points="25,679.7 25,698.6 500,972.9 500,953.9 		"/>
	</g>
	<g id="Layer_3">
		<polygon class="st2" points="975,679.7 975,698.6 500,972.9 500,953.9 		"/>
	</g>
</g>
<g id="Ground_x5F_2">
	<g id="Foot_x5F_1">
		<g id="Layer_21">
			<polygon class="st2" points="57.7,585.1 41.4,613.5 57.7,622.9 			"/>
		</g>
		<g id="Layer_19">
			<polygon class="st2" points="41.4,632.4 41.4,689.1 74.1,708.1 74.1,651.3 			"/>
		</g>
		<g id="Layer_18">
			<polygon class="st2" points="41.4,613.5 41.4,632.4 46.8,616.6 			"/>
		</g>
		<g id="Layer_17">
			<polygon class="st3" points="74.1,651.3 74.1,708.1 90.5,698.6 90.5,641.9 			"/>
		</g>
		<g id="Layer_16">
			<polygon class="st2" points="90.5,641.9 90.5,698.6 106.9,708.1 106.9,651.3 			"/>
		</g>
		<g id="Layer_15">
			<polygon class="st3" points="57.7,585.1 90.5,566.2 90.5,604 			"/>
		</g>
		<g id="Layer_14">
			<polygon class="st2" points="90.5,604 123.2,622.9 90.5,641.9 			"/>
		</g>
		<g id="Layer_13">
			<polygon class="st2" points="90.5,604 106.9,594.6 139.6,613.5 123.2,622.9 			"/>
		</g>
		<g id="Layer_12">
			<polygon class="st2" points="106.9,651.3 139.6,632.4 123.2,622.9 90.5,641.9 			"/>
		</g>
		<g id="Layer_11">
			<polygon class="st3" points="139.6,632.4 139.6,689.1 106.9,708.1 106.9,651.3 			"/>
		</g>
		<g id="Layer_10">
			<polygon class="st3" points="139.6,613.5 139.6,632.4 123.2,622.9 			"/>
		</g>
	</g>
	<g id="Foot_x5F_2">
		<g id="Layer_25">
			<polygon class="st2" points="172.4,708.1 172.4,764.8 221.5,793.2 221.5,736.4 			"/>
		</g>
		<g id="Layer_24">
			<polygon class="st3" points="287.1,698.6 287.1,755.3 237.9,783.7 221.5,793.2 221.5,736.4 237.9,727 			"/>
		</g>
		<g id="Layer_23">
			<polygon class="st2" points="237.9,727 287.1,698.6 237.9,670.2 221.5,679.7 237.9,689.1 			"/>
		</g>
	</g>
	<g id="Foot_x5F_3">
		<g id="Layer_30">
			<polygon class="st2" points="303.4,783.7 303.4,840.5 352.6,868.8 352.6,812.1 			"/>
		</g>
		<g id="Layer_29">
			<polygon class="st3" points="418.1,774.3 418.1,831 369,859.4 352.6,868.8 352.6,812.1 369,802.6 			"/>
		</g>
		<g id="Layer_28">
			<polygon class="st2" points="369,802.6 418.1,774.3 369,745.9 352.6,755.3 369,764.8 			"/>
		</g>
	</g>
	<g id="Foot_x5F_4">
		<g id="Layer_36">
			<polygon class="st2" points="450.9,868.8 450.9,925.6 483.6,944.5 483.6,887.7 			"/>
		</g>
		<g id="Layer_35">
			<polygon class="st3" points="483.6,887.7 483.6,944.5 500,935 500,878.3 			"/>
		</g>
		<g id="Layer_34">
			<polygon class="st3" points="549.1,868.8 549.1,925.6 516.4,944.5 516.4,887.7 			"/>
		</g>
		<g id="Layer_33">
			<polygon class="st2" points="516.4,887.7 516.4,944.5 500,935 500,878.3 			"/>
		</g>
	</g>
	<g id="Foot_x5F_5">
		<g id="Layer_42">
			<polygon class="st3" points="696.6,783.7 696.6,840.5 647.4,868.8 647.4,812.1 			"/>
		</g>
		<g id="Layer_41">
			<polygon class="st2" points="581.9,774.2 581.9,831 631,859.4 647.4,868.8 647.4,812.1 631,802.6 			"/>
		</g>
		<g id="Layer_40">
			<polygon class="st2" points="631,802.6 581.9,774.3 631,745.9 647.4,755.3 631,764.8 			"/>
		</g>
	</g>
	<g id="Foot_x5F_6">
		<g id="Layer_47">
			<polygon class="st3" points="827.6,708.1 827.6,764.8 778.5,793.2 778.5,736.4 			"/>
		</g>
		<g id="Layer_46">
			<polygon class="st2" points="712.9,698.6 712.9,755.3 762.1,783.7 778.5,793.2 778.5,736.4 762.1,727 			"/>
		</g>
		<g id="Layer_45">
			<polygon class="st2" points="762.1,727 712.9,698.6 762.1,670.2 778.5,679.7 762.1,689.1 			"/>
		</g>
	</g>
	<g id="Foot_x5F_7">
		<g id="Layer_61">
			<polygon class="st3" points="942.3,585.1 958.6,613.5 942.3,622.9 			"/>
		</g>
		<g id="Layer_60">
		</g>
		<g id="Layer_59">
			<polygon class="st3" points="958.6,632.4 958.6,689.1 925.9,708.1 925.9,651.3 			"/>
		</g>
		<g id="Layer_58">
			<polygon class="st3" points="958.6,613.5 958.6,632.4 953.2,616.6 			"/>
		</g>
		<g id="Layer_57">
			<polygon class="st2" points="925.9,651.3 925.9,708.1 909.5,698.6 909.5,641.9 			"/>
		</g>
		<g id="Layer_56">
			<polygon class="st2" points="909.5,641.9 909.5,698.6 893.1,708.1 893.1,651.3 			"/>
		</g>
		<g id="Layer_55">
			<polygon class="st2" points="942.3,585.1 909.5,566.2 909.5,604 			"/>
		</g>
		<g id="Layer_54">
			<polygon class="st2" points="909.5,604 876.8,622.9 909.5,641.9 			"/>
		</g>
		<g id="Layer_53">
			<polygon class="st2" points="909.5,604 893.1,594.6 860.4,613.5 876.8,622.9 			"/>
		</g>
		<g id="Layer_52">
			<polygon class="st2" points="893.1,651.3 860.4,632.4 876.8,622.9 909.5,641.9 			"/>
		</g>
		<g id="Layer_51">
			<polygon class="st2" points="860.4,632.4 860.4,689.1 893.1,708.1 893.1,651.3 			"/>
		</g>
		<g id="Layer_50">
			<polygon class="st2" points="860.4,613.5 860.4,632.4 876.8,622.9 			"/>
		</g>
	</g>
	<g id="Foot_x5F_8">
		<g id="Layer_67">
			<polygon class="st2" points="712.9,547.3 712.9,604 762.1,632.4 762.1,575.7 			"/>
		</g>
		<g id="Layer_66">
			<polygon class="st3" points="827.6,537.8 827.6,594.6 778.5,622.9 762.1,632.4 762.1,575.7 778.5,566.2 			"/>
		</g>
		<g id="Layer_65">
			<polygon class="st3" points="827.6,537.8 811.2,509.4 811.2,547.3 			"/>
		</g>
		<g id="Layer_64">
			<polygon class="st2" points="811.2,509.4 762.1,481.1 762.1,518.9 811.2,547.3 			"/>
		</g>
		<g id="Layer_63">
			<polygon class="st2" points="762.1,518.9 712.9,547.3 762.1,575.7 811.2,547.3 			"/>
		</g>
	</g>
	<g id="Foot_x5F_9">
		<g id="Layer_73">
			<polygon class="st2" points="581.9,471.6 581.9,528.4 631,556.7 631,500 			"/>
		</g>
		<g id="Layer_72">
			<polygon class="st3" points="696.6,462.2 696.6,518.9 647.4,547.3 631,556.7 631,500 647.4,490.5 			"/>
		</g>
		<g id="Layer_71">
			<polygon class="st3" points="696.6,462.2 680.2,433.8 680.2,471.6 			"/>
		</g>
		<g id="Layer_70">
			<polygon class="st2" points="680.2,433.8 631,405.4 631,443.2 680.2,471.6 			"/>
		</g>
		<g id="Layer_69">
			<polygon class="st2" points="631,443.2 581.9,471.6 631,500 680.2,471.6 			"/>
		</g>
	</g>
	<g id="Foot_x5F_10">
		<g id="Layer_91">
			<polygon class="st3" points="549.1,433.8 549.1,377.1 532.8,386.5 532.8,443.3 			"/>
		</g>
		<g id="Layer_90">
			<polygon class="st2" points="450.9,433.8 450.9,377.1 467.2,386.5 467.2,443.3 			"/>
		</g>
		<g id="Layer_89">
			<polygon class="st2" points="532.8,386.5 500,405.4 467.2,386.5 500,367.6 			"/>
		</g>
		<g id="Layer_88">
			<polygon class="st2" points="532.8,386.5 532.8,443.3 500,462.2 500,405.4 			"/>
		</g>
		<g id="Layer_87">
			<polygon class="st2" points="467.2,386.5 467.2,443.3 500,462.2 500,405.4 			"/>
		</g>
		<g id="Layer_86">
			<polygon class="st2" points="500,367.6 483.6,358.1 450.9,377.1 467.2,386.5 			"/>
		</g>
		<g id="Layer_85">
			<polygon class="st2" points="500,367.6 516.4,358.1 549.1,377.1 532.8,386.5 			"/>
		</g>
		<g id="Layer_84">
			<polygon class="st2" points="500,405.4 500,462.2 516.4,471.6 516.4,414.9 			"/>
		</g>
		<g id="Layer_83">
			<polygon class="st2" points="516.4,414.9 549.1,396 532.8,386.5 500,405.4 			"/>
		</g>
		<g id="Layer_82">
			<polygon class="st3" points="549.1,396 549.1,452.7 516.4,471.6 516.4,414.9 			"/>
		</g>
		<g id="Layer_81">
			<polygon class="st3" points="500,405.4 500,462.2 483.6,471.6 483.6,414.9 			"/>
		</g>
		<g id="Layer_80">
			<polygon class="st2" points="483.6,414.9 450.9,396 467.2,386.5 500,405.4 			"/>
		</g>
		<g id="Layer_79">
			<polygon class="st2" points="450.9,396 450.9,452.7 483.6,471.6 483.6,414.9 			"/>
		</g>
		<g id="Layer_78">
			<polygon class="st3" points="549.1,377.1 532.8,348.7 532.8,386.5 			"/>
		</g>
		<g id="Layer_77">
			<polygon class="st2" points="450.9,377.1 467.2,348.7 467.2,386.5 			"/>
		</g>
		<g id="Layer_76">
			<polygon class="st3" points="467.2,348.7 500,329.8 500,367.6 467.2,386.5 			"/>
		</g>
		<g id="Layer_75">
			<polygon class="st2" points="532.8,348.7 500,329.8 500,367.6 532.8,386.5 			"/>
		</g>
	</g>
	<g id="Foot_x5F_11">
		<g id="Layer_97">
			<polygon class="st3" points="418.1,471.6 418.1,528.4 369,556.7 369,500 			"/>
		</g>
		<g id="Layer_96">
			<polygon class="st2" points="303.5,462.1 303.5,518.9 352.6,547.3 369,556.7 369,500 352.6,490.5 			"/>
		</g>
		<g id="Layer_95">
			<polygon class="st2" points="303.5,462.1 319.8,433.8 319.8,471.6 			"/>
		</g>
		<g id="Layer_94">
			<polygon class="st3" points="319.8,433.8 369,405.4 369,443.2 319.8,471.6 			"/>
		</g>
		<g id="Layer_93">
			<polygon class="st2" points="369,443.2 418.1,471.6 369,500 319.8,471.6 			"/>
		</g>
	</g>
	<g id="Foot_x5F_12">
		<g id="Layer_103">
			<polygon class="st3" points="287.1,547.3 287.1,604 237.9,632.4 237.9,575.7 			"/>
		</g>
		<g id="Layer_102">
			<polygon class="st2" points="172.4,537.8 172.4,594.6 221.5,623 237.9,632.4 237.9,575.7 221.5,566.2 			"/>
		</g>
		<g id="Layer_101">
			<polygon class="st2" points="172.4,537.8 188.8,509.4 188.8,547.3 			"/>
		</g>
		<g id="Layer_100">
			<polygon class="st3" points="188.8,509.4 237.9,481.1 237.9,518.9 188.8,547.3 			"/>
		</g>
		<g id="Layer_99">
			<polygon class="st2" points="237.9,518.9 287.1,547.3 237.9,575.7 188.8,547.3 			"/>
		</g>
	</g>
	<g id="Layer_108">
		<polygon class="st2" points="57.7,585.1 57.7,622.9 500,878.3 500,840.5 		"/>
	</g>
	<g id="Layer_107">
		<polygon class="st3" points="500,878.3 942.3,622.9 942.3,585.1 500,840.5 		"/>
	</g>
	<g id="Layer_109">
		<polygon class="st2" points="500,840.5 57.7,585.1 500,329.8 942.3,585.1 		"/>
	</g>
	<g id="Layer_106">
		<polygon class="st2" points="696.6,443.3 254.3,698.6 303.4,727 745.7,471.6 		"/>
	</g>
	<g id="Layer_105">
		<polygon class="st2" points="303.4,443.3 745.7,698.6 696.6,727 254.3,471.6 		"/>
	</g>
	<g id="Layer_26">
		<g>
			<polygon class="st3" points="237.9,689.1 221.5,736.4 237.9,727 			"/>
			<polygon class="st2" points="188.8,660.8 172.4,708.1 221.5,736.4 237.9,689.1 			"/>
		</g>
	</g>
	<g id="Layer_364">
		<g id="Layer_366">
			<polygon class="st3" points="942.3,585.1 958.6,632.4 925.9,651.3 909.5,604 			"/>
		</g>
		<g id="Layer_365">
			<polygon class="st2" points="909.5,604 909.5,641.9 925.9,651.3 			"/>
		</g>
	</g>
	<g id="Layer_31">
		<g>
			<polygon class="st3" points="369,764.8 352.6,812.1 369,802.6 			"/>
			<polygon class="st2" points="319.8,736.4 303.4,783.7 352.6,812.1 369,764.8 			"/>
		</g>
	</g>
	<g id="Layer_38">
		<g>
			<polygon class="st3" points="500,840.5 483.6,887.7 500,878.3 			"/>
			<polygon class="st2" points="467.2,821.5 450.9,868.8 483.6,887.7 500,840.5 			"/>
		</g>
	</g>
	<g id="Layer_37">
		<g>
			<polygon class="st2" points="500,840.5 516.4,887.7 500,878.3 			"/>
			<polygon class="st3" points="532.8,821.5 549.1,868.8 516.4,887.7 500,840.5 			"/>
		</g>
	</g>
	<g id="Layer_43">
		<g>
			<polygon class="st2" points="631,764.8 647.4,812.1 631,802.6 			"/>
			<polygon class="st3" points="680.2,736.4 696.6,783.7 647.4,812.1 631,764.8 			"/>
		</g>
	</g>
	<g id="Layer_48">
		<g>
			<polygon class="st2" points="762.1,689.1 778.5,736.4 762.1,727 			"/>
			<polygon class="st3" points="811.2,660.8 827.6,708.1 778.5,736.4 762.1,689.1 			"/>
		</g>
	</g>
	<g id="Layer_20">
		<g>
			<polygon class="st2" points="57.7,585.1 41.4,632.4 74.1,651.3 90.5,604 			"/>
			<polygon class="st3" points="90.5,604 90.5,641.9 74.1,651.3 			"/>
		</g>
	</g>
</g>
<g id="Wall_x5F_2b">
	<g id="Layer_112">
		<g>
			<polygon class="st2" points="762.1,424.3 712.9,452.7 762.1,481.1 811.2,452.7 			"/>
			<polygon class="st2" points="712.9,452.7 712.9,509.5 762.1,537.8 762.1,481.1 			"/>
			<polygon class="st2" points="762.1,481.1 762.1,537.8 811.2,509.5 811.2,452.7 			"/>
		</g>
	</g>
	<g id="Layer_111">
		<g>
			<polygon class="st2" points="778.5,528.4 876.7,585.1 876.7,528.4 778.5,471.6 			"/>
			<polygon class="st2" points="909.5,509.5 811.2,452.7 778.5,471.6 876.7,528.4 			"/>
		</g>
	</g>
</g>
<g id="Wall_x5F_2a">
	<g id="Layer_121">
		<g>
			<polygon class="st3" points="287.1,452.7 287.1,509.5 237.9,537.8 237.9,481.1 			"/>
			<polygon class="st2" points="188.8,452.7 188.8,509.5 237.9,537.8 237.9,481.1 			"/>
			<polygon class="st2" points="237.9,424.3 188.8,452.7 237.9,481.1 287.1,452.7 			"/>
		</g>
	</g>
	<g id="Layer_120">
		<g>
			<polygon class="st2" points="221.5,528.4 123.3,585.1 123.3,528.4 221.5,471.6 			"/>
			<polygon class="st2" points="90.5,509.5 188.8,452.7 221.5,471.6 123.3,528.4 			"/>
		</g>
	</g>
</g>
<g id="Wall_x5F_1">
	<g id="Layer_118">
		<g>
			<polygon class="st2" points="532.8,254.1 500,235.2 467.2,254.1 500,273 			"/>
			<polygon class="st3" points="532.8,254.1 532.8,291.9 500,310.9 500,273 			"/>
			<polygon class="st2" points="467.2,254.1 467.2,291.9 500,310.9 500,273 			"/>
		</g>
	</g>
	<g id="Layer_117">
		<g>
			<polygon class="st2" points="500,367.6 598.3,424.3 598.3,367.6 500,310.9 			"/>
			<polygon class="st2" points="631,348.7 532.8,291.9 500,310.9 598.3,367.6 			"/>
		</g>
	</g>
	<g id="Layer_116">
		<g>
			<polygon class="st3" points="680.2,377.1 680.2,433.8 631,462.2 631,405.4 			"/>
			<polygon class="st2" points="581.9,377.1 581.9,433.8 631,462.2 631,405.4 			"/>
			<polygon class="st2" points="631,348.7 581.9,377.1 631,405.4 680.2,377.1 			"/>
		</g>
	</g>
	<g id="Layer_115">
		<g>
			<polygon class="st2" points="500,367.6 401.7,424.3 401.7,367.6 500,310.9 			"/>
			<polygon class="st2" points="369,348.7 467.2,291.9 500,310.9 401.7,367.6 			"/>
		</g>
	</g>
	<g id="Layer_114">
		<g>
			<polygon class="st3" points="418.1,377.1 418.1,433.8 369,462.2 369,405.4 			"/>
			<polygon class="st2" points="319.8,377.1 319.8,433.8 369,462.2 369,405.4 			"/>
			<polygon class="st2" points="369,348.7 319.8,377.1 369,405.4 418.1,377.1 			"/>
		</g>
	</g>
</g>
<g id="Wall_x5F_Col_x5F_2a">
	<g id="Layer_147">
		<polygon class="st3" points="277.8,374.8 277.8,451.6 237.9,474.7 237.9,397.8 		"/>
	</g>
	<g id="Layer_146">
		<polygon class="st2" points="198,374.8 198,451.6 237.9,474.7 237.9,397.8 		"/>
	</g>
	<g id="Layer_145">
		<polygon class="st2" points="237.9,351.7 198,374.8 237.9,397.8 277.8,374.8 		"/>
	</g>
</g>
<g id="Wall_x5F_Col_x5F_1a">
	<g id="Layer_139">
		<polygon class="st3" points="408.9,299.1 408.9,376 369,399 369,322.2 		"/>
	</g>
	<g id="Layer_138">
		<polygon class="st2" points="329,299.1 329,376 369,399 369,322.2 		"/>
	</g>
	<g id="Layer_137">
		<polygon class="st2" points="369,276.1 329,299.1 369,322.2 408.9,299.1 		"/>
	</g>
</g>
<g id="Wall_x5F_Col_x5F_2b">
	<g id="Layer_151">
		<polygon class="st3" points="802,374.8 802,451.6 762.1,474.7 762.1,397.8 		"/>
	</g>
	<g id="Layer_150">
		<polygon class="st2" points="722.2,374.8 722.2,451.6 762.1,474.7 762.1,397.8 		"/>
	</g>
	<g id="Layer_149">
		<polygon class="st2" points="762.1,351.7 722.2,374.8 762.1,397.8 802,374.8 		"/>
	</g>
</g>
<g id="Wall_x5F_Col_x5F_1b">
	<g id="Layer_143">
		<polygon class="st3" points="671,299.1 671,376 631,399 631,322.2 		"/>
	</g>
	<g id="Layer_142">
		<polygon class="st2" points="591.1,299.1 591.1,376 631,399 631,322.2 		"/>
	</g>
	<g id="Layer_141">
		<polygon class="st2" points="631,276.1 591.1,299.1 631,322.2 671,299.1 		"/>
	</g>
</g>
<g id="Wall_x5F_Col_x5F_Roof_x5F_8">
	<g id="Layer_266">
		<polygon class="st2" points="762.1,337.7 712.9,366 762.1,394.4 811.2,366 		"/>
	</g>
	<g id="Layer_265">
		<polygon class="st2" points="712.9,366 712.9,374.8 762.1,403.2 762.1,394.4 		"/>
	</g>
	<g id="Layer_264">
		<polygon class="st3" points="811.2,366 811.2,374.8 762.1,403.2 762.1,394.4 		"/>
	</g>
	<g id="Layer_263">
		<polygon class="st2" points="722.2,366 762.1,389.1 762.1,285.4 		"/>
	</g>
	<g id="Layer_262">
		<polygon class="st3" points="802,366 762.1,389.1 762.1,285.4 		"/>
	</g>
	<g id="Layer_261">
		<line class="st2" x1="811.2" y1="366" x2="811.2" y2="359.6"/>
	</g>
	<g id="Layer_260">
		<line class="st2" x1="762.1" y1="394.4" x2="762.1" y2="387.9"/>
	</g>
	<g id="Layer_259">
		<line class="st2" x1="712.9" y1="366" x2="712.9" y2="359.6"/>
	</g>
	<g id="Layer_258">
		<line class="st2" x1="762.1" y1="285.4" x2="762.1" y2="278.9"/>
	</g>
</g>
<g id="Wall_x5F_Col_x5F_Roof_x5F_9">
	<g id="Layer_276">
		<polygon class="st2" points="631,262 581.9,290.4 631,318.8 680.2,290.4 		"/>
	</g>
	<g id="Layer_275">
		<polygon class="st2" points="581.9,290.4 581.9,299.1 631,327.5 631,318.8 		"/>
	</g>
	<g id="Layer_274">
		<polygon class="st3" points="680.2,290.4 680.2,299.1 631,327.5 631,318.8 		"/>
	</g>
	<g id="Layer_273">
		<polygon class="st2" points="591.1,290.4 631,313.4 631,209.7 		"/>
	</g>
	<g id="Layer_272">
		<polygon class="st3" points="671,290.4 631,313.4 631,209.7 		"/>
	</g>
	<g id="Layer_271">
		<line class="st2" x1="680.2" y1="290.4" x2="680.2" y2="283.9"/>
	</g>
	<g id="Layer_270">
		<line class="st2" x1="631" y1="318.8" x2="631" y2="312.3"/>
	</g>
	<g id="Layer_269">
		<line class="st2" x1="581.9" y1="290.4" x2="581.9" y2="283.9"/>
	</g>
	<g id="Layer_268">
		<line class="st2" x1="631" y1="209.7" x2="631" y2="203.2"/>
	</g>
</g>
<g id="Wall_x5F_Col_x5F_Roof_x5F_10">
	<g id="Layer_286">
		<polygon class="st2" points="539.7,250.1 500,227.2 460.3,250.1 500,273 		"/>
	</g>
	<g id="Layer_285">
		<polygon class="st2" points="467.2,250.1 500,269 500,183.9 		"/>
	</g>
	<g id="Layer_284">
		<polygon class="st3" points="532.8,250.1 500,269 500,183.9 		"/>
	</g>
	<g id="Layer_283">
		<polygon class="st2" points="460.3,250.1 460.3,255.9 500,278.8 500,273 		"/>
	</g>
	<g id="Layer_282">
		<polygon class="st3" points="500,273 539.7,250.1 539.7,255.9 500,278.8 		"/>
	</g>
	<g id="Layer_281">
		<line class="st2" x1="539.7" y1="250.1" x2="539.7" y2="243.7"/>
	</g>
	<g id="Layer_280">
		<line class="st2" x1="500" y1="273" x2="500" y2="266.6"/>
	</g>
	<g id="Layer_279">
		<line class="st2" x1="460.3" y1="250.1" x2="460.3" y2="243.7"/>
	</g>
	<g id="Layer_278">
		<line class="st2" x1="500" y1="183.9" x2="500" y2="175"/>
	</g>
</g>
<g id="Wall_x5F_Col_x5F_Roof_x5F_11">
	<g id="Layer_296">
		<polygon class="st2" points="369,262 319.8,290.4 369,318.8 418.1,290.4 		"/>
	</g>
	<g id="Layer_295">
		<polygon class="st2" points="319.8,290.4 319.8,299.1 369,327.5 369,318.8 		"/>
	</g>
	<g id="Layer_294">
		<polygon class="st3" points="418.1,290.4 418.1,299.1 369,327.5 369,318.8 		"/>
	</g>
	<g id="Layer_293">
		<polygon class="st2" points="329,290.4 369,313.4 369,209.7 		"/>
	</g>
	<g id="Layer_292">
		<polygon class="st3" points="408.9,290.4 369,313.4 369,209.7 		"/>
	</g>
	<g id="Layer_291">
		<line class="st2" x1="418.1" y1="290.4" x2="418.1" y2="283.9"/>
	</g>
	<g id="Layer_290">
		<line class="st2" x1="369" y1="318.8" x2="369" y2="312.3"/>
	</g>
	<g id="Layer_289">
		<line class="st2" x1="319.8" y1="290.4" x2="319.8" y2="283.9"/>
	</g>
	<g id="Layer_288">
		<line class="st2" x1="369" y1="209.7" x2="369" y2="203.2"/>
	</g>
</g>
<g id="Wall_x5F_Col_x5F_Roof_x5F_12">
	<g id="Layer_306">
		<polygon class="st2" points="237.9,337.7 188.8,366 237.9,394.4 287.1,366 		"/>
	</g>
	<g id="Layer_305">
		<polygon class="st2" points="188.8,366 188.8,374.8 237.9,403.2 237.9,394.4 		"/>
	</g>
	<g id="Layer_304">
		<polygon class="st3" points="287.1,366 287.1,374.8 237.9,403.2 237.9,394.4 		"/>
	</g>
	<g id="Layer_303">
		<polygon class="st2" points="198,366 237.9,389.1 237.9,285.4 		"/>
	</g>
	<g id="Layer_302">
		<polygon class="st3" points="277.8,366 237.9,389.1 237.9,285.4 		"/>
	</g>
	<g id="Layer_301">
		<line class="st2" x1="287.1" y1="366" x2="287.1" y2="359.6"/>
	</g>
	<g id="Layer_300">
		<line class="st2" x1="237.9" y1="394.4" x2="237.9" y2="387.9"/>
	</g>
	<g id="Layer_299">
		<line class="st2" x1="188.8" y1="366" x2="188.8" y2="359.6"/>
	</g>
	<g id="Layer_298">
		<line class="st2" x1="237.9" y1="285.4" x2="237.9" y2="278.9"/>
	</g>
</g>
<g id="Center_x5F_Foot_x5F_1">
	<g id="Layer_171">
		<polygon class="st3" points="549.1,471.6 549.1,377.1 500,405.4 500,500 		"/>
	</g>
	<g id="Layer_170">
		<polygon class="st2" points="450.9,471.6 450.9,377.1 500,405.4 500,500 		"/>
	</g>
	<g id="Layer_169">
		<polygon class="st2" points="500,348.7 450.9,377.1 500,405.4 549.1,377.1 		"/>
	</g>
</g>
<g id="Center_x5F_Foot_x5F_2a">
	<g id="Layer_175">
		<polygon class="st2" points="303.4,462.2 254.3,490.5 303.4,518.9 352.6,490.5 		"/>
	</g>
	<g id="Layer_174">
		<polygon class="st2" points="254.3,585.1 254.3,490.5 303.4,518.9 303.4,613.5 		"/>
	</g>
	<g id="Layer_173">
		<polygon class="st3" points="352.6,585.1 352.6,490.5 303.4,518.9 303.4,613.5 		"/>
	</g>
</g>
<g id="Center_x5F_Foot_x5F_2b">
	<g id="Layer_179">
		<polygon class="st3" points="745.7,585.1 745.7,490.5 696.6,518.9 696.6,613.5 		"/>
	</g>
	<g id="Layer_178">
		<polygon class="st2" points="647.4,585.1 647.4,490.5 696.6,518.9 696.6,613.5 		"/>
	</g>
	<g id="Layer_177">
		<polygon class="st2" points="696.6,462.2 647.4,490.5 696.6,518.9 745.7,490.5 		"/>
	</g>
</g>
<g id="Center_x5F_body_x5F_foot">
	<g id="Layer_186">
		<g>
			<g>
				<polygon class="st2" points="500,500 500,405.4 647.4,490.5 647.4,585.1 				"/>
			</g>
			<g>
				<polygon class="st2" points="500,500 500,405.4 352.6,490.5 352.6,585.1 				"/>
			</g>
			<g>
				<polygon class="st2" points="647.4,585.1 647.4,490.5 500,575.7 500,670.2 				"/>
				<g>
					<polygon class="st3" points="680.2,604 680.2,509.5 532.8,594.6 532.8,689.1 					"/>
					<path class="st2" d="M590.1,618.2V656l32.8-18.9v-37.8c0-9-9-13.7-16.4-9.5C599.1,594.1,590.1,603.3,590.1,618.2z"/>
				</g>
			</g>
			<g>
				<polygon class="st2" points="352.6,585.1 352.6,490.5 500,575.7 500,670.2 				"/>
				<g>
					<polygon class="st2" points="319.8,604 319.8,509.5 467.2,594.6 467.2,689.1 					"/>
					<path class="st2" d="M409.9,618.2V656l-32.8-18.9v-37.8c0-9,9-13.7,16.4-9.5C400.9,594.1,409.9,603.3,409.9,618.2z"/>
				</g>
			</g>
		</g>
	</g>
	<g id="Layer_185">
		<g>
			<polygon class="st2" points="500,405.4 352.6,490.5 319.8,471.6 467.2,386.5 			"/>
			<polygon class="st2" points="680.2,509.5 532.8,594.6 500,575.7 647.4,490.5 			"/>
			<polygon class="st2" points="319.8,509.5 467.2,594.6 500,575.7 352.6,490.5 			"/>
			<polygon class="st2" points="500,405.4 647.4,490.5 680.2,471.6 532.8,386.5 			"/>
			<polygon class="st2" points="500,405.4 647.4,490.5 500,575.7 352.6,490.5 			"/>
		</g>
	</g>
</g>
<g id="Center_x5F_Foot_x5F_Roof_x5F_1">
	<g id="Layer_309">
		<g>
			<polygon class="st3" points="539.9,299.1 539.9,376 500,399 500,322.2 			"/>
			<polygon class="st2" points="460.1,299.1 460.1,376 500,399 500,322.2 			"/>
		</g>
	</g>
	<g id="Layer_308">
		<g>
			<polygon class="st2" points="460.1,299.1 500,322.2 500,218.5 			"/>
			<polygon class="st3" points="539.9,299.1 500,322.2 500,218.5 			"/>
		</g>
	</g>
</g>
<g id="Center_x5F_Foot_x5F_Roof_x5F_2a">
	<g id="Layer_312">
		<g>
			<polygon class="st3" points="343.4,412.6 343.4,489.5 303.4,512.5 303.4,435.7 			"/>
			<polygon class="st2" points="263.5,412.6 263.5,489.5 303.4,512.5 303.4,435.7 			"/>
		</g>
	</g>
	<g id="Layer_311">
		<g>
			<polygon class="st2" points="263.5,412.6 303.4,435.7 303.4,332 			"/>
			<polygon class="st3" points="343.4,412.6 303.4,435.7 303.4,332 			"/>
		</g>
	</g>
</g>
<g id="Center_x5F_Foot_x5F_Roof_x5F_2b">
	<g id="Layer_315">
		<g>
			<polygon class="st3" points="736.5,412.6 736.5,489.5 696.6,512.5 696.6,435.7 			"/>
			<polygon class="st2" points="656.6,412.6 656.6,489.5 696.6,512.5 696.6,435.7 			"/>
		</g>
	</g>
	<g id="Layer_314">
		<g>
			<polygon class="st2" points="656.6,412.6 696.6,435.7 696.6,332 			"/>
			<polygon class="st3" points="736.5,412.6 696.6,435.7 696.6,332 			"/>
		</g>
	</g>
</g>
<g id="Center_x5F_Body_x5F_Col_x5F_1b">
	<g id="Layer_330">
		<g>
			<g>
				<polygon class="st2" points="500,235.2 500,405.4 532.8,424.3 532.8,254.1 				"/>
				<polygon class="st3" points="565.5,235.2 565.5,405.4 532.8,424.3 532.8,254.1 				"/>
			</g>
			<polygon class="st2" points="565.5,235.2 532.8,216.3 500,235.2 532.8,254.1 			"/>
		</g>
	</g>
	<g id="Layer_329">
		<g>
			<polygon class="st2" points="500,235.2 532.8,254.1 532.8,169 			"/>
			<polygon class="st3" points="565.5,235.2 532.8,254.1 532.8,169 			"/>
		</g>
	</g>
</g>
<g id="Center_x5F_Body_x5F_Col_x5F_1a">
	<g id="Layer_327">
		<g>
			<g>
				<polygon class="st2" points="434.5,235.2 434.5,405.4 467.2,424.3 467.2,254.1 				"/>
				<polygon class="st3" points="500,235.2 500,405.4 467.2,424.3 467.2,254.1 				"/>
			</g>
			<polygon class="st2" points="500,235.2 467.2,216.3 434.5,235.2 467.2,254.1 			"/>
		</g>
	</g>
	<g id="Layer_326">
		<g>
			<polygon class="st2" points="434.5,235.2 467.2,254.1 467.2,169 			"/>
			<polygon class="st3" points="500,235.2 467.2,254.1 467.2,169 			"/>
		</g>
	</g>
</g>
<g id="Center_x5F_Body_x5F_Col_x5F_2a">
	<g id="Layer_333">
		<g>
			<polygon class="st2" points="385.3,301.4 352.6,282.5 319.8,301.4 352.6,320.3 			"/>
			<polygon class="st2" points="319.8,301.4 319.8,339.2 352.6,320.3 			"/>
			<polygon class="st3" points="385.3,301.4 385.3,339.2 352.6,320.3 			"/>
		</g>
	</g>
	<g id="Layer_332">
		<g>
			<polygon class="st2" points="319.8,301.4 352.6,320.3 352.6,235.2 			"/>
			<polygon class="st3" points="385.3,301.4 352.6,320.3 352.6,235.2 			"/>
		</g>
	</g>
</g>
<g id="Center_x5F_Body_x5F_Col_x5F_2b">
	<g id="Layer_336">
		<g>
			<polygon class="st2" points="680.2,301.4 647.4,282.5 614.7,301.4 647.4,320.3 			"/>
			<polygon class="st3" points="680.2,301.4 680.2,339.2 647.4,320.3 			"/>
			<polygon class="st2" points="614.7,301.4 614.7,339.2 647.4,320.3 			"/>
		</g>
	</g>
	<g id="Layer_335">
		<g>
			<polygon class="st2" points="614.7,301.4 647.4,320.3 647.4,235.2 			"/>
			<polygon class="st3" points="680.2,301.4 647.4,320.3 647.4,235.2 			"/>
		</g>
	</g>
</g>
<g id="Center_x5F_Body">
	<g id="Layer_324">
		<polygon class="st2" points="352.6,490.5 352.6,320.3 500,405.4 500,575.7 		"/>
	</g>
	<g id="Layer_323">
		<polygon class="st3" points="500,405.4 647.4,320.3 647.4,490.5 500,575.7 		"/>
	</g>
	<g id="Layer_322">
		<polygon class="st2" points="500,235.2 647.4,320.3 500,405.4 352.6,320.3 		"/>
	</g>
	<g id="Layer_321">
		<g>
			<path class="st2" d="M442.7,464.7v37.8l-32.8-18.9v-37.8c0-9,9-13.7,16.4-9.5C433.7,440.6,442.7,449.8,442.7,464.7z"/>
			<polygon class="st2" points="442.7,502.5 409.9,561.4 442.7,542.5 			"/>
			<polygon class="st2" points="409.9,483.6 442.7,502.5 409.9,561.4 377.1,542.5 			"/>
			<g>
				<path class="st7" d="M423.7,435.2c-5.7,0-7.9,4.5-7.9,9.9s0,35.1,0,35.1l-5.9,3.4v-37.8C409.9,437.8,416.9,433.2,423.7,435.2z"
					/>
				<polygon class="st7" points="442.7,495.7 442.7,502.5 409.9,483.6 415.8,480.2 				"/>
			</g>
		</g>
	</g>
	<g id="Layer_320">
		<g>
			<path class="st3" d="M557.3,464.7v37.8l32.8-18.9v-37.8c0-9-9-13.7-16.4-9.5C566.3,440.6,557.3,449.9,557.3,464.7z"/>
			<polygon class="st2" points="557.3,502.6 590.1,561.5 557.3,542.6 			"/>
			<polygon class="st3" points="590.1,483.6 557.3,502.6 590.1,561.5 622.9,542.6 			"/>
			<g>
				<path class="st7" d="M576.3,435.2c5.7,0,7.9,4.5,7.9,9.9s0,35.1,0,35.1l5.9,3.4v-37.8C590.1,437.9,583.1,433.2,576.3,435.2z"/>
				<polygon class="st7" points="557.3,495.7 557.3,502.6 590.1,483.6 584.2,480.2 				"/>
			</g>
		</g>
	</g>
</g>
<g id="Center_x5F_Body_x5F_Col_x5F_3a">
	<g id="Layer_339">
		<g>
			<polygon class="st2" points="385.3,339.2 352.6,320.3 319.8,339.2 352.6,358.1 			"/>
			<g>
				<polygon class="st2" points="319.8,339.2 319.8,509.5 352.6,528.4 352.6,358.1 				"/>
				<polygon class="st3" points="385.3,339.2 385.3,509.5 352.6,528.4 352.6,358.1 				"/>
			</g>
		</g>
	</g>
	<g id="Layer_338">
		<g>
			<polygon class="st2" points="319.8,339.2 352.6,358.1 352.6,273 			"/>
			<polygon class="st3" points="385.3,339.2 352.6,358.1 352.6,273 			"/>
		</g>
	</g>
</g>
<g id="Center_x5F_Body_x5F_Col_x5F_3b">
	<g id="Layer_350">
		<g id="Layer_342">
			<g>
				<polygon class="st2" points="680.2,339.2 647.4,320.3 614.7,339.2 647.4,358.1 				"/>
				<g>
					<polygon class="st2" points="614.7,339.2 614.7,509.5 647.4,528.4 647.4,358.1 					"/>
					<polygon class="st3" points="680.2,339.2 680.2,509.5 647.4,528.4 647.4,358.1 					"/>
				</g>
			</g>
		</g>
	</g>
	<g id="Layer_349">
		<g id="Layer_341">
			<g>
				<polygon class="st2" points="614.7,339.2 647.4,358.1 647.4,273 				"/>
				<polygon class="st3" points="680.2,339.2 647.4,358.1 647.4,273 				"/>
			</g>
		</g>
	</g>
</g>
<g id="Center_x5F_Head">
	<g id="Layer_360">
		<polygon class="st3" points="565.5,235.2 565.5,310.9 598.3,291.9 		"/>
	</g>
	<g id="Layer_359">
		<polygon class="st2" points="434.5,235.2 434.5,310.9 401.7,291.9 		"/>
	</g>
	<g id="Layer_358">
		<polygon class="st2" points="500,291.9 500,367.6 418.1,320.3 418.1,244.7 		"/>
	</g>
	<g id="Layer_357">
		<polygon class="st3" points="500,291.9 500,367.6 581.9,320.3 581.9,244.7 		"/>
	</g>
	<g id="Layer_356">
		<polygon class="st3" points="483.6,282.5 483.6,358.1 450.9,377.1 		"/>
	</g>
	<g id="Layer_355">
		<polygon class="st2" points="516.4,282.5 516.4,358.1 549.1,377.1 		"/>
	</g>
	<g id="Layer_354">
		<polygon class="st2" points="434.5,254.1 483.6,282.5 450.9,377.1 401.7,348.7 		"/>
	</g>
	<g id="Layer_353">
		<polygon class="st3" points="516.4,282.5 565.5,254.1 598.3,348.7 549.1,377.1 		"/>
	</g>
	<g id="Layer_352">
		<polygon class="st2" points="500,197.4 418.1,244.7 500,291.9 581.9,244.7 		"/>
	</g>
</g>
<g id="Center_x5F_Head_x5F_Roof" class="st0">
	<g id="Layer_363" class="st1">
		<polygon class="st2" points="418.1,219.7 500,266.9 500,54.2 		"/>
	</g>
	<g id="Layer_362" class="st1">
		<polygon class="st3" points="581.9,219.7 500,266.9 500,54.2 		"/>
	</g>
</g>
<g id="Center_x5F_Body_x5F_Col_x5F_4a">
	<g id="Layer_345">
		<g>
			<polygon class="st2" points="500,405.4 467.2,386.5 434.5,405.4 467.2,424.3 			"/>
			<g>
				<polygon class="st2" points="434.5,405.4 434.5,575.7 467.2,594.6 467.2,424.3 				"/>
				<polygon class="st3" points="500,405.4 500,575.7 467.2,594.6 467.2,424.3 				"/>
			</g>
		</g>
	</g>
	<g id="Layer_344">
		<g>
			<polygon class="st2" points="434.5,405.4 467.2,424.3 467.2,339.2 			"/>
			<polygon class="st3" points="500,405.4 467.2,424.3 467.2,339.2 			"/>
		</g>
	</g>
</g>
<g id="Center_x5F_Body_x5F_Col_x5F_4b">
	<g id="Layer_348">
		<g>
			<polygon class="st2" points="565.5,405.4 532.8,386.5 500,405.4 532.8,424.3 			"/>
			<g>
				<polygon class="st2" points="500,405.4 500,575.7 532.8,594.6 532.8,424.3 				"/>
				<polygon class="st3" points="565.5,405.4 565.5,575.7 532.8,594.6 532.8,424.3 				"/>
			</g>
		</g>
	</g>
	<g id="Layer_347">
		<g>
			<polygon class="st2" points="500,405.4 532.8,424.3 532.8,339.2 			"/>
			<polygon class="st3" points="565.5,405.4 532.8,424.3 532.8,339.2 			"/>
		</g>
	</g>
</g>
<g id="Center_x5F_Foot_x5F_3">
	<g id="Layer_183">
		<polygon class="st2" points="500,575.7 450.9,604 500,632.4 549.1,604 		"/>
	</g>
	<g id="Layer_182">
		<polygon class="st2" points="450.9,698.6 450.9,604 500,632.4 500,727 		"/>
	</g>
	<g id="Layer_181">
		<polygon class="st3" points="549.1,698.6 549.1,604 500,632.4 500,727 		"/>
	</g>
</g>
<g id="Center_x5F_Foot_x5F_Roof_x5F_3">
	<g id="Layer_318">
		<g>
			<polygon class="st3" points="539.9,526.1 539.9,603 500,626 500,549.2 			"/>
			<polygon class="st2" points="460.1,526.1 460.1,603 500,626 500,549.2 			"/>
		</g>
	</g>
	<g id="Layer_317">
		<g>
			<polygon class="st2" points="460.1,526.1 500,549.2 500,445.4 			"/>
			<polygon class="st3" points="539.9,526.1 500,549.2 500,445.4 			"/>
		</g>
	</g>
</g>
<g id="Wall_x5F_3a">
	<g id="Layer_129">
		<g>
			<polygon class="st3" points="287.1,604 287.1,660.8 237.9,689.1 237.9,632.4 			"/>
			<polygon class="st2" points="188.8,604 188.8,660.8 237.9,689.1 237.9,632.4 			"/>
			<polygon class="st2" points="237.9,575.7 188.8,604 237.9,632.4 287.1,604 			"/>
		</g>
	</g>
	<g id="Layer_128">
		<g>
			<polygon class="st2" points="90.5,604 188.8,660.8 188.8,604 90.5,547.3 			"/>
			<polygon class="st2" points="221.5,585.1 123.3,528.4 90.5,547.3 188.8,604 			"/>
		</g>
	</g>
	<g id="Layer_127">
		<g>
			<polygon class="st2" points="123.3,490.5 90.5,471.6 57.7,490.5 90.5,509.5 			"/>
			<polygon class="st2" points="57.7,490.5 57.7,585.1 90.5,604 90.5,509.5 			"/>
			<polygon class="st3" points="123.3,490.5 123.3,528.4 90.5,547.3 90.5,509.5 			"/>
		</g>
	</g>
</g>
<g id="Wall_x5F_3b">
	<g id="Layer_125">
		<g>
			<polygon class="st3" points="811.2,604 811.2,660.8 762.1,689.1 762.1,632.4 			"/>
			<polygon class="st2" points="712.9,604 712.9,660.8 762.1,689.1 762.1,632.4 			"/>
			<polygon class="st2" points="762.1,575.7 712.9,604 762.1,632.4 811.2,604 			"/>
		</g>
	</g>
	<g id="Layer_124">
		<g>
			<polygon class="st3" points="909.5,604 811.2,660.8 811.2,604 909.5,547.3 			"/>
			<polygon class="st2" points="778.5,585.1 876.7,528.4 909.5,547.3 811.2,604 			"/>
		</g>
	</g>
	<g id="Layer_123">
		<g>
			<polygon class="st2" points="942.3,490.5 909.5,471.6 876.7,490.5 909.5,509.5 			"/>
			<polygon class="st3" points="942.3,490.5 942.3,585.1 909.5,604 909.5,509.5 			"/>
			<polygon class="st2" points="876.7,490.5 876.7,528.4 909.5,547.3 909.5,509.5 			"/>
		</g>
	</g>
</g>
<g id="Wall_x5F_Col_x5F_3a">
	<g id="Layer_155">
		<polygon class="st3" points="277.8,526.1 277.8,603 237.9,626 237.9,549.2 		"/>
	</g>
	<g id="Layer_154">
		<polygon class="st2" points="198,526.1 198,603 237.9,626 237.9,549.2 		"/>
	</g>
	<g id="Layer_153">
		<polygon class="st2" points="237.9,503.1 198,526.1 237.9,549.2 277.8,526.1 		"/>
	</g>
</g>
<g id="Wall_x5F_Col_x5F_3b">
	<g id="Layer_159">
		<polygon class="st3" points="802,526.1 802,603 762.1,626 762.1,549.2 		"/>
	</g>
	<g id="Layer_158">
		<polygon class="st2" points="722.2,526.1 722.2,603 762.1,626 762.1,549.2 		"/>
	</g>
	<g id="Layer_157">
		<polygon class="st2" points="762.1,503.1 722.2,526.1 762.1,549.2 802,526.1 		"/>
	</g>
</g>
<g id="Wall_x5F_Col_x5F_Roof_x5F_2">
	<g id="Layer_206">
		<polygon class="st2" points="237.9,489 188.8,517.4 237.9,545.7 287.1,517.4 		"/>
	</g>
	<g id="Layer_205">
		<polygon class="st2" points="188.8,517.4 188.8,526.1 237.9,554.5 237.9,545.7 		"/>
	</g>
	<g id="Layer_204">
		<polygon class="st3" points="287.1,517.4 287.1,526.1 237.9,554.5 237.9,545.7 		"/>
	</g>
	<g id="Layer_203">
		<polygon class="st2" points="198,517.4 237.9,540.4 237.9,436.7 		"/>
	</g>
	<g id="Layer_202">
		<polygon class="st3" points="277.8,517.4 237.9,540.4 237.9,436.7 		"/>
	</g>
	<g id="Layer_201">
		<line class="st2" x1="287.1" y1="517.4" x2="287.1" y2="510.9"/>
	</g>
	<g id="Layer_200">
		<line class="st2" x1="237.9" y1="545.7" x2="237.9" y2="539.2"/>
	</g>
	<g id="Layer_199">
		<line class="st2" x1="188.8" y1="517.4" x2="188.8" y2="510.9"/>
	</g>
	<g id="Layer_198">
		<line class="st2" x1="237.9" y1="436.7" x2="237.9" y2="430.2"/>
	</g>
</g>
<g id="Wall_x5F_Col_x5F_Roof_x5F_6">
	<g id="Layer_246">
		<polygon class="st2" points="762.1,489 712.9,517.4 762.1,545.7 811.2,517.4 		"/>
	</g>
	<g id="Layer_245">
		<polygon class="st2" points="712.9,517.4 712.9,526.1 762.1,554.5 762.1,545.7 		"/>
	</g>
	<g id="Layer_244">
		<polygon class="st3" points="811.2,517.4 811.2,526.1 762.1,554.5 762.1,545.7 		"/>
	</g>
	<g id="Layer_243">
		<polygon class="st2" points="722.2,517.4 762.1,540.4 762.1,436.7 		"/>
	</g>
	<g id="Layer_242">
		<polygon class="st3" points="802,517.4 762.1,540.4 762.1,436.7 		"/>
	</g>
	<g id="Layer_241">
		<line class="st2" x1="811.2" y1="517.4" x2="811.2" y2="510.9"/>
	</g>
	<g id="Layer_240">
		<line class="st2" x1="762.1" y1="545.7" x2="762.1" y2="539.2"/>
	</g>
	<g id="Layer_239">
		<line class="st2" x1="712.9" y1="517.4" x2="712.9" y2="510.9"/>
	</g>
	<g id="Layer_238">
		<line class="st2" x1="762.1" y1="436.7" x2="762.1" y2="430.2"/>
	</g>
</g>
<g id="Wall_x5F_Col_x5F_Roof_x5F_1">
	<g id="Layer_196">
		<polygon class="st2" points="130.2,486.6 90.5,463.7 50.8,486.6 90.5,509.5 		"/>
	</g>
	<g id="Layer_195">
		<polygon class="st2" points="57.7,486.6 90.5,505.5 90.5,420.4 		"/>
	</g>
	<g id="Layer_194">
		<polygon class="st3" points="123.2,486.6 90.5,505.5 90.5,420.4 		"/>
	</g>
	<g id="Layer_193">
		<polygon class="st2" points="50.8,486.6 50.8,492.3 90.5,515.2 90.5,509.5 		"/>
	</g>
	<g id="Layer_192">
		<polygon class="st3" points="90.5,509.5 130.2,486.6 130.2,492.3 90.5,515.2 		"/>
	</g>
	<g id="Layer_191">
		<line class="st2" x1="130.2" y1="486.6" x2="130.2" y2="480.1"/>
	</g>
	<g id="Layer_190">
		<line class="st2" x1="90.5" y1="509.5" x2="90.5" y2="503"/>
	</g>
	<g id="Layer_189">
		<line class="st2" x1="50.8" y1="486.6" x2="50.8" y2="480.1"/>
	</g>
	<g id="Layer_188">
		<line class="st2" x1="90.5" y1="420.4" x2="90.5" y2="411.5"/>
	</g>
</g>
<g id="Wall_x5F_Col_x5F_Roof_x5F_7">
	<g id="Layer_256">
		<polygon class="st2" points="949.2,486.6 909.5,463.7 869.8,486.6 909.5,509.5 		"/>
	</g>
	<g id="Layer_255">
		<polygon class="st2" points="876.7,486.6 909.5,505.5 909.5,420.4 		"/>
	</g>
	<g id="Layer_254">
		<polygon class="st3" points="942.3,486.6 909.5,505.5 909.5,420.4 		"/>
	</g>
	<g id="Layer_253">
		<polygon class="st2" points="869.8,486.6 869.8,492.3 909.5,515.2 909.5,509.5 		"/>
	</g>
	<g id="Layer_252">
		<polygon class="st3" points="909.5,509.5 949.2,486.6 949.2,492.3 909.5,515.2 		"/>
	</g>
	<g id="Layer_251">
		<line class="st2" x1="949.2" y1="486.6" x2="949.2" y2="480.1"/>
	</g>
	<g id="Layer_250">
		<line class="st2" x1="909.5" y1="509.5" x2="909.5" y2="503"/>
	</g>
	<g id="Layer_249">
		<line class="st2" x1="869.8" y1="486.6" x2="869.8" y2="480.1"/>
	</g>
	<g id="Layer_248">
		<line class="st2" x1="909.5" y1="420.4" x2="909.5" y2="411.5"/>
	</g>
</g>
<g id="Wall_x5F_4">
	<g id="Layer_135">
		<g>
			<polygon class="st3" points="680.2,679.7 680.2,736.4 631,764.8 631,708.1 			"/>
			<polygon class="st2" points="581.9,679.7 581.9,736.4 631,764.8 631,708.1 			"/>
			<polygon class="st2" points="631,651.3 581.9,679.7 631,708.1 680.2,679.7 			"/>
		</g>
	</g>
	<g id="Layer_134">
		<g>
			<polygon class="st2" points="418.1,679.7 418.1,736.4 369,764.8 369,708.1 			"/>
			<polygon class="st2" points="319.8,679.7 319.8,736.4 369,764.8 369,708.1 			"/>
			<polygon class="st2" points="369,651.3 319.8,679.7 369,708.1 418.1,679.7 			"/>
		</g>
	</g>
	<g id="Layer_133">
		<g>
			<polygon class="st2" points="369,764.8 467.2,821.5 467.2,764.8 369,708.1 			"/>
			<polygon class="st2" points="500,745.9 401.7,689.1 369,708.1 467.2,764.8 			"/>
		</g>
	</g>
	<g id="Layer_132">
		<g>
			<polygon class="st3" points="631,764.8 532.8,821.5 532.8,764.8 631,708.1 			"/>
			<polygon class="st2" points="500,745.9 598.3,689.1 631,708.1 532.8,764.8 			"/>
		</g>
	</g>
	<g id="Layer_131">
		<g>
			<polygon class="st2" points="532.8,727 500,708.1 467.2,727 500,745.9 			"/>
			<polygon class="st3" points="532.8,727 532.8,821.5 500,840.5 500,745.9 			"/>
			<polygon class="st2" points="467.2,727 467.2,821.5 500,840.5 500,745.9 			"/>
		</g>
	</g>
</g>
<g id="Wall_x5F_Col_x5F_4b">
	<g id="Layer_167">
		<polygon class="st3" points="671,601.8 671,678.6 631,701.7 631,624.8 		"/>
	</g>
	<g id="Layer_166">
		<polygon class="st2" points="591.1,601.8 591.1,678.6 631,701.7 631,624.8 		"/>
	</g>
	<g id="Layer_165">
		<polygon class="st2" points="631,578.7 591.1,601.8 631,624.8 671,601.8 		"/>
	</g>
</g>
<g id="Wall_x5F_Col_x5F_4a">
	<g id="Layer_163">
		<polygon class="st3" points="408.9,601.8 408.9,678.6 369,701.7 369,624.8 		"/>
	</g>
	<g id="Layer_162">
		<polygon class="st2" points="329,601.8 329,678.6 369,701.7 369,624.8 		"/>
	</g>
	<g id="Layer_161">
		<polygon class="st2" points="369,578.7 329,601.8 369,624.8 408.9,601.8 		"/>
	</g>
</g>
<g id="Wall_x5F_Col_x5F_Roof_x5F_3">
	<g id="Layer_216">
		<polygon class="st2" points="369,564.6 319.8,593 369,621.4 418.1,593 		"/>
	</g>
	<g id="Layer_215">
		<polygon class="st2" points="319.8,593 319.8,601.8 369,630.1 369,621.4 		"/>
	</g>
	<g id="Layer_214">
		<polygon class="st3" points="418.1,593 418.1,601.8 369,630.1 369,621.4 		"/>
	</g>
	<g id="Layer_213">
		<polygon class="st2" points="329,593 369,616.1 369,512.3 		"/>
	</g>
	<g id="Layer_212">
		<polygon class="st3" points="408.9,593 369,616.1 369,512.3 		"/>
	</g>
	<g id="Layer_211">
		<line class="st2" x1="418.1" y1="593" x2="418.1" y2="586.5"/>
	</g>
	<g id="Layer_210">
		<line class="st2" x1="369" y1="621.4" x2="369" y2="614.9"/>
	</g>
	<g id="Layer_209">
		<line class="st2" x1="319.8" y1="593" x2="319.8" y2="586.5"/>
	</g>
	<g id="Layer_208">
		<line class="st2" x1="369" y1="512.3" x2="369" y2="505.9"/>
	</g>
</g>
<g id="Wall_x5F_Col_x5F_Roof_x5F_4">
	<g id="Layer_226">
		<polygon class="st2" points="539.7,723 500,700.1 460.3,723 500,745.9 		"/>
	</g>
	<g id="Layer_225">
		<polygon class="st2" points="467.2,723 500,741.9 500,656.8 		"/>
	</g>
	<g id="Layer_224">
		<polygon class="st3" points="532.8,723 500,741.9 500,656.8 		"/>
	</g>
	<g id="Layer_223">
		<polygon class="st2" points="460.3,723 460.3,728.7 500,751.6 500,745.9 		"/>
	</g>
	<g id="Layer_222">
		<polygon class="st2" points="500,745.9 539.7,723 539.7,728.7 500,751.6 		"/>
	</g>
	<g id="Layer_221">
		<line class="st2" x1="539.7" y1="723" x2="539.7" y2="716.5"/>
	</g>
	<g id="Layer_220">
		<line class="st2" x1="500" y1="745.9" x2="500" y2="739.4"/>
	</g>
	<g id="Layer_219">
		<line class="st2" x1="460.3" y1="723" x2="460.3" y2="716.5"/>
	</g>
	<g id="Layer_218">
		<line class="st2" x1="500" y1="656.8" x2="500" y2="647.9"/>
	</g>
</g>
<g id="Wall_x5F_Col_x5F_Roof_x5F_5">
	<g id="Layer_236">
		<polygon class="st2" points="631,564.6 581.9,593 631,621.4 680.2,593 		"/>
	</g>
	<g id="Layer_235">
		<polygon class="st2" points="581.9,593 581.9,601.8 631,630.1 631,621.4 		"/>
	</g>
	<g id="Layer_234">
		<polygon class="st3" points="680.2,593 680.2,601.8 631,630.1 631,621.4 		"/>
	</g>
	<g id="Layer_233">
		<polygon class="st2" points="591.1,593 631,616.1 631,512.3 		"/>
	</g>
	<g id="Layer_232">
		<polygon class="st3" points="671,593 631,616.1 631,512.3 		"/>
	</g>
	<g id="Layer_231">
		<line class="st2" x1="680.2" y1="593" x2="680.2" y2="586.5"/>
	</g>
	<g id="Layer_230">
		<line class="st2" x1="631" y1="621.4" x2="631" y2="614.9"/>
	</g>
	<g id="Layer_229">
		<line class="st2" x1="581.9" y1="593" x2="581.9" y2="586.5"/>
	</g>
	<g id="Layer_228">
		<line class="st2" x1="631" y1="512.3" x2="631" y2="505.9"/>
	</g>
</g>
</svg>
