<?xml version="1.0" encoding="utf-8"?>
<!-- Generator: Adobe Illustrator 23.1.0, SVG Export Plug-In . SVG Version: 6.00 Build 0)  -->
<svg version="1.1" id="Layer_1" xmlns="http://www.w3.org/2000/svg" xmlns:xlink="http://www.w3.org/1999/xlink" x="0px" y="0px"
	 viewBox="0 0 100 100" style="enable-background:new 0 0 100 100;" xml:space="preserve">
<style type="text/css">
	.st0{fill:#262626;}
</style>
<g>
	<path class="st0" d="M55.43,58.19c-0.06,0.4-0.07,0.65-0.07,0.65v-0.65H55.43z"/>
	<polygon class="st0" points="33.41,23.76 30.62,31.58 24.49,31.58 24.49,58.36 15.93,58.36 15.93,14.28 24.49,14.28 24.49,23.76 	
		"/>
	<path class="st0" d="M44.2,66.05v6.88c0,0-0.37,8.18-8.56,8.18H24.49c0,0-8.56,0-8.56-8.18v-6.88h8.56v6.88h11.16v-6.88H44.2z"/>
	<path class="st0" d="M83.63,58.84v22.27h-8.56V58.84H63.91v26.98h-8.55v-4.71h-5.58v-8.55h5.58V58.84c0,0,0.01-0.25,0.07-0.65
		h-0.07v-6.88H44.2v6.88h-8.56v-6.88c0,0,0.38-8.19,8.56-8.19h11.16c0,0,8.09,0,8.54,7.54h11.17
		C75.07,50.66,83.63,50.66,83.63,58.84z"/>
</g>
</svg>
